<svg width="374" height="282" viewBox="0 0 374 282" fill="none" xmlns="http://www.w3.org/2000/svg">
<path d="M337.158 118.515C332.708 118.515 331.033 96.8515 335.485 96.5051C311.417 99.0665 286.706 103.003 269.907 100.334C264.009 107.607 259.198 115.697 255.623 124.351C253.353 116.205 252.527 107.724 253.183 99.2935C249.987 99.0332 215.114 75.9104 200.431 67.3223C197.247 69.4759 194.535 72.2537 192.459 75.4872C190.381 78.7205 188.984 82.3422 188.348 86.1324L239.81 117.44L243.863 111.603C242.916 113.934 242.385 116.413 242.297 118.927C242.149 123.984 243.785 131.38 249.88 144.365C255.828 146.15 265.534 143.398 272.93 139.123C272.596 134.476 274.863 128.787 276.574 124.031C275.261 123.069 273.881 122.199 272.447 121.428C294.257 122.864 314.779 121.238 337.158 118.515Z" fill="#B476E5"/>
<path d="M155.851 152.68C144.548 151.795 133.207 151.484 121.872 151.75C122.58 149.341 123.004 146.858 123.136 144.352C113.842 146.768 104.845 146.843 92.8752 145.134V144.986C87.3141 148.664 82.4595 161.708 85.9464 171.296L76.2938 191.681L48.784 174.129C40.4933 179.297 36.3294 185.915 33.2808 196.064L67.9659 219.819C70.2927 221.416 72.9311 222.502 75.7075 223.005C78.4841 223.51 81.3359 223.42 84.0751 222.741C86.8144 222.063 89.3791 220.813 91.6004 219.072C93.8216 217.332 95.6492 215.141 96.9628 212.644L108.042 191.566L94.059 180.886C96.1099 182.083 98.3118 182.999 100.606 183.61C112.02 186.77 128.711 185.506 139.937 184.13C136.635 197.264 134.054 210.568 132.206 223.983C139.284 228.746 147.916 230.62 156.332 229.225C162.62 211.603 167.933 193.648 172.246 175.44C172.891 172.85 172.963 170.149 172.458 167.527C171.953 164.907 170.883 162.426 169.323 160.26C167.762 158.094 165.749 156.294 163.423 154.985C161.096 153.676 158.512 152.889 155.851 152.68Z" fill="#B476E5"/>
<path d="M318.645 37.3578C318.366 37.0757 318.033 36.8518 317.665 36.699C317.299 36.5462 316.906 36.4675 316.507 36.4675C316.109 36.4675 315.716 36.5462 315.35 36.699C314.982 36.8518 314.65 37.0757 314.37 37.3578L313.587 38.1405L312.804 37.3578C312.237 36.791 311.468 36.4724 310.666 36.4726C309.863 36.4728 309.094 36.7916 308.527 37.3588C307.962 37.9261 307.643 38.6953 307.643 39.4973C307.643 40.2992 307.962 41.0684 308.529 41.6353L313.617 46.6915L318.636 41.6353C318.919 41.356 319.144 41.0236 319.299 40.6567C319.451 40.29 319.532 39.8963 319.532 39.4985C319.534 39.1009 319.455 38.7068 319.303 38.3393C319.15 37.9719 318.927 37.6384 318.645 37.3578Z" fill="#B476E5"/>
<path d="M105.774 254.839L100.606 254.059L98.3014 249.411L95.9964 254.059L90.8306 254.839L94.5855 258.446L93.6933 263.576L98.3014 261.16L102.911 263.576L102.019 258.446L105.774 254.839Z" fill="#47BDFF"/>
<path d="M261.058 91.8885L257.145 95.6063C257.507 94.5743 257.732 93.4994 257.814 92.4089C258.911 92.3563 259.999 92.1818 261.058 91.8885Z" fill="#47BDFF"/>
<path d="M277.343 121.676C277.083 122.42 276.823 123.201 276.525 124.024C275.212 123.062 273.833 122.193 272.398 121.422C274.071 121.49 275.707 121.602 277.343 121.676Z" fill="#47BDFF"/>
<path d="M307.604 59.9632C301.514 54.907 285.002 69.109 285.002 69.109C288.048 54.0891 265.743 66.9566 258.233 74.2767C262.1 71.191 265.186 77.881 264.851 81.6732C264.851 82.5674 265.334 82.7533 266.71 81.7867C269.573 79.7047 271.617 84.6494 266.227 86.9525C265.865 87.344 265.599 87.8123 265.444 88.3222C264.456 91.128 264.391 94.1764 265.258 97.0219C290.279 91.8991 313.664 64.9822 307.604 59.9632Z" fill="#47BDFF"/>
<path d="M264.627 174.018L261.653 176.583L259.051 165.542L264.627 174.018Z" fill="#47BDFF"/>
<path d="M182.952 1.00002C179.972 1.00002 177.059 1.88368 174.581 3.53928C172.104 5.19488 170.172 7.54786 169.032 10.301C167.892 13.0541 167.593 16.0835 168.175 19.0063C168.756 21.9289 170.191 24.6137 172.298 26.7208C174.405 28.828 177.09 30.2628 180.013 30.8442C182.935 31.4257 185.965 31.1273 188.719 29.9869C191.472 28.8466 193.824 26.9153 195.479 24.4376C197.135 21.9598 198.019 19.0468 198.019 16.0669C198.023 14.0873 197.635 12.1264 196.88 10.2969C196.123 8.46714 195.013 6.80469 193.614 5.40503C192.213 4.00518 190.552 2.89551 188.723 2.13963C186.893 1.38374 184.932 0.996502 182.952 1.00002ZM183.324 25.2401C183.324 25.3387 183.285 25.4332 183.215 25.5031C183.145 25.5727 183.051 25.6119 182.952 25.6119C182.903 25.6148 182.853 25.607 182.807 25.5894C182.76 25.5718 182.718 25.5444 182.683 25.5093C182.648 25.4741 182.621 25.432 182.603 25.3857C182.585 25.3393 182.578 25.2896 182.58 25.2401V13.5662C182.581 13.4678 182.62 13.3735 182.69 13.3038C182.759 13.2343 182.854 13.195 182.952 13.1944C183.002 13.1915 183.051 13.1993 183.098 13.2169C183.144 13.2345 183.186 13.2619 183.221 13.297C183.256 13.3322 183.284 13.3742 183.301 13.4206C183.319 13.467 183.327 13.5167 183.324 13.5662V25.2401ZM181.911 7.91709C181.923 7.64393 182.04 7.38584 182.237 7.19682C182.435 7.0076 182.697 6.90213 182.971 6.90213C183.244 6.90213 183.507 7.0076 183.704 7.19682C183.902 7.38584 184.019 7.64393 184.03 7.91709C184.019 8.19025 183.902 8.44835 183.704 8.63737C183.507 8.82658 183.244 8.93205 182.971 8.93205C182.697 8.93205 182.435 8.82658 182.237 8.63737C182.04 8.44835 181.923 8.19025 181.911 7.91709Z" fill="#47BDFF"/>
<path d="M93.8394 180.749L108.041 191.568L111.35 185.322C105.239 185.165 99.247 183.6 93.8394 180.749Z" fill="#47BDFF"/>
<path d="M106.109 98.8113L101.647 95.8019C102.93 95.9561 104.223 96.006 105.514 95.9506C105.616 96.9217 105.815 97.8801 106.109 98.8113Z" fill="#47BDFF"/>
<path d="M243.81 111.602C242.863 113.933 242.333 116.412 242.245 118.926L239.754 117.402L243.81 111.602Z" fill="#47BDFF"/>
<path d="M125.143 111.861C125.475 113.482 125.711 115.12 125.849 116.768C126.556 116.434 127.337 116.025 128.117 115.616L125.143 111.861Z" fill="#47BDFF"/>
<path d="M135.292 227.032C134.438 229.486 133.358 231.94 132.617 234.094C133.194 236.567 134.093 238.955 135.292 241.195C139.047 248.147 142.802 261.792 145.776 265.212C147.412 260.342 149.159 248.112 150.311 241.232C144.509 237.419 139.424 232.613 135.292 227.032Z" fill="#47BDFF"/>
<path d="M36.3294 171.194C33.7933 171.082 31.2538 171.321 28.7823 171.9C21.0492 173.685 6.88639 173.685 2.83398 175.655C7.07228 178.555 18.4096 183.5 24.7299 186.4C29.9547 181.792 35.9602 178.152 42.4638 175.655C40.2703 174.168 38.1883 172.495 36.3294 171.194Z" fill="#47BDFF"/>
<path d="M102.391 75.0605C101.164 73.0529 98.4773 73.1644 98.7473 74.6887C97.0763 73.2016 94.1764 73.906 94.509 75.6182C92.5034 73.9824 90.1612 75.2836 90.6425 76.8451C88.8971 75.5067 87.001 76.8451 87.5959 78.4437C85.105 77.3656 83.023 79.2264 85.9601 82.1615C87.2241 83.4256 92.7245 87.5132 95.8103 92.681C96.0001 91.9376 95.9825 91.1567 95.7598 90.4225C95.5369 89.6885 95.1172 89.0295 94.5462 88.517C91.4976 86.212 93.5796 83.4628 95.5129 85.3569C97.223 87.0299 96.6673 84.5742 95.4385 82.3826C95.6931 82.6022 95.9989 82.7542 96.3276 82.8245C96.6564 82.8949 96.9976 82.8814 97.3197 82.7853C97.642 82.6893 97.9347 82.5137 98.1713 82.2746C98.4076 82.0357 98.5802 81.7412 98.673 81.418C98.9168 81.6021 99.1978 81.731 99.4964 81.7954C99.7952 81.8598 100.104 81.8584 100.402 81.7911C100.7 81.7238 100.98 81.5925 101.222 81.406C101.464 81.2196 101.663 80.9826 101.804 80.7116C103.173 81.6763 105.038 81.0834 105.113 79.6334C104.287 78.2167 103.357 76.6553 102.391 75.0605Z" fill="#47BDFF"/>
<path d="M92.7298 124.722L90.0178 128.216C89.646 126.768 89.2742 125.354 88.8652 123.98C90.1234 124.203 92.7298 124.722 92.7298 124.722Z" fill="#47BDFF"/>
<path d="M54.805 115.54C54.792 115.867 54.6535 116.175 54.4179 116.402C54.1825 116.628 53.8685 116.755 53.5419 116.755C53.2153 116.755 52.9013 116.628 52.6659 116.402C52.4305 116.175 52.2917 115.867 52.2788 115.54C52.2917 115.214 52.4305 114.905 52.6659 114.679C52.9013 114.452 53.2153 114.326 53.5419 114.326C53.8685 114.326 54.1825 114.452 54.4179 114.679C54.6535 114.905 54.792 115.214 54.805 115.54Z" fill="#47BDFF"/>
<path d="M71.7586 104.389C71.7586 104.725 71.6255 105.046 71.3884 105.283C71.1514 105.52 70.8297 105.653 70.4945 105.653C70.1593 105.653 69.8378 105.52 69.6007 105.283C69.3637 105.046 69.2305 104.725 69.2305 104.389C69.2305 104.054 69.3637 103.733 69.6007 103.496C69.8378 103.259 70.1593 103.125 70.4945 103.125C70.8297 103.125 71.1514 103.259 71.3884 103.496C71.6255 103.733 71.7586 104.054 71.7586 104.389Z" fill="#47BDFF"/>
<path d="M88.0042 116.806C88.0042 117.141 87.8709 117.463 87.634 117.7C87.397 117.937 87.0753 118.07 86.7401 118.07C86.4049 118.07 86.0834 117.937 85.8463 117.7C85.6093 117.463 85.4761 117.141 85.4761 116.806C85.4761 116.471 85.6093 116.149 85.8463 115.912C86.0834 115.675 86.4049 115.542 86.7401 115.542C87.0753 115.542 87.397 115.675 87.634 115.912C87.8709 116.149 88.0042 116.471 88.0042 116.806Z" fill="#47BDFF"/>
<path d="M110.161 120.337C110.161 120.672 110.028 120.994 109.791 121.231C109.554 121.468 109.232 121.601 108.897 121.601C108.562 121.601 108.24 121.468 108.003 121.231C107.766 120.994 107.633 120.672 107.633 120.337C107.633 120.002 107.766 119.68 108.003 119.443C108.24 119.206 108.562 119.073 108.897 119.073C109.232 119.073 109.554 119.206 109.791 119.443C110.028 119.68 110.161 120.002 110.161 120.337Z" fill="#47BDFF"/>
<path d="M121.691 101.005C121.691 101.34 121.557 101.661 121.321 101.899C121.083 102.136 120.762 102.269 120.427 102.269C120.091 102.269 119.77 102.136 119.533 101.899C119.296 101.661 119.163 101.34 119.163 101.005C119.163 100.67 119.296 100.348 119.533 100.111C119.77 99.874 120.091 99.7407 120.427 99.7407C120.762 99.7407 121.083 99.874 121.321 100.111C121.557 100.348 121.691 100.67 121.691 101.005Z" fill="#47BDFF"/>
<path d="M143.247 100.745C143.247 101.08 143.114 101.401 142.877 101.638C142.64 101.875 142.318 102.009 141.983 102.009C141.648 102.009 141.326 101.875 141.089 101.638C140.852 101.401 140.719 101.08 140.719 100.745C140.719 100.409 140.852 100.088 141.089 99.8507C141.326 99.6138 141.648 99.4805 141.983 99.4805C142.318 99.4805 142.64 99.6138 142.877 99.8507C143.114 100.088 143.247 100.409 143.247 100.745Z" fill="#47BDFF"/>
<path d="M150.534 83.6085C150.534 83.9437 150.401 84.2652 150.164 84.5024C149.927 84.7393 149.605 84.8726 149.27 84.8726C148.935 84.8726 148.613 84.7393 148.376 84.5024C148.139 84.2652 148.006 83.9437 148.006 83.6085C148.006 83.2733 148.139 82.9518 148.376 82.7147C148.613 82.4777 148.935 82.3445 149.27 82.3445C149.605 82.3445 149.927 82.4777 150.164 82.7147C150.401 82.9518 150.534 83.2733 150.534 83.6085Z" fill="#47BDFF"/>
<path d="M100.829 137.697C100.829 138.032 100.696 138.354 100.459 138.591C100.222 138.828 99.9005 138.961 99.5653 138.961C99.2301 138.961 98.9086 138.828 98.6715 138.591C98.4345 138.354 98.3013 138.032 98.3013 137.697C98.3013 137.362 98.4345 137.04 98.6715 136.803C98.9086 136.566 99.2301 136.433 99.5653 136.433C99.9005 136.433 100.222 136.566 100.459 136.803C100.696 137.04 100.829 137.362 100.829 137.697Z" fill="#47BDFF"/>
<path d="M120.422 136.435C120.422 136.77 120.288 137.092 120.051 137.329C119.814 137.566 119.493 137.699 119.158 137.699C118.822 137.699 118.501 137.566 118.264 137.329C118.027 137.092 117.894 136.77 117.894 136.435C117.894 136.1 118.027 135.778 118.264 135.541C118.501 135.304 118.822 135.171 119.158 135.171C119.493 135.171 119.814 135.304 120.051 135.541C120.288 135.778 120.422 136.1 120.422 136.435Z" fill="#47BDFF"/>
<path d="M337.79 98.6626C336.489 98.7369 334.184 98.8485 333.663 98.8856C334.63 95.8018 336.344 95.7627 337.79 98.6626Z" fill="#47BDFF"/>
<path d="M338.98 116.509C338.051 119.037 336.526 119.149 335.225 116.806C336.303 116.74 337.604 116.62 338.98 116.509Z" fill="#47BDFF"/>
<path d="M202.21 74.2776C202.21 74.6128 202.077 74.9343 201.84 75.1714C201.604 75.4084 201.281 75.5416 200.946 75.5416C200.612 75.5416 200.289 75.4084 200.052 75.1714C199.815 74.9343 199.682 74.6128 199.682 74.2776C199.682 73.9424 199.815 73.6209 200.052 73.3837C200.289 73.1468 200.612 73.0135 200.946 73.0135C201.281 73.0135 201.604 73.1468 201.84 73.3837C202.077 73.6209 202.21 73.9424 202.21 74.2776Z" fill="#47BDFF"/>
<path d="M329.09 103.533C329.076 103.859 328.939 104.168 328.703 104.394C328.468 104.621 328.153 104.747 327.828 104.747C327.501 104.747 327.186 104.621 326.951 104.394C326.715 104.168 326.578 103.859 326.564 103.533C326.578 103.206 326.715 102.897 326.951 102.671C327.186 102.445 327.501 102.318 327.828 102.318C328.153 102.318 328.468 102.445 328.703 102.671C328.939 102.897 329.076 103.206 329.09 103.533Z" fill="#47BDFF"/>
<path d="M299.387 186.882C299.376 184.745 299.252 182.61 299.016 180.487L309.76 170.524L299.387 186.882Z" fill="#47BDFF"/>
<path d="M194.849 237.443C180.326 239.256 165.58 237.691 151.761 232.87" stroke="white" stroke-width="0.75" stroke-linecap="round" stroke-linejoin="round"/>
<path d="M269.313 181.115C260.353 202.1 244.077 219.115 223.511 228.999" stroke="white" stroke-width="0.75" stroke-linecap="round" stroke-linejoin="round"/>
<path d="M275.261 127.511C276.085 131.954 276.568 136.453 276.711 140.969" stroke="white" stroke-width="0.75" stroke-linecap="round" stroke-linejoin="round"/>
<path d="M197.637 51.6724C219.335 55.0828 239.141 66.0198 253.586 82.5674" stroke="white" stroke-width="0.75" stroke-linecap="round" stroke-linejoin="round"/>
<path d="M175.069 50.8528C179.3 50.513 183.549 50.4507 187.788 50.667C188.532 50.7061 189.312 50.7413 190.056 50.8157" stroke="white" stroke-width="0.75" stroke-linecap="round" stroke-linejoin="round"/>
<path d="M108.748 86.8765C122.591 69.0046 142.418 56.7282 164.587 52.3029" stroke="white" stroke-width="0.75" stroke-linecap="round" stroke-linejoin="round"/>
<path d="M89.2323 148.963C89.0804 145.816 89.0928 142.664 89.2694 139.519C89.4479 136.17 89.7952 132.832 90.3104 129.519" stroke="white" stroke-width="0.75" stroke-linecap="round" stroke-linejoin="round"/>
<path d="M132.391 223.426C121.629 216.525 112.383 207.508 105.216 196.92" stroke="white" stroke-width="0.75" stroke-linecap="round" stroke-linejoin="round"/>
<path d="M257.824 92.3802C258.906 92.3476 259.978 92.1853 261.021 91.8969L257.155 95.5775" stroke="white" stroke-width="0.75" stroke-linecap="round" stroke-linejoin="round"/>
<path d="M354.706 102.456L362.03 99.1097C366.675 96.9906 366.726 94.7305 361.175 96.5072C360.838 96.6149 352.587 99.0686 351.286 99.2584C350.282 99.4052 348.546 99.5539 348.351 98.8866C347.605 96.3429 350.699 89.4708 348.536 88.7742C347.126 88.3222 344.715 92.7562 343.183 95.9496C342.111 98.1842 340.248 98.552 337.792 98.6636" stroke="white" stroke-width="0.75" stroke-linecap="round" stroke-linejoin="round"/>
<path d="M353.368 102.604C353.368 102.604 364.521 101.234 365.265 101.117C371.06 100.274 370.655 102.461 365.711 103.831C360.989 105.138 355.301 106.766 355.301 106.766" stroke="white" stroke-width="0.75" stroke-linecap="round" stroke-linejoin="round"/>
<path d="M353.368 106.731C357.027 106.84 360.688 106.741 364.335 106.434C370.17 105.978 369.538 107.921 364.595 109.148C361.547 109.981 358.44 110.59 355.301 110.97" stroke="white" stroke-width="0.75" stroke-linecap="round" stroke-linejoin="round"/>
<path d="M338.979 116.509C338.979 116.509 347.047 115.981 348.609 115.84C351.618 115.566 354.71 115.087 357.717 114.688C358.758 114.549 359.985 114.359 361.398 114.101C366.607 113.122 367.382 111.189 361.472 111.35C358.3 111.425 355.13 111.125 352.029 110.457" stroke="white" stroke-width="0.75" stroke-linecap="round" stroke-linejoin="round"/>
<path d="M353.144 100.819C353.709 105.45 352.7 110.136 350.281 114.125" stroke="white" stroke-width="0.75" stroke-linecap="round" stroke-linejoin="round"/>
<path d="M348.758 100.744C347.885 103.051 346.543 105.151 344.813 106.912C343.085 108.672 341.011 110.053 338.72 110.968" stroke="white" stroke-width="0.75" stroke-linecap="round" stroke-linejoin="round"/>
<path d="M277.367 121.691C277.106 122.434 276.846 123.215 276.549 124.039C274.615 122.738 272.976 121.896 272.422 121.436C274.095 121.505 275.731 121.616 277.367 121.691Z" stroke="white" stroke-width="0.75" stroke-linecap="round" stroke-linejoin="round"/>
<path d="M239.757 117.439L243.81 111.602C242.757 113.902 242.209 116.401 242.205 118.93" stroke="white" stroke-width="0.75" stroke-linecap="round" stroke-linejoin="round"/>
<path d="M253.183 99.2947C254.527 99.2947 256.265 98.1402 257.161 95.5769C257.521 94.5447 257.746 93.4699 257.83 92.3796C254.336 92.4168 249.847 90.6185 254.931 79.1833C256.024 76.7257 258.147 72.9668 260.785 73.5421C263.35 74.1036 265.111 78.6452 264.894 81.5647C264.806 82.819 265.677 82.5118 266.708 81.778C269.589 79.7195 271.616 84.6387 266.225 86.9438C265.867 87.3371 265.599 87.8047 265.442 88.3135C264.051 94.1837 264.002 99.0188 269.904 100.359" stroke="white" stroke-width="0.75" stroke-linecap="round" stroke-linejoin="round"/>
<path d="M258.27 74.2773C265.78 66.9532 288.087 54.0896 285.038 69.1096C285.038 69.1096 301.541 54.9095 307.64 59.9638C313.706 64.9848 290.353 91.8977 265.334 97.0283" stroke="white" stroke-width="0.75" stroke-linecap="round" stroke-linejoin="round"/>
<path d="M337.158 118.515C332.757 118.515 331.032 96.8516 335.485 96.5053C311.613 99.049 286.856 103.031 269.907 100.335C264.009 107.607 259.198 115.697 255.623 124.352C253.353 116.206 252.527 107.725 253.183 99.2936C249.987 99.0334 215.114 75.9106 200.431 67.3225C197.247 69.4761 194.535 72.2538 192.459 75.4874C190.381 78.7207 188.984 82.3424 188.348 86.1326L242.211 118.928C242.198 119.528 242.211 120.158 242.245 120.831C242.52 125.817 244.428 132.918 249.8 144.351C256.443 146.334 266.739 142.684 272.924 139.109C272.533 133.675 275.699 126.821 277.372 121.694C297.372 122.608 316.471 121.023 337.158 118.515Z" stroke="white" stroke-width="0.75" stroke-linecap="round" stroke-linejoin="round"/>
<path d="M249.831 144.353L217.711 178.741C211.909 184.938 207.677 192.434 205.37 200.601L193.361 242.571C196.676 245.499 200.648 247.581 204.943 248.637C209.236 249.694 213.723 249.694 218.016 248.637L230.344 203.981C266.823 172.051 260.573 177.508 264.62 174.017L284.51 204.315C285.678 206.092 287.218 207.593 289.022 208.718C290.828 209.841 292.854 210.561 294.965 210.825C297.074 211.091 299.215 210.896 301.242 210.252C303.269 209.61 305.132 208.536 306.703 207.104L344.288 172.79C343.3 168.529 341.322 164.56 338.514 161.206C335.708 157.853 332.149 155.207 328.128 153.485L299.008 180.488C299.008 180.488 293.989 147.364 272.873 139.111" stroke="white" stroke-width="0.75" stroke-linecap="round" stroke-linejoin="round"/>
<path d="M261.654 176.583L259.051 165.542L264.628 174.018" stroke="white" stroke-width="0.75" stroke-linecap="round" stroke-linejoin="round"/>
<path d="M195.704 244.356C194.238 252.241 191.996 259.961 189.012 267.406C186.18 273.797 183.961 279.52 184.774 280.493C187.619 283.896 197.297 269.197 204.478 265.436C206.188 264.587 207.718 263.412 208.978 261.978C211.501 259 210.092 255.546 213.029 249.338" stroke="white" stroke-width="0.75" stroke-linecap="round" stroke-linejoin="round"/>
<path d="M342.772 168.219C348.928 162.979 355.383 158.101 362.105 153.61C367.94 149.742 372.884 146.1 372.736 144.873C372.209 140.486 356.084 147.595 348.052 146.918C346.142 146.719 344.212 146.883 342.363 147.401C338.645 148.525 338.162 152.049 332.325 155.729" stroke="white" stroke-width="0.75" stroke-linecap="round" stroke-linejoin="round"/>
<path d="M187.562 63.0839C187.562 54.8656 193.953 39.5444 196.448 38.2882C196.514 38.258 196.586 38.2453 196.657 38.2518C196.729 38.2582 196.798 38.2833 196.858 38.3246C196.917 38.366 196.964 38.422 196.995 38.4874C197.027 38.5527 197.04 38.6251 197.035 38.6971C196.179 47.475 190.485 62.4676 198.422 68.782" stroke="white" stroke-width="0.75" stroke-linecap="round" stroke-linejoin="round"/>
<path d="M189.309 82.3799C186.446 80.4467 182.407 77.0967 182.542 73.829C182.916 64.7967 182.859 60.5564 182.877 56.9873C182.891 54.3477 184.967 54.2714 186.372 58.8462C187.604 62.8595 188.9 68.5125 188.9 68.5125" stroke="white" stroke-width="0.75" stroke-linecap="round" stroke-linejoin="round"/>
<path d="M195.295 49.1071C196.078 47.8058 196.925 46.4655 197.265 45.9117C199.75 41.8691 200.748 42.8592 200.537 43.6067C199.709 46.53 197.711 50.9288 197.042 53.6428C196.044 57.6365 194.346 63.2112 197.512 67.9544" stroke="white" stroke-width="0.75" stroke-linecap="round" stroke-linejoin="round"/>
<path d="M157.338 181.313C157.338 181.313 149.94 182.911 139.939 184.138" stroke="white" stroke-width="0.75" stroke-linecap="round" stroke-linejoin="round"/>
<path d="M89.1204 149.149C90.0866 147.538 91.3622 146.135 92.8734 145.022V145.171C104.845 146.881 113.842 146.807 123.136 144.388C123.004 146.895 122.58 149.378 121.872 151.787C133.172 151.526 144.498 151.835 155.851 152.716C158.509 152.921 161.091 153.704 163.415 155.011C165.74 156.316 167.751 158.115 169.308 160.279C170.866 162.443 171.932 164.922 172.433 167.54C172.934 170.158 172.857 172.855 172.207 175.442C167.902 193.653 162.59 211.612 156.297 229.236C147.88 230.631 139.248 228.757 132.169 223.994C134.019 210.579 136.6 197.275 139.902 184.141C128.676 185.511 111.987 186.769 100.571 183.621C93.8068 181.756 88.2927 177.862 85.8957 171.24C83.1582 163.727 85.6237 154.612 89.1204 149.149Z" stroke="white" stroke-width="0.75" stroke-linecap="round" stroke-linejoin="round"/>
<path d="M121.909 151.825C120.05 151.862 118.228 151.937 116.406 152.011" stroke="white" stroke-width="0.75" stroke-linecap="round" stroke-linejoin="round"/>
<path d="M111.319 185.318L96.9564 212.644C95.6429 215.141 93.8153 217.333 91.594 219.072C89.3727 220.814 86.808 222.064 84.0688 222.741C81.3295 223.42 78.4778 223.51 75.7012 223.005C72.9248 222.502 70.2863 221.416 67.9595 219.82L33.2803 196.065C36.3328 185.904 40.5026 179.282 48.8129 174.112L76.2561 191.682L85.9224 171.234" stroke="white" stroke-width="0.75" stroke-linecap="round" stroke-linejoin="round"/>
<path d="M93.8774 180.749L108.042 191.568" stroke="white" stroke-width="0.75" stroke-linecap="round" stroke-linejoin="round"/>
<path d="M106.108 98.8105L101.647 95.7619C102.932 95.9058 104.226 95.9429 105.517 95.8735" stroke="white" stroke-width="0.75" stroke-linecap="round" stroke-linejoin="round"/>
<path d="M114.437 99.7413C113.767 100.15 113.098 100.524 112.429 100.931C111.702 101.502 110.803 101.809 109.879 101.803C108.954 101.796 108.06 101.475 107.341 100.894C106.202 99.4652 105.563 97.7018 105.524 95.8748C111.503 95.5245 111.869 91.5034 105.111 79.5928C105.04 79.9395 104.879 80.2614 104.644 80.5256C104.408 80.7895 104.107 80.9866 103.771 81.0961C103.434 81.2057 103.075 81.2241 102.729 81.1494C102.383 81.0748 102.063 80.9097 101.802 80.6709C101.668 80.9492 101.473 81.1936 101.232 81.3859C100.99 81.5783 100.708 81.7135 100.407 81.7814C100.106 81.8493 99.7937 81.8483 99.4929 81.7783C99.1921 81.7084 98.9114 81.5712 98.6711 81.3773C98.5781 81.7004 98.4055 81.9947 98.169 82.2336C97.9326 82.4725 97.6399 82.648 97.318 82.7443C96.9959 82.8406 96.6548 82.8543 96.3261 82.7844C95.9974 82.7144 95.6915 82.5629 95.4366 82.344C96.7006 84.5355 97.2211 86.9892 95.5109 85.3162C93.5777 83.4221 91.4957 86.2085 94.5463 88.4783C95.1172 88.9902 95.537 89.6489 95.7598 90.3826C95.9827 91.1164 96.0001 91.8973 95.8103 92.6403C97.5741 95.2132 98.2791 98.3665 97.7788 101.446C97.4442 103.011 95.2135 104.234 92.4956 103.528C95.7379 109.353 102.41 114.72 108.899 112.427C116.039 109.912 114.437 99.7413 114.437 99.7413Z" stroke="white" stroke-width="0.75" stroke-linecap="round" stroke-linejoin="round"/>
<path d="M160.629 69.1904C169.812 62.246 170.174 47.5626 170.174 37.0334C170.174 36.6988 170.655 36.2507 170.915 36.4464C173.238 37.957 176.328 53.6128 175.584 61.8507" stroke="white" stroke-width="0.75" stroke-linecap="round" stroke-linejoin="round"/>
<path d="M171.167 81.6742C173.801 80.6133 175.983 78.6677 177.338 76.1719C180.169 69.8712 181.16 62.8984 180.197 56.0586C179.692 53.0882 178.15 53.3446 176.814 57.8431C175.622 61.8583 173.765 67.2492 173.765 67.2492" stroke="white" stroke-width="0.75" stroke-linecap="round" stroke-linejoin="round"/>
<path d="M160.474 69.0912C163.034 65.9604 165.442 60.4033 165.331 57.4701C165.03 54.1816 164.458 50.9237 163.621 47.7295C163.452 46.9468 164.429 45.9058 167.264 51.2516" stroke="white" stroke-width="0.75" stroke-linecap="round" stroke-linejoin="round"/>
<path d="M125.85 116.768C125.711 115.12 125.476 113.482 125.144 111.861L128.075 115.565" stroke="white" stroke-width="0.75" stroke-linecap="round" stroke-linejoin="round"/>
<path d="M123.173 144.389H123.21C124.809 134.946 126.556 125.391 125.85 116.768C140.696 108.98 159.565 93.8837 171.246 83.6069C172.571 82.2822 167.932 76.4159 166.656 74.9112C165.347 73.3673 160.228 67.683 158.422 68.587C144.775 80.3185 130.062 90.7483 114.474 99.7403" stroke="white" stroke-width="0.75" stroke-linecap="round" stroke-linejoin="round"/>
<path d="M152.542 229.711C151.584 233.505 150.851 237.354 150.349 241.236C144.531 237.426 139.444 232.603 135.329 226.997C135.478 226.672 135.602 226.337 135.7 225.993" stroke="white" stroke-width="0.75" stroke-linecap="round" stroke-linejoin="round"/>
<path d="M135.291 241.188C134.093 238.948 133.194 236.56 132.617 234.087C131.984 235.582 131.652 237.187 131.638 238.811C132.106 241.125 132.921 243.356 134.055 245.426C137.884 252.565 141.713 267.51 144.465 267.324C144.874 267.287 145.32 266.506 145.766 265.205C142.839 261.792 139.084 248.148 135.291 241.188Z" stroke="white" stroke-width="0.75" stroke-linecap="round" stroke-linejoin="round"/>
<path d="M135.291 227.032C134.438 229.486 133.358 231.94 132.616 234.094C133.193 236.567 134.093 238.955 135.291 241.195C139.046 248.147 142.801 261.792 145.775 265.212C147.411 260.342 149.158 248.112 150.311 241.232C144.508 237.419 139.424 232.613 135.291 227.032Z" stroke="white" stroke-width="0.75" stroke-linecap="round" stroke-linejoin="round"/>
<path d="M34.8786 191.344C31.5977 189.493 28.2085 187.841 24.729 186.399C29.9392 181.799 35.9333 178.173 42.4257 175.692C43.4295 176.361 43.5783 176.621 44.5449 177.179" stroke="white" stroke-width="0.75" stroke-linecap="round" stroke-linejoin="round"/>
<path d="M32.0537 169.037C29.6966 168.861 27.3264 169.049 25.027 169.597C17.1453 171.417 1.68119 171.119 1.15483 173.833C1.08047 174.242 1.7125 174.874 2.82784 175.655C6.88024 173.685 21.0431 173.685 28.8133 171.937C31.2845 171.356 33.8243 171.117 36.3605 171.233C35.0882 170.217 33.623 169.47 32.0537 169.037Z" stroke="white" stroke-width="0.75" stroke-linecap="round" stroke-linejoin="round"/>
<path d="M36.329 171.194C33.7928 171.082 31.2534 171.321 28.7818 171.9C21.0488 173.685 6.8859 173.685 2.8335 175.655C7.07179 178.555 18.4092 183.5 24.7294 186.4C29.9543 181.792 35.9597 178.152 42.4633 175.655C40.2698 174.168 38.1879 172.495 36.329 171.194Z" stroke="white" stroke-width="0.75" stroke-linecap="round" stroke-linejoin="round"/>
<path d="M12.7227 117.996C11.3099 118.479 9.48622 119.033 7.63515 119.595C4.21281 120.628 2.95072 120.004 6.3711 117.661C9.60504 115.466 13.1733 113.808 16.9375 112.754" stroke="white" stroke-width="0.75" stroke-linecap="round" stroke-linejoin="round"/>
<path d="M20.3421 108.441C19.3097 109.449 18.3754 110.553 17.5518 111.738C16.0737 113.953 15.074 116.451 14.6167 119.074" stroke="white" stroke-width="0.75" stroke-linecap="round" stroke-linejoin="round"/>
<path d="M11.422 114.799C-0.958346 119.149 -2.51199 117.12 7.85284 112.382C11.852 110.67 16.0152 109.371 20.2781 108.504" stroke="white" stroke-width="0.75" stroke-linecap="round" stroke-linejoin="round"/>
<path d="M35.6682 118.067C30.4887 117.778 19.437 119.709 11.4222 122.372C7.92749 123.525 6.05881 122.763 9.9351 119.844C11.5682 118.623 13.3183 117.567 15.1596 116.692" stroke="white" stroke-width="0.75" stroke-linecap="round" stroke-linejoin="round"/>
<path d="M14.2079 110.002C10.0459 110.968 0.559597 111.324 15.3232 106.544C17.6282 105.799 20.4107 105.174 23.0191 104.611C23.1664 103.641 22.9967 102.651 22.5357 101.785C20.9703 99.1633 21.4987 98.0988 24.06 99.6662C27.3108 101.878 31.1706 103.022 35.1019 102.938" stroke="white" stroke-width="0.75" stroke-linecap="round" stroke-linejoin="round"/>
<path d="M23.0191 104.608C23.0026 105.589 23.1889 106.564 23.5664 107.47C23.9438 108.376 24.5044 109.195 25.213 109.874C25.9213 110.554 26.7625 111.08 27.6837 111.42C28.6048 111.759 29.5861 111.905 30.5662 111.848" stroke="white" stroke-width="0.75" stroke-linecap="round" stroke-linejoin="round"/>
<path d="M105.104 79.6288C105.03 81.0787 103.171 81.6736 101.796 80.707C101.655 80.9782 101.456 81.2155 101.214 81.402C100.972 81.5887 100.692 81.7203 100.394 81.7875C100.096 81.8548 99.787 81.8562 99.4882 81.7916C99.1894 81.7268 98.9084 81.5979 98.6648 81.4133C98.5716 81.7362 98.3989 82.0303 98.1623 82.269C97.9257 82.5077 97.633 82.6831 97.3109 82.7791C96.989 82.8752 96.648 82.8887 96.3194 82.8187C95.9909 82.7486 95.6851 82.597 95.4303 82.378C96.6572 84.5715 97.2148 87.0272 95.5047 85.3522C93.5714 83.4581 91.4973 86.1995 94.538 88.5124C95.1098 89.0241 95.5301 89.6831 95.7532 90.4173C95.976 91.1516 95.9929 91.933 95.8021 92.6763C92.7183 87.5105 87.2159 83.421 85.9519 82.1569C83.0168 79.2218 85.0968 77.3609 87.5877 78.4391C87.0007 76.8404 88.8889 75.504 90.6343 76.8404C90.151 75.2751 92.4952 73.9777 94.5009 75.6136C94.1663 73.9034 97.0661 73.197 98.7391 74.6841C98.4789 73.1598 101.162 73.0444 102.383 75.0559C103.361 76.6506 105.104 79.6288 105.104 79.6288Z" stroke="white" stroke-width="0.75" stroke-linecap="round" stroke-linejoin="round"/>
<path d="M90.0124 128.216L92.7303 124.722C91.3938 124.463 90.1298 124.201 88.8657 123.98" stroke="white" stroke-width="0.75" stroke-linecap="round" stroke-linejoin="round"/>
<path d="M92.5035 103.534C92.0202 103.348 68.6313 97.2508 35.7718 100.403C33.9898 107.058 34.1939 114.088 36.3588 120.628C53.9291 119.199 71.6139 120.329 88.86 123.98C90.9545 130.828 92.3002 137.883 92.8733 145.021" stroke="white" stroke-width="0.75" stroke-linecap="round" stroke-linejoin="round"/>
<path d="M69.4897 60.9298C69.5768 61.9371 69.3633 62.9476 68.8763 63.8336C68.389 64.7194 67.6504 65.441 66.7532 65.9073C65.856 66.3734 64.8407 66.563 63.8359 66.4525C62.8309 66.3417 61.8813 65.9355 61.1072 65.2853C60.333 64.6349 59.769 63.7698 59.4865 62.7991C59.2039 61.8283 59.2155 60.7956 59.5197 59.8315C59.8242 58.8672 60.4073 58.015 61.1959 57.3822C61.9844 56.7496 62.943 56.3647 63.9502 56.2767C65.3009 56.1632 66.6417 56.5888 67.6797 57.4607C68.7176 58.3326 69.3684 59.5796 69.4897 60.9298Z" stroke="white" stroke-width="0.75" stroke-linecap="round" stroke-linejoin="round"/>
<path d="M273.29 238.186H257.192" stroke="white" stroke-width="0.75" stroke-linecap="round" stroke-linejoin="round"/>
<path d="M265.242 246.251V230.118" stroke="white" stroke-width="0.75" stroke-linecap="round" stroke-linejoin="round"/>
<path d="M47.5303 99.6294C45.7123 106.417 46.0502 113.602 48.4969 120.189" stroke="white" stroke-width="0.75" stroke-linecap="round" stroke-linejoin="round"/>
<path d="M151.433 74.462C157.021 78.1988 161.57 83.2917 164.655 89.2647" stroke="white" stroke-width="0.75" stroke-linecap="round" stroke-linejoin="round"/>
<path d="M337.79 98.6626C336.489 98.7369 334.184 98.8485 333.664 98.8856C334.63 95.8018 336.344 95.7627 337.79 98.6626Z" stroke="white" stroke-width="0.75" stroke-linecap="round" stroke-linejoin="round"/>
<path d="M338.98 116.509C338.051 119.037 336.526 119.149 335.225 116.806C336.303 116.74 337.604 116.62 338.98 116.509Z" stroke="white" stroke-width="0.75" stroke-linecap="round" stroke-linejoin="round"/>
<path d="M267.454 141.785C282.511 152.352 286.63 165.395 292.956 188.551C293.177 189.359 293.602 190.097 294.189 190.696C294.778 191.293 295.507 191.729 296.312 191.966C297.116 192.201 297.967 192.226 298.783 192.04C299.601 191.852 300.356 191.461 300.978 190.899L336.344 158.852" stroke="white" stroke-width="0.75" stroke-linecap="round" stroke-linejoin="round"/>
<path d="M208.976 249.301L221.801 200.155L259.497 167.402" stroke="white" stroke-width="0.75" stroke-linecap="round" stroke-linejoin="round"/>
<path d="M112.837 150.301C111.415 152.709 109.496 154.787 107.207 156.398C104.919 158.006 102.313 159.11 99.5649 159.632" stroke="white" stroke-width="0.75" stroke-linecap="round" stroke-linejoin="round"/>
<path d="M134.213 211.306C137.976 214.02 142.263 215.922 146.801 216.89C151.339 217.857 156.029 217.869 160.572 216.924" stroke="white" stroke-width="0.75" stroke-linecap="round" stroke-linejoin="round"/>
<path d="M58.8202 180.529C51.5353 185.436 46.8841 193.392 44.0625 203.422" stroke="white" stroke-width="0.75" stroke-linecap="round" stroke-linejoin="round"/>
<path d="M309.76 170.524L299.389 186.882C299.378 184.745 299.254 182.61 299.018 180.487" stroke="white" stroke-width="0.75" stroke-linecap="round" stroke-linejoin="round"/>
<path d="M160.641 69.1904C165.967 65.1751 167.264 59.211 167.45 53.785C167.069 49.9901 166.423 46.2267 165.517 42.522C165.399 41.7784 166.446 40.8861 168.565 45.1616L169.792 47.8306" stroke="white" stroke-width="0.75" stroke-linecap="round" stroke-linejoin="round"/>
<path d="M182.951 1.00002C179.971 1.00002 177.058 1.88368 174.58 3.53928C172.103 5.19488 170.171 7.54786 169.031 10.301C167.891 13.0541 167.592 16.0835 168.174 19.0063C168.755 21.9289 170.19 24.6137 172.297 26.7208C174.404 28.828 177.089 30.2628 180.012 30.8442C182.934 31.4257 185.964 31.1273 188.718 29.9869C191.471 28.8466 193.823 26.9153 195.478 24.4376C197.134 21.9598 198.018 19.0468 198.018 16.0669C198.022 14.0873 197.634 12.1264 196.879 10.2969C196.122 8.46714 195.012 6.80469 193.613 5.40503C192.212 4.00518 190.551 2.89551 188.722 2.13963C186.892 1.38374 184.931 0.996502 182.951 1.00002Z" stroke="white" stroke-width="0.75" stroke-linejoin="round"/>
<path d="M182.952 9.35024C183.762 9.35024 184.419 8.69319 184.419 7.88268C184.419 7.07218 183.762 6.41513 182.952 6.41513C182.141 6.41513 181.484 7.07218 181.484 7.88268C181.484 8.69319 182.141 9.35024 182.952 9.35024Z" stroke="white" stroke-width="0.75" stroke-linejoin="round"/>
<path d="M183.669 13.3252C183.669 12.92 183.341 12.5914 182.935 12.5914C182.53 12.5914 182.202 12.92 182.202 13.3252H183.669ZM182.202 25.4325C182.202 25.8378 182.53 26.1663 182.935 26.1663C183.341 26.1663 183.669 25.8378 183.669 25.4325H182.202ZM182.202 13.3252V25.4325H183.669V13.3252H182.202Z" fill="white"/>
</svg>
