<svg width="280" height="282" viewBox="0 0 280 282" fill="none" xmlns="http://www.w3.org/2000/svg">
<path d="M277.181 200.914C269.786 188.422 256.292 172.012 242.294 168.267L238.374 177.619C238.117 178.195 237.683 178.673 237.133 178.981C236.582 179.289 235.947 179.411 235.322 179.327L224.598 177.815C224.165 177.753 223.752 177.596 223.388 177.352C223.024 177.109 222.721 176.788 222.497 176.412C222.274 176.036 222.139 175.615 222.1 175.179C222.061 174.744 222.121 174.305 222.274 173.895L224.598 167.007C217.143 168.9 205.979 163.338 199.315 159.448L210.963 132.156C208.729 129.566 205.948 127.504 202.819 126.119C199.692 124.735 196.295 124.061 192.877 124.148L179.241 154.135C177.537 157.894 177.247 162.143 178.426 166.098C179.603 170.053 182.171 173.452 185.653 175.667C193.839 181.009 202.869 184.928 212.363 187.258C212.19 195.194 213.917 203.056 217.402 210.188C225.98 212.511 235.017 212.54 243.61 210.272C243.085 205.207 245.343 198.713 247.166 193.95L257.861 205.288L235.609 224.524C236.346 232.007 242.302 238.376 249.217 240.539L273.974 219.68C276.638 217.434 278.423 214.319 279.009 210.884C279.596 207.449 278.949 203.918 277.181 200.914Z" fill="#B476E5"/>
<path d="M34.0666 97.8467C32.5594 98.7124 30.9384 99.3627 29.2507 99.7787C13.8232 103.671 5.50742 123.858 1.53891 138.446C0.508065 142.228 0.967104 146.262 2.82148 149.716C4.67583 153.17 7.78435 155.783 11.5066 157.013C22.4267 160.527 33.7868 162.488 45.253 162.837C48.4477 157.484 49.413 151.088 47.9409 145.03C39.2448 144.277 30.6335 142.749 22.2097 140.462C23.8061 136.011 25.8073 131.717 28.1882 127.632C30.2838 134.689 29.4821 131.97 31.725 139.65C40.9647 141.161 51.8564 141.833 62.1321 139.23C63.782 133.09 64.7676 126.792 65.072 120.442C70.0744 124.407 75.6794 127.545 81.6741 129.738C83.9818 130.639 86.4469 131.069 88.9235 131.002C91.4003 130.935 93.8383 130.371 96.0937 129.346C106.207 124.739 112.529 121.282 124.821 112.07C124.905 104.763 121.657 99.6667 114.993 96.8388C107.153 102.691 97.8576 108.682 89.3179 112.07C83.3994 107.645 77.1466 103.685 70.6159 100.227C63.4215 96.7209 53.3124 95.5788 51.8284 95.3828C47.2308 100.776 42.876 100.433 34.0666 97.8467Z" fill="#B476E5"/>
<path d="M42.2984 147.211C41.9884 147.211 41.6851 147.302 41.4274 147.475C41.1695 147.647 40.9685 147.892 40.8498 148.179C40.7312 148.465 40.7001 148.78 40.7605 149.085C40.8211 149.389 40.9704 149.669 41.1897 149.887C41.4089 150.107 41.6883 150.255 41.9925 150.317C42.2967 150.378 42.6119 150.347 42.8985 150.227C43.185 150.108 43.4299 149.908 43.6022 149.65C43.7744 149.392 43.8664 149.088 43.8664 148.779C43.8599 148.365 43.6926 147.97 43.4 147.677C43.1073 147.385 42.7122 147.217 42.2984 147.211Z" fill="#B476E5"/>
<path d="M19.5348 155.777C20.4007 155.777 21.1027 155.075 21.1027 154.209C21.1027 153.342 20.4007 152.641 19.5348 152.641C18.6687 152.641 17.9668 153.342 17.9668 154.209C17.9668 155.075 18.6687 155.777 19.5348 155.777Z" fill="#B476E5"/>
<path d="M8.44785 134.808C9.31377 134.808 10.0158 134.106 10.0158 133.24C10.0158 132.374 9.31377 131.672 8.44785 131.672C7.58194 131.672 6.87988 132.374 6.87988 133.24C6.87988 134.106 7.58194 134.808 8.44785 134.808Z" fill="#B476E5"/>
<path d="M27.3473 121.511C28.2132 121.511 28.9152 120.809 28.9152 119.943C28.9152 119.077 28.2132 118.375 27.3473 118.375C26.4813 118.375 25.7793 119.077 25.7793 119.943C25.7793 120.809 26.4813 121.511 27.3473 121.511Z" fill="#B476E5"/>
<path d="M34.5709 100.145C34.2607 100.145 33.9576 100.236 33.6998 100.409C33.442 100.581 33.241 100.826 33.1223 101.112C33.0036 101.399 32.9726 101.714 33.033 102.018C33.0936 102.323 33.2429 102.602 33.4621 102.821C33.6814 103.04 33.9608 103.19 34.265 103.25C34.5691 103.311 34.8844 103.28 35.171 103.161C35.4575 103.042 35.7022 102.841 35.8746 102.584C36.0469 102.326 36.1389 102.023 36.1389 101.712C36.1324 101.299 35.9651 100.904 35.6725 100.611C35.3798 100.318 34.9847 100.151 34.5709 100.145Z" fill="#B476E5"/>
<path d="M50.2779 115.879C49.9677 115.879 49.6646 115.971 49.4067 116.143C49.149 116.315 48.948 116.56 48.8294 116.847C48.7106 117.133 48.6796 117.449 48.7401 117.753C48.8006 118.057 48.9499 118.336 49.1692 118.556C49.3885 118.775 49.6679 118.924 49.972 118.985C50.2762 119.045 50.5914 119.014 50.878 118.895C51.1645 118.777 51.4093 118.576 51.5817 118.318C51.7539 118.06 51.8459 117.757 51.8459 117.447C51.8394 117.033 51.6722 116.638 51.3795 116.345C51.0868 116.053 50.6917 115.885 50.2779 115.879Z" fill="#B476E5"/>
<path d="M37.5387 130.105C37.2285 130.105 36.9254 130.197 36.6676 130.37C36.4097 130.542 36.2087 130.787 36.0901 131.073C35.9713 131.36 35.9404 131.675 36.0008 131.979C36.0614 132.284 36.2106 132.563 36.4299 132.782C36.6492 133.001 36.9286 133.151 37.2328 133.211C37.5369 133.272 37.8521 133.241 38.1388 133.122C38.4252 133.003 38.6702 132.802 38.8424 132.544C39.0147 132.287 39.1066 131.983 39.1066 131.673C39.1069 131.467 39.0667 131.263 38.988 131.073C38.9095 130.883 38.7939 130.71 38.6482 130.564C38.5026 130.418 38.3296 130.303 38.1392 130.224C37.9488 130.145 37.7447 130.105 37.5387 130.105Z" fill="#B476E5"/>
<path d="M73.2076 121.511C74.0735 121.511 74.7756 120.809 74.7756 119.943C74.7756 119.077 74.0735 118.375 73.2076 118.375C72.3415 118.375 71.6396 119.077 71.6396 119.943C71.6396 120.809 72.3415 121.511 73.2076 121.511Z" fill="#B476E5"/>
<path d="M88.2994 114.027C87.9893 114.027 87.6861 114.119 87.4283 114.291C87.1704 114.464 86.9694 114.709 86.8508 114.995C86.7322 115.282 86.7011 115.597 86.7615 115.901C86.8221 116.205 86.9714 116.484 87.1906 116.704C87.4099 116.923 87.6893 117.072 87.9935 117.133C88.2976 117.193 88.613 117.162 88.8995 117.044C89.1859 116.925 89.4309 116.724 89.6031 116.466C89.7754 116.208 89.8674 115.905 89.8674 115.595C89.8609 115.181 89.6936 114.786 89.4009 114.494C89.1083 114.201 88.7132 114.034 88.2994 114.027Z" fill="#B476E5"/>
<path d="M107.311 120.581C108.177 120.581 108.879 119.879 108.879 119.013C108.879 118.147 108.177 117.445 107.311 117.445C106.445 117.445 105.743 118.147 105.743 119.013C105.743 119.879 106.445 120.581 107.311 120.581Z" fill="#B476E5"/>
<path d="M115.627 103.698C116.492 103.698 117.195 102.996 117.195 102.13C117.195 101.265 116.492 100.562 115.627 100.562C114.76 100.562 114.059 101.265 114.059 102.13C114.059 102.996 114.76 103.698 115.627 103.698Z" fill="#B476E5"/>
<path d="M57.9498 133.215C57.6396 133.215 57.3365 133.307 57.0786 133.479C56.8209 133.651 56.6199 133.896 56.5012 134.183C56.3825 134.469 56.3515 134.785 56.4119 135.089C56.4725 135.393 56.6218 135.672 56.8411 135.891C57.0603 136.111 57.3397 136.26 57.6439 136.321C57.9481 136.381 58.2633 136.35 58.5497 136.231C58.8364 136.113 59.0811 135.912 59.2534 135.654C59.4258 135.396 59.5178 135.093 59.5178 134.783C59.5113 134.369 59.344 133.974 59.0514 133.681C58.7587 133.389 58.3636 133.221 57.9498 133.215Z" fill="#B476E5"/>
<path d="M61.0582 102.722C61.9241 102.722 62.6261 102.02 62.6261 101.154C62.6261 100.288 61.9241 99.5859 61.0582 99.5859C60.1921 99.5859 59.4902 100.288 59.4902 101.154C59.4902 102.02 60.1921 102.722 61.0582 102.722Z" fill="#B476E5"/>
<path fill-rule="evenodd" clip-rule="evenodd" d="M123.774 31.7991L126.462 24.7153C124.729 22.2875 123.79 19.3825 123.774 16.3996C123.774 7.8878 131.334 1 140.658 1C149.982 1 157.513 7.8878 157.513 16.3996C157.513 24.9113 149.954 31.7991 140.63 31.7991C137.151 31.8178 133.744 30.8152 130.83 28.9152L123.774 31.7991ZM134.808 17.3169C134.989 17.0453 135.086 16.7261 135.086 16.3996C135.085 15.9609 134.91 15.5406 134.6 15.2308C134.289 14.9211 133.868 14.7472 133.43 14.7476C133.103 14.7485 132.784 14.8462 132.513 15.0282C132.242 15.2102 132.031 15.4685 131.907 15.7705C131.782 16.0724 131.75 16.4044 131.814 16.7245C131.879 17.0447 132.036 17.3387 132.268 17.5692C132.499 17.7998 132.793 17.9568 133.113 18.0201C133.434 18.0835 133.766 18.0505 134.067 17.9254C134.369 17.8003 134.627 17.5885 134.808 17.3169ZM142.282 16.3996C142.282 16.7263 142.185 17.0457 142.003 17.3173C141.822 17.5891 141.564 17.8007 141.262 17.9258C140.96 18.0508 140.628 18.0835 140.307 18.0198C139.987 17.956 139.693 17.7988 139.462 17.5677C139.231 17.3366 139.073 17.0424 139.01 16.7218C138.946 16.4015 138.979 16.0693 139.104 15.7674C139.229 15.4656 139.44 15.2075 139.712 15.026C139.984 14.8446 140.303 14.7476 140.63 14.7476C141.068 14.7483 141.488 14.9227 141.797 15.2323C142.107 15.5419 142.28 15.9617 142.282 16.3996ZM149.227 17.3173C149.408 17.0457 149.506 16.7263 149.506 16.3996C149.504 15.9617 149.33 15.5419 149.021 15.2323C148.711 14.9227 148.291 14.7483 147.854 14.7476C147.527 14.7476 147.208 14.8446 146.936 15.026C146.664 15.2075 146.452 15.4656 146.327 15.7674C146.202 16.0693 146.169 16.4015 146.234 16.7218C146.298 17.0424 146.455 17.3366 146.685 17.5677C146.916 17.7988 147.211 17.956 147.531 18.0198C147.852 18.0835 148.184 18.0508 148.486 17.9258C148.788 17.8007 149.046 17.5891 149.227 17.3173Z" fill="#B476E5"/>
<path d="M234.146 97.8507C234.146 98.4377 233.972 99.0115 233.646 99.4996C233.319 99.9876 232.856 100.368 232.314 100.593C231.772 100.817 231.175 100.876 230.599 100.762C230.022 100.647 229.495 100.364 229.079 99.9493C228.664 99.5342 228.381 99.0055 228.267 98.4297C228.152 97.854 228.211 97.2573 228.435 96.715C228.661 96.1727 229.041 95.7091 229.529 95.383C230.016 95.0569 230.591 94.8828 231.178 94.8828C231.965 94.8833 232.719 95.196 233.276 95.7526C233.832 96.309 234.146 97.0637 234.146 97.8507Z" fill="#B476E5"/>
<path d="M121.675 263.238L95.7196 262.572C95.4917 262.552 95.2623 262.586 95.0501 262.671C94.8379 262.756 94.649 262.892 94.4988 263.064C94.3485 263.237 94.2412 263.442 94.1858 263.664C94.1304 263.885 94.1282 264.118 94.1796 264.341L95.3585 269.157C100.697 269.28 106.037 269.056 111.346 268.485C106.482 270.475 101.424 271.956 96.2545 272.905L98.6624 279.905C98.7147 280.126 98.8195 280.333 98.9679 280.505C99.1163 280.679 99.3042 280.813 99.5154 280.898C99.7267 280.982 99.9554 281.016 100.182 280.994C100.409 280.972 100.627 280.897 100.818 280.773C108.669 276.889 115.905 271.869 122.294 265.878C122.548 265.72 122.746 265.486 122.86 265.209C122.975 264.933 122.999 264.628 122.931 264.336C122.863 264.044 122.705 263.782 122.479 263.585C122.254 263.389 121.973 263.266 121.675 263.238Z" fill="#B476E5"/>
<path d="M173.445 51.5039H101.543C99.3071 51.5029 97.0928 51.9426 95.0269 52.7979C92.961 53.6532 91.0839 54.9071 89.5029 56.4883C87.9219 58.0694 86.6681 59.9467 85.813 62.0126C84.9579 64.0786 84.5184 66.2929 84.5195 68.5289V80.0911H92.0764V70.1794C92.0848 68.6141 92.4069 67.0664 93.0236 65.6279C93.6403 64.1892 94.5393 62.8888 95.6672 61.8035C96.795 60.7181 98.1291 59.8699 99.5903 59.309C101.052 58.748 102.611 58.4857 104.175 58.5376H171.317C172.881 58.4882 174.438 58.7522 175.899 59.3141C177.359 59.876 178.691 60.7243 179.818 61.8091C180.946 62.894 181.845 64.1934 182.462 65.631C183.078 67.0685 183.402 68.615 183.413 70.1794V144.937L190.468 129.426V68.5289C190.47 66.2929 190.029 64.0788 189.175 62.0129C188.32 59.947 187.066 58.0699 185.485 56.4888C183.903 54.9077 182.026 53.6537 179.961 52.7984C177.895 51.9429 175.68 51.5032 173.445 51.5039Z" fill="#47BDFF"/>
<path d="M183.386 221.485V231.064C183.384 234.272 182.111 237.347 179.842 239.615C177.574 241.885 174.498 243.158 171.29 243.159H104.147C100.939 243.158 97.8627 241.885 95.5947 239.615C93.3264 237.347 92.0517 234.272 92.051 231.064V155.613H84.4912V233.17C84.4911 235.405 84.9312 237.618 85.7868 239.683C86.6423 241.749 87.8964 243.625 89.4773 245.205C91.0581 246.786 92.9349 248.039 95.0003 248.893C97.0658 249.748 99.2793 250.189 101.515 250.187H173.445C175.68 250.189 177.895 249.748 179.961 248.893C182.026 248.039 183.903 246.785 185.484 245.203C187.066 243.622 188.32 241.745 189.174 239.68C190.029 237.614 190.47 235.399 190.468 233.164V221.488L183.386 221.485Z" fill="#47BDFF"/>
<path d="M233.557 157.313L230.897 160.42C231.095 159.491 231.188 158.543 231.177 157.593C231.978 157.563 232.773 157.469 233.557 157.313Z" fill="#47BDFF"/>
<path d="M47.9257 93.3046C47.0928 92.3953 46.6329 91.2057 46.6377 89.9727C47.2493 90.3692 47.8874 90.7233 48.5476 91.0322C48.1087 91.7064 47.8914 92.5008 47.9257 93.3046Z" fill="#47BDFF"/>
<path d="M30.3145 124.105L29.8326 133.205L28.1807 127.549C28.8011 126.485 29.5025 125.37 30.3145 124.105Z" fill="#47BDFF"/>
<path d="M65.0616 120.438C65.2163 117.151 65.132 113.857 64.8096 110.582L68.641 123.07C67.4975 122.286 66.2935 121.418 65.0616 120.438Z" fill="#47BDFF"/>
<path d="M54.5897 68.1901C54.5441 67.7172 54.3419 67.2732 54.0152 66.9284C53.6884 66.5835 53.2559 66.3578 52.7861 66.287C52.3163 66.2163 51.8364 66.3044 51.4225 66.5377C51.0087 66.7708 50.6846 67.1357 50.5018 67.5741H50.2218C50.0782 67.119 49.7868 66.7251 49.3936 66.4547C49.0006 66.1845 48.5283 66.0532 48.0521 66.082C47.5758 66.1108 47.1229 66.2979 46.7652 66.6137C46.4075 66.9294 46.1656 67.3557 46.0779 67.8246H45.9659C45.8281 67.291 45.4893 66.8312 45.0204 66.5417C44.5516 66.2521 43.9889 66.155 43.4499 66.2707C42.9112 66.3864 42.438 66.706 42.1293 67.1627C41.8207 67.6192 41.7006 68.1774 41.794 68.7206C41.6372 68.2377 41.3136 67.8264 40.8812 67.5603C40.4489 67.294 39.9359 67.1904 39.4341 67.2679C38.9324 67.3453 38.4745 67.5989 38.1425 67.9829C37.8105 68.3671 37.6261 68.8569 37.6221 69.3646C37.6205 69.5728 37.6488 69.7803 37.7061 69.9806C38.8089 73.3005 39.7433 76.6741 40.5061 80.0883C41.43 84.5681 41.906 89.384 40.5061 91.8774C43.278 87.8175 43.978 83.7296 43.53 83.2817C39.2181 79.0273 43.026 75.0499 45.0139 78.1018C45.9659 79.5578 46.5259 79.5578 46.8339 78.7193C48.1218 74.3499 54.2537 68.3036 56.4125 77.5138L54.5897 68.1901Z" fill="#47BDFF"/>
<path d="M237.31 92.8004C237.299 93.0647 237.187 93.3148 236.997 93.4983C236.807 93.6817 236.552 93.7842 236.288 93.7842C236.023 93.7842 235.768 93.6817 235.578 93.4983C235.388 93.3148 235.276 93.0647 235.266 92.8004C235.276 92.536 235.388 92.2859 235.578 92.1024C235.768 91.919 236.023 91.8164 236.288 91.8164C236.552 91.8164 236.807 91.919 236.997 92.1024C237.187 92.2859 237.299 92.536 237.31 92.8004Z" fill="#47BDFF"/>
<path d="M248.286 150.792C248.768 149.22 249.051 147.592 249.126 145.948C249.462 135.78 239.13 133.433 231.906 139.397C235.854 136.877 238.122 143.037 237.73 146.816C237.73 147.482 237.957 148.104 239.662 146.964C242.658 144.892 244.646 150.016 239.046 152.312C237.982 152.732 236.836 157.995 238.15 164.491C238.654 167.066 239.858 167.439 242.294 168.215C248.993 170.169 255.686 174.888 260.521 179.471C273.317 154.432 248.258 150.792 248.286 150.792Z" fill="#47BDFF"/>
<path d="M237.31 92.8082C237.299 93.0725 237.187 93.3226 236.997 93.5061C236.807 93.6895 236.552 93.792 236.288 93.792C236.023 93.792 235.768 93.6895 235.578 93.5061C235.388 93.3226 235.276 93.0725 235.266 92.8082C235.276 92.5438 235.388 92.2937 235.578 92.1103C235.768 91.9268 236.023 91.8242 236.288 91.8242C236.552 91.8242 236.807 91.9268 236.997 92.1103C237.187 92.2937 237.299 92.5438 237.31 92.8082Z" stroke="white" stroke-width="0.75"/>
<path d="M217.402 210.176L212.782 221.487" stroke="white" stroke-width="0.75" stroke-linecap="round" stroke-linejoin="round"/>
<path d="M92.0762 80.0938V70.1556C92.0835 68.5897 92.4049 67.0412 93.0212 65.6017C93.6375 64.1623 94.5363 62.8609 95.6644 61.7748C96.7923 60.6887 98.1267 59.8399 99.5884 59.2785C101.05 58.7172 102.61 58.4546 104.175 58.5064H171.317C172.88 58.4571 174.439 58.7213 175.9 59.2836C177.36 59.8458 178.694 60.6949 179.821 61.7806C180.949 62.8662 181.846 64.1665 182.463 65.6048C183.081 67.0432 183.404 68.5906 183.412 70.1556V144.94" stroke="white" stroke-width="0.75" stroke-linecap="round" stroke-linejoin="round"/>
<path d="M190.46 129.403V68.5064C190.459 66.2705 190.018 64.0567 189.162 61.9915C188.304 59.9264 187.049 58.0504 185.468 56.4707C183.885 54.8909 182.006 53.6385 179.94 52.785C177.874 51.9313 175.659 51.4935 173.424 51.4961H101.516C99.279 51.4967 97.0644 51.9379 94.9984 52.7945C92.9322 53.6512 91.0552 54.9064 89.4743 56.4887C87.8935 58.0709 86.6397 59.9491 85.785 62.0158C84.9302 64.0828 84.4909 66.2977 84.4922 68.5344V80.0965" stroke="white" stroke-width="0.75" stroke-linecap="round" stroke-linejoin="round"/>
<path d="M227.006 145.98H205.055" stroke="white" stroke-width="0.75" stroke-linecap="round" stroke-linejoin="round"/>
<path d="M249.098 145.965H263.181C264.03 145.963 264.87 146.13 265.654 146.454C266.439 146.777 267.151 147.253 267.752 147.853C268.354 148.451 268.83 149.163 269.155 149.947C269.481 150.731 269.649 151.571 269.649 152.419V189.518" stroke="white" stroke-width="0.75" stroke-linecap="round" stroke-linejoin="round"/>
<path d="M182.944 145.974H178.597L159.955 140.234L165.891 158.434V215.022C165.892 216.737 166.573 218.382 167.786 219.594C168.999 220.807 170.643 221.488 172.359 221.49H239.045" stroke="white" stroke-width="0.75" stroke-linecap="round" stroke-linejoin="round"/>
<path d="M109.747 100.62V86.5655C109.746 84.8503 109.065 83.2057 107.852 81.9929C106.639 80.7801 104.994 80.0984 103.279 80.0977H56.8301" stroke="white" stroke-width="0.75" stroke-linecap="round" stroke-linejoin="round"/>
<path d="M183.413 221.489V231.068C183.412 234.276 182.138 237.351 179.869 239.619C177.601 241.889 174.526 243.162 171.317 243.163H104.147C100.94 243.162 97.8635 241.889 95.5953 239.619C93.3272 237.351 92.0525 234.276 92.0518 231.068V155.617" stroke="white" stroke-width="0.75" stroke-linecap="round" stroke-linejoin="round"/>
<path d="M84.4922 155.613V233.17C84.4909 235.405 84.9302 237.62 85.7852 239.686C86.6402 241.752 87.8939 243.629 89.475 245.211C91.0561 246.792 92.9332 248.046 94.9993 248.902C97.0653 249.757 99.2796 250.198 101.516 250.196H173.446C175.681 250.198 177.896 249.757 179.962 248.902C182.027 248.047 183.904 246.793 185.485 245.212C187.066 243.631 188.321 241.754 189.175 239.689C190.03 237.623 190.471 235.408 190.469 233.173V221.497" stroke="white" stroke-width="0.75" stroke-linecap="round" stroke-linejoin="round"/>
<path d="M40.4506 80.0977H12.4234C10.7089 80.0996 9.06553 80.7819 7.85361 81.9945C6.64182 83.2072 5.96074 84.8512 5.95996 86.5655V125.322" stroke="white" stroke-width="0.75" stroke-linecap="round" stroke-linejoin="round"/>
<path d="M76.4297 155.61H97.0356L115.655 161.322L109.747 143.15V122.375" stroke="white" stroke-width="0.75" stroke-linecap="round" stroke-linejoin="round"/>
<path d="M141.19 250.196C135.473 256.496 128.538 261.571 120.803 265.112C113.069 268.655 104.696 270.591 96.1911 270.805C87.6865 271.019 79.2271 269.505 71.3244 266.355C63.4218 263.205 56.2403 258.485 50.2145 252.48C44.1884 246.475 39.4433 239.309 36.2662 231.417C33.0888 223.526 31.5456 215.072 31.7295 206.566C31.9136 198.062 33.8209 189.682 37.3365 181.936C40.852 174.189 45.9026 167.234 52.1825 161.496" stroke="white" stroke-width="0.75" stroke-linecap="round" stroke-linejoin="round"/>
<path d="M121.675 263.238L95.7196 262.572C95.4917 262.552 95.2623 262.586 95.0501 262.671C94.8379 262.756 94.649 262.892 94.4988 263.064C94.3485 263.237 94.2412 263.442 94.1858 263.664C94.1304 263.885 94.1282 264.118 94.1796 264.341L95.3585 269.157C100.697 269.28 106.037 269.056 111.346 268.485C106.482 270.475 101.424 271.956 96.2545 272.905L98.6624 279.905C98.7147 280.126 98.8195 280.333 98.9679 280.505C99.1163 280.679 99.3042 280.813 99.5154 280.898C99.7267 280.982 99.9554 281.016 100.182 280.994C100.409 280.972 100.627 280.897 100.818 280.773C108.669 276.889 115.905 271.869 122.294 265.878C122.548 265.72 122.746 265.486 122.86 265.209C122.975 264.933 122.999 264.628 122.931 264.336C122.863 264.044 122.705 263.782 122.479 263.585C122.254 263.389 121.973 263.266 121.675 263.238Z" stroke="white" stroke-width="0.75" stroke-linecap="round" stroke-linejoin="round"/>
<path d="M231.178 157.568C231.977 157.554 232.774 157.468 233.558 157.316L230.898 160.396" stroke="white" stroke-width="0.75" stroke-linecap="round" stroke-linejoin="round"/>
<path d="M212.363 187.194C202.843 184.972 193.798 181.065 185.653 175.658C182.171 173.443 179.605 170.045 178.426 166.09C177.249 162.135 177.538 157.886 179.241 154.127L192.875 124.113C199.97 124.592 205.711 125.979 210.963 132.12L199.321 159.447C204.557 162.499 211.025 165.722 217.017 166.895C225.234 168.502 231.184 165.934 231.184 157.571C227.46 157.683 221.3 156.311 227.74 144.579C234.18 132.848 238.464 141.927 237.932 146.875C237.96 147.743 238.408 147.967 239.864 146.959C242.86 144.886 244.863 150.054 239.248 152.307C238.187 152.734 237.038 157.992 238.352 164.487C239.356 169.415 242.807 166.304 252.968 173.328C264.254 181.139 272.409 192.445 277.383 200.85C279.162 203.852 279.817 207.389 279.232 210.83C278.647 214.269 276.861 217.392 274.191 219.638L249.244 240.525C245.683 239.429 242.508 237.341 240.094 234.504C237.679 231.667 236.122 228.2 235.608 224.51L257.86 205.274L244.756 191.36" stroke="white" stroke-width="0.75" stroke-linecap="round" stroke-linejoin="round"/>
<path d="M47.9267 93.3163C47.0938 92.407 46.6338 91.2174 46.6387 89.9844C47.2503 90.3809 47.8884 90.7351 48.5485 91.0439" stroke="white" stroke-width="0.75" stroke-linecap="round" stroke-linejoin="round"/>
<path d="M46.806 78.7278C48.094 74.36 54.2538 68.3121 56.3847 77.5239L56.8607 80.4918C58.3446 94.0493 51.9048 92.6154 48.5449 91.0475C48.5449 91.0475 46.1959 94.5209 50.4975 95.2415C51.1871 95.3564 51.6558 95.3667 51.8238 95.3888C48.4639 100.317 42.2451 100.625 34.0723 97.8528C41.6718 93.5468 44.4069 84.2466 43.48 83.3212C39.2064 79.0594 42.9731 75.0909 44.964 78.1413C45.9145 79.5988 46.4199 79.5693 46.7839 78.7853L46.806 78.7278Z" stroke="white" stroke-width="0.75" stroke-linecap="round" stroke-linejoin="round"/>
<path d="M28.1738 127.635C28.8178 126.543 29.5311 125.373 30.315 124.113L29.8331 133.241" stroke="white" stroke-width="0.75" stroke-linecap="round" stroke-linejoin="round"/>
<path d="M65.0616 120.442C65.2163 117.155 65.132 113.861 64.8096 110.586L68.641 123.074" stroke="white" stroke-width="0.75" stroke-linecap="round" stroke-linejoin="round"/>
<path d="M34.0666 97.8467C32.5594 98.7124 30.9384 99.3627 29.2507 99.7787C13.8232 103.671 5.50742 123.858 1.53891 138.446C0.508065 142.228 0.967104 146.262 2.82148 149.716C4.67583 153.17 7.78435 155.783 11.5066 157.013C22.4267 160.527 33.7868 162.488 45.253 162.837C48.4477 157.484 49.413 151.088 47.9409 145.03C39.2448 144.277 30.6335 142.749 22.2097 140.462C23.8061 136.011 25.8073 131.717 28.1882 127.632C30.2838 134.689 29.4821 131.97 31.725 139.65C40.9647 141.161 51.8564 141.833 62.1321 139.23C63.782 133.09 64.7676 126.792 65.072 120.442C70.0744 124.407 75.6794 127.545 81.6741 129.738C83.9818 130.639 86.4469 131.069 88.9235 131.002C91.4003 130.935 93.8383 130.371 96.0937 129.346C106.207 124.739 112.529 121.282 124.821 112.07C124.905 104.763 121.657 99.6667 114.993 96.8388C107.153 102.691 97.8576 108.682 89.3179 112.07C83.3994 107.645 77.1466 103.685 70.6159 100.227C63.4215 96.7209 53.3124 95.5788 51.8284 95.3828" stroke="white" stroke-width="0.75" stroke-linecap="round" stroke-linejoin="round"/>
<path d="M201.725 111.045C201.843 110.71 202.04 110.407 202.298 110.162C202.556 109.917 202.868 109.736 203.209 109.635C204.691 109.243 206.875 112.351 206.175 116.355C205.814 118.528 204.286 119.51 203.416 116.232" stroke="white" stroke-width="0.75" stroke-linecap="round" stroke-linejoin="round"/>
<path d="M204.747 110.307C204.995 110.062 205.304 109.888 205.643 109.803C207.13 109.422 209.395 111.679 208.863 115.739C208.586 117.848 207.319 118.362 206.261 115.755" stroke="white" stroke-width="0.75" stroke-linecap="round" stroke-linejoin="round"/>
<path d="M194.389 124.194C197.721 118.202 197.466 116.522 198.337 113.666C198.755 112.294 199.342 111.085 200.547 110.782C202.021 110.411 203.897 112.909 203.347 116.824C203.12 118.445 200.94 118.112 200.547 113.996" stroke="white" stroke-width="0.75" stroke-linecap="round" stroke-linejoin="round"/>
<path d="M209.955 131.027C211.019 128.703 218.442 115.147 217.599 114.759C216.678 114.335 211.663 118.791 211.663 118.791C211.663 118.791 205.783 119.603 206.175 123.359" stroke="white" stroke-width="0.75" stroke-linecap="round" stroke-linejoin="round"/>
<path d="M211.634 118.794C214.098 109.022 212.224 100.816 211.718 102.274C210.763 105.045 209.59 112.443 208.862 115.714" stroke="white" stroke-width="0.75" stroke-linecap="round" stroke-linejoin="round"/>
<path d="M199.204 115.713C199.763 115.562 200.356 115.598 200.893 115.814" stroke="white" stroke-width="0.75" stroke-linecap="round" stroke-linejoin="round"/>
<path d="M118.398 98.6017C123.774 97.2297 150.989 100.842 149.814 103.502C143.066 104.533 132.937 103.513 127.106 106.861C126.714 107.087 125.338 108.04 124.586 108.569" stroke="white" stroke-width="0.75" stroke-linecap="round" stroke-linejoin="round"/>
<path d="M119.154 98.4616C129.626 95.9976 141.218 82.278 131.474 96.1656C130.55 97.7056 130.102 98.5736 131.418 98.8816" stroke="white" stroke-width="0.75" stroke-linecap="round" stroke-linejoin="round"/>
<path d="M127.498 106.641C132.818 104.541 160.733 111.569 141.358 104.121" stroke="white" stroke-width="0.75" stroke-linecap="round" stroke-linejoin="round"/>
<path d="M127.526 106.61C129.737 105.431 150.906 113.978 139.706 106.918" stroke="white" stroke-width="0.75" stroke-linecap="round" stroke-linejoin="round"/>
<path d="M62.5479 155.613C66.8597 157.971 68.3746 162.198 66.9157 163.341C66.1758 163.727 65.3317 163.864 64.5078 163.733" stroke="white" stroke-width="0.75" stroke-linecap="round" stroke-linejoin="round"/>
<path d="M64.1689 153.117C68.4808 155.475 69.9884 159.691 68.5368 160.845C68.1886 161.069 67.7978 161.221 67.3888 161.287" stroke="white" stroke-width="0.75" stroke-linecap="round" stroke-linejoin="round"/>
<path d="M45.8262 161.829C50.7365 160.946 55.798 161.52 60.3858 163.481" stroke="white" stroke-width="0.75" stroke-linecap="round" stroke-linejoin="round"/>
<path d="M60.1056 158.047C64.1934 160.455 65.2795 163.837 63.9134 165.075C62.3116 166.523 56.9416 165.775 55.4297 161.939" stroke="white" stroke-width="0.75" stroke-linecap="round" stroke-linejoin="round"/>
<path d="M48.0664 145.923C51.7063 145.811 65.7648 146.455 65.8179 147.519C65.8783 148.751 62.542 149.451 62.542 149.451" stroke="white" stroke-width="0.75" stroke-linecap="round" stroke-linejoin="round"/>
<path d="M48.0938 145.953C52.6662 146.283 57.1608 147.313 61.4214 149.005C61.4214 149.005 72.9629 153.426 78.1914 154.577C79.9303 154.959 74.9494 157.013 66.3492 154.689" stroke="white" stroke-width="0.75" stroke-linecap="round" stroke-linejoin="round"/>
<path d="M31.715 139.648C30.6389 140.292 29.6899 141.127 28.915 142.112" stroke="white" stroke-width="0.75" stroke-linecap="round" stroke-linejoin="round"/>
<path d="M62.1221 139.23L63.158 146.734" stroke="white" stroke-width="0.75" stroke-linecap="round" stroke-linejoin="round"/>
<path d="M246.998 193.774C245.122 198.59 242.882 205.617 243.608 210.265C235.016 212.533 225.979 212.504 217.401 210.181C209.981 193.746 211.549 181.932 216.309 173.93" stroke="white" stroke-width="0.75" stroke-linecap="round" stroke-linejoin="round"/>
<path d="M231.753 139.523C240.022 132.571 252.478 136.56 248.258 150.803C248.258 150.803 273.31 154.442 260.521 179.474" stroke="white" stroke-width="0.75" stroke-linecap="round" stroke-linejoin="round"/>
<path d="M243.609 210.258C245.325 211.098 246.863 212.258 248.145 213.674" stroke="white" stroke-width="0.75" stroke-linecap="round" stroke-linejoin="round"/>
<path d="M242.461 168.266L238.373 177.59C238.118 178.166 237.682 178.645 237.132 178.953C236.581 179.261 235.946 179.382 235.321 179.298L224.598 177.814C224.164 177.752 223.752 177.594 223.388 177.351C223.024 177.108 222.72 176.786 222.496 176.411C222.274 176.035 222.138 175.613 222.1 175.177C222.06 174.742 222.12 174.303 222.274 173.894L224.934 166.922" stroke="white" stroke-width="0.75" stroke-linecap="round" stroke-linejoin="round"/>
<path d="M56.4102 77.5189L54.5342 68.1672C54.4652 67.6908 54.2435 67.2494 53.9022 66.9099C53.5609 66.5703 53.1185 66.3508 52.6418 66.2843C52.1649 66.2178 51.6793 66.308 51.2582 66.5413C50.837 66.7746 50.5029 67.1383 50.3063 67.5777C50.14 67.1184 49.8298 66.7251 49.4219 66.4563C49.0139 66.1875 48.5302 66.0575 48.0424 66.0858C47.5547 66.1141 47.0892 66.2992 46.7152 66.6134C46.3411 66.9277 46.0785 67.3542 45.9665 67.8297C45.82 67.2979 45.4759 66.8421 45.0046 66.5553C44.5333 66.2685 43.9703 66.1726 43.4306 66.287C42.891 66.4013 42.4153 66.7174 42.1008 67.1707C41.7863 67.6239 41.6568 68.1801 41.7386 68.7257C41.5592 68.1987 41.1815 67.7622 40.6857 67.5092C40.1898 67.2562 39.6148 67.2064 39.0826 67.3702C38.5506 67.5343 38.1035 67.8991 37.8361 68.3875C37.5688 68.8759 37.5023 69.4491 37.6507 69.9857C38.7534 73.3056 39.6879 76.6792 40.4506 80.0934C41.3613 84.5143 41.8373 89.2565 40.5081 91.7764" stroke="white" stroke-width="0.75" stroke-linecap="round" stroke-linejoin="round"/>
<path d="M135.086 16.3983C135.086 16.7248 134.989 17.044 134.808 17.3156C134.627 17.5872 134.369 17.799 134.067 17.9241C133.766 18.0492 133.434 18.0822 133.114 18.0188C132.793 17.9555 132.499 17.7985 132.268 17.5679C132.036 17.3374 131.879 17.0434 131.815 16.7232C131.75 16.4031 131.782 16.0711 131.907 15.7692C132.031 15.4672 132.242 15.2089 132.513 15.0269C132.784 14.8449 133.103 14.7472 133.43 14.7463C133.868 14.7459 134.289 14.9198 134.6 15.2295C134.91 15.5393 135.085 15.9596 135.086 16.3983Z" stroke="white" stroke-width="0.75" stroke-linecap="round" stroke-linejoin="round"/>
<path d="M142.282 16.3983C142.282 16.725 142.185 17.0445 142.004 17.316C141.823 17.5878 141.565 17.7994 141.263 17.9245C140.961 18.0495 140.629 18.0822 140.308 18.0185C139.988 17.9547 139.693 17.7975 139.462 17.5664C139.231 17.3353 139.074 17.0411 139.01 16.7205C138.947 16.4002 138.979 16.068 139.104 15.7661C139.229 15.4643 139.441 15.2062 139.713 15.0247C139.984 14.8433 140.303 14.7463 140.63 14.7463C141.068 14.747 141.488 14.9214 141.798 15.231C142.107 15.5406 142.281 15.9604 142.282 16.3983Z" stroke="white" stroke-width="0.75" stroke-linecap="round" stroke-linejoin="round"/>
<path d="M149.506 16.3983C149.506 16.725 149.409 17.0445 149.228 17.316C149.046 17.5878 148.789 17.7994 148.486 17.9245C148.184 18.0495 147.853 18.0822 147.532 18.0185C147.212 17.9547 146.917 17.7975 146.686 17.5664C146.456 17.3353 146.298 17.0411 146.235 16.7205C146.17 16.4002 146.202 16.068 146.328 15.7661C146.453 15.4643 146.665 15.2062 146.936 15.0247C147.209 14.8433 147.527 14.7463 147.854 14.7463C148.292 14.747 148.712 14.9214 149.021 15.231C149.331 15.5406 149.505 15.9604 149.506 16.3983Z" stroke="white" stroke-width="0.75" stroke-linecap="round" stroke-linejoin="round"/>
<path d="M236.638 89.3906H225.691C224.052 89.3906 222.723 90.7194 222.723 92.3585V103.306C222.723 104.945 224.052 106.274 225.691 106.274H236.638C238.277 106.274 239.606 104.945 239.606 103.306V92.3585C239.606 90.7194 238.277 89.3906 236.638 89.3906Z" stroke="white" stroke-width="0.75" stroke-linecap="round" stroke-linejoin="round"/>
<path d="M234.146 97.8507C234.146 98.4377 233.972 99.0115 233.646 99.4996C233.319 99.9876 232.856 100.368 232.314 100.593C231.772 100.817 231.175 100.876 230.599 100.762C230.022 100.647 229.495 100.364 229.079 99.9493C228.664 99.5342 228.381 99.0055 228.267 98.4297C228.152 97.854 228.211 97.2573 228.435 96.715C228.661 96.1727 229.041 95.7091 229.529 95.383C230.016 95.0569 230.591 94.8828 231.178 94.8828C231.965 94.8833 232.719 95.196 233.276 95.7526C233.832 96.309 234.146 97.0637 234.146 97.8507Z" stroke="white" stroke-width="0.75" stroke-linecap="round" stroke-linejoin="round"/>
<path d="M207.183 235.858C207.183 236.34 207.04 236.811 206.772 237.211C206.505 237.611 206.125 237.924 205.68 238.108C205.235 238.292 204.744 238.341 204.273 238.247C203.8 238.152 203.365 237.921 203.025 237.581C202.684 237.24 202.453 236.805 202.358 236.332C202.264 235.861 202.313 235.37 202.497 234.925C202.681 234.48 202.994 234.1 203.394 233.833C203.794 233.565 204.265 233.422 204.747 233.422C205.393 233.422 206.013 233.678 206.47 234.135C206.925 234.592 207.183 235.212 207.183 235.858Z" stroke="white" stroke-width="0.75" stroke-linecap="round" stroke-linejoin="round"/>
<path d="M68.6025 52.7461V64.8417" stroke="white" stroke-width="0.75" stroke-linecap="round" stroke-linejoin="round"/>
<path d="M74.6376 58.7891H62.542" stroke="white" stroke-width="0.75" stroke-linecap="round" stroke-linejoin="round"/>
<path d="M237.282 235.992C234.605 239.159 232.321 242.638 230.478 246.352C229.368 248.181 228.457 250.124 227.762 252.148C225.792 257.857 227.448 257.715 230.45 253.24C238.079 241.863 241.677 240.752 244.449 238.288" stroke="white" stroke-width="0.75" stroke-linecap="round" stroke-linejoin="round"/>
<path d="M228.378 250.47C226.586 251.71 224.638 252.707 222.585 253.435C221.996 253.594 221.075 253.129 223.929 250.663C224.545 250.131 227.092 247.833 227.961 246.967C229.78 245.302 231.501 243.535 233.119 241.676" stroke="white" stroke-width="0.75" stroke-linecap="round" stroke-linejoin="round"/>
<path d="M235.238 238.597C236.442 236.077 230.618 237.751 228.07 238.155C225.774 238.515 223.06 238.076 228.826 235.243C231.837 233.798 234.582 231.855 236.946 229.496" stroke="white" stroke-width="0.75" stroke-linecap="round" stroke-linejoin="round"/>
<path d="M126.462 24.7153L123.774 31.7991L130.83 28.9152C133.744 30.8152 137.151 31.8178 140.63 31.7991C149.954 31.7991 157.513 24.9113 157.513 16.3996C157.513 7.8878 149.982 1 140.658 1C131.334 1 123.774 7.8878 123.774 16.3996C123.79 19.3825 124.729 22.2875 126.462 24.7153Z" stroke="white" stroke-width="0.75" stroke-linecap="round" stroke-linejoin="round"/>
<path d="M257.861 205.277L259.989 203.625" stroke="white" stroke-width="0.75" stroke-linecap="round" stroke-linejoin="round"/>
<path d="M89.3076 112.07L91.5475 113.666" stroke="white" stroke-width="0.75" stroke-linecap="round" stroke-linejoin="round"/>
<path d="M22.1675 140.434L21.1035 142.982" stroke="white" stroke-width="0.75" stroke-linecap="round" stroke-linejoin="round"/>
<path d="M42.2984 147.211C41.9884 147.211 41.6851 147.302 41.4274 147.475C41.1695 147.647 40.9685 147.892 40.8498 148.179C40.7312 148.465 40.7001 148.78 40.7605 149.085C40.8211 149.389 40.9704 149.669 41.1897 149.887C41.4089 150.107 41.6883 150.255 41.9925 150.317C42.2967 150.378 42.6119 150.347 42.8985 150.227C43.185 150.108 43.4299 149.908 43.6022 149.65C43.7744 149.392 43.8664 149.088 43.8664 148.779C43.8599 148.365 43.6926 147.97 43.4 147.677C43.1073 147.385 42.7122 147.217 42.2984 147.211Z" stroke="white" stroke-width="0.75"/>
<path d="M19.5348 155.777C20.4007 155.777 21.1027 155.075 21.1027 154.209C21.1027 153.342 20.4007 152.641 19.5348 152.641C18.6687 152.641 17.9668 153.342 17.9668 154.209C17.9668 155.075 18.6687 155.777 19.5348 155.777Z" stroke="white" stroke-width="0.75"/>
<path d="M8.44785 134.808C9.31377 134.808 10.0158 134.106 10.0158 133.24C10.0158 132.374 9.31377 131.672 8.44785 131.672C7.58194 131.672 6.87988 132.374 6.87988 133.24C6.87988 134.106 7.58194 134.808 8.44785 134.808Z" stroke="white" stroke-width="0.75"/>
<path d="M27.3473 121.511C28.2132 121.511 28.9152 120.809 28.9152 119.943C28.9152 119.077 28.2132 118.375 27.3473 118.375C26.4813 118.375 25.7793 119.077 25.7793 119.943C25.7793 120.809 26.4813 121.511 27.3473 121.511Z" stroke="white" stroke-width="0.75"/>
<path d="M34.5709 100.145C34.2607 100.145 33.9576 100.236 33.6998 100.409C33.442 100.581 33.241 100.826 33.1223 101.112C33.0036 101.399 32.9726 101.714 33.033 102.018C33.0936 102.323 33.2429 102.602 33.4621 102.821C33.6814 103.04 33.9608 103.19 34.265 103.25C34.5691 103.311 34.8844 103.28 35.171 103.161C35.4575 103.042 35.7022 102.841 35.8746 102.584C36.0469 102.326 36.1389 102.023 36.1389 101.712C36.1324 101.299 35.9651 100.904 35.6725 100.611C35.3798 100.318 34.9847 100.151 34.5709 100.145Z" stroke="white" stroke-width="0.75"/>
<path d="M50.2779 115.879C49.9677 115.879 49.6646 115.971 49.4067 116.143C49.149 116.315 48.948 116.56 48.8294 116.847C48.7106 117.133 48.6796 117.449 48.7401 117.753C48.8006 118.057 48.9499 118.336 49.1692 118.556C49.3885 118.775 49.6679 118.924 49.972 118.985C50.2762 119.045 50.5914 119.014 50.878 118.895C51.1645 118.777 51.4093 118.576 51.5817 118.318C51.7539 118.06 51.8459 117.757 51.8459 117.447C51.8394 117.033 51.6722 116.638 51.3795 116.345C51.0868 116.053 50.6917 115.885 50.2779 115.879Z" stroke="white" stroke-width="0.75"/>
<path d="M37.5387 130.105C37.2285 130.105 36.9254 130.197 36.6676 130.37C36.4097 130.542 36.2087 130.787 36.0901 131.073C35.9713 131.36 35.9404 131.675 36.0008 131.979C36.0614 132.284 36.2106 132.563 36.4299 132.782C36.6492 133.001 36.9286 133.151 37.2328 133.211C37.5369 133.272 37.8521 133.241 38.1388 133.122C38.4252 133.003 38.6702 132.802 38.8424 132.544C39.0147 132.287 39.1066 131.983 39.1066 131.673C39.1069 131.467 39.0667 131.263 38.988 131.073C38.9095 130.883 38.7939 130.71 38.6482 130.564C38.5026 130.418 38.3296 130.303 38.1392 130.224C37.9488 130.145 37.7447 130.105 37.5387 130.105Z" stroke="white" stroke-width="0.75"/>
<path d="M73.2076 121.511C74.0735 121.511 74.7756 120.809 74.7756 119.943C74.7756 119.077 74.0735 118.375 73.2076 118.375C72.3415 118.375 71.6396 119.077 71.6396 119.943C71.6396 120.809 72.3415 121.511 73.2076 121.511Z" stroke="white" stroke-width="0.75"/>
<path d="M88.2994 114.027C87.9893 114.027 87.6861 114.119 87.4283 114.291C87.1704 114.464 86.9694 114.709 86.8508 114.995C86.7322 115.282 86.7011 115.597 86.7615 115.901C86.8221 116.205 86.9714 116.484 87.1906 116.704C87.4099 116.923 87.6893 117.072 87.9935 117.133C88.2976 117.193 88.613 117.162 88.8995 117.044C89.1859 116.925 89.4309 116.724 89.6031 116.466C89.7754 116.208 89.8674 115.905 89.8674 115.595C89.8609 115.181 89.6936 114.786 89.4009 114.494C89.1083 114.201 88.7132 114.034 88.2994 114.027Z" stroke="white" stroke-width="0.75"/>
<path d="M107.311 120.581C108.177 120.581 108.879 119.879 108.879 119.013C108.879 118.147 108.177 117.445 107.311 117.445C106.445 117.445 105.743 118.147 105.743 119.013C105.743 119.879 106.445 120.581 107.311 120.581Z" stroke="white" stroke-width="0.75"/>
<path d="M115.627 103.698C116.492 103.698 117.195 102.996 117.195 102.13C117.195 101.265 116.492 100.562 115.627 100.562C114.76 100.562 114.059 101.265 114.059 102.13C114.059 102.996 114.76 103.698 115.627 103.698Z" stroke="white" stroke-width="0.75"/>
<path d="M57.9498 133.215C57.6396 133.215 57.3365 133.307 57.0786 133.479C56.8209 133.651 56.6199 133.896 56.5012 134.183C56.3825 134.469 56.3515 134.785 56.4119 135.089C56.4725 135.393 56.6218 135.672 56.8411 135.891C57.0603 136.111 57.3397 136.26 57.6439 136.321C57.9481 136.381 58.2633 136.35 58.5497 136.231C58.8364 136.113 59.0811 135.912 59.2534 135.654C59.4258 135.396 59.5178 135.093 59.5178 134.783C59.5113 134.369 59.344 133.974 59.0514 133.681C58.7587 133.389 58.3636 133.221 57.9498 133.215Z" stroke="white" stroke-width="0.75"/>
<path d="M61.0582 102.722C61.9241 102.722 62.6261 102.02 62.6261 101.154C62.6261 100.288 61.9241 99.5859 61.0582 99.5859C60.1921 99.5859 59.4902 100.288 59.4902 101.154C59.4902 102.02 60.1921 102.722 61.0582 102.722Z" stroke="white" stroke-width="0.75"/>
</svg>
