<svg width="296" height="282" viewBox="0 0 296 282" fill="none" xmlns="http://www.w3.org/2000/svg">
<path d="M235.045 123.521L187.849 119.71C183.278 119.335 178.69 120.152 174.472 122.092L161.918 127.873C160.23 131.185 158.155 134.249 155.744 136.99C149.688 143.978 126.461 156.97 114.201 159.702C111.313 160.257 108.335 159.695 105.793 158.114C100.238 162.929 94.418 167.374 88.3643 171.427C88.3643 171.427 99.8305 206.718 142.523 186.769L176.481 170.855L169.042 190.137C169.248 201.159 169.307 215.612 168.631 225.246C176.603 227.869 185.106 227.957 193.123 225.498C196.326 201.992 198.766 164.89 190.475 150.881L231.05 150.468C236.162 140.519 235.712 134.862 235.045 123.521Z" fill="#B476E5"/>
<path d="M159.662 109.862L164.602 86.3878C164.711 85.8739 164.626 85.3342 164.368 84.8875C164.108 84.4406 163.695 84.1235 163.22 84.0054C162.745 83.8876 162.245 83.9785 161.832 84.2585C161.417 84.5386 161.125 84.9845 161.015 85.4984L155.193 113.166" fill="#B476E5"/>
<path d="M159.662 109.862L164.602 86.3878C164.711 85.8739 164.626 85.3342 164.368 84.8875C164.108 84.4406 163.695 84.1235 163.22 84.0054C162.745 83.8876 162.245 83.9785 161.832 84.2585C161.417 84.5386 161.125 84.9845 161.015 85.4984L155.193 113.166C155.925 116.084 157.892 119.996 159.662 109.862Z" fill="#B476E5"/>
<path d="M155.839 20.9169C155.839 24.8561 154.757 28.7067 152.732 31.9821C150.706 35.2574 147.828 37.8101 144.459 39.3177C141.091 40.8252 137.384 41.2196 133.808 40.451C130.233 39.6826 126.948 37.7857 124.37 35.0003C121.792 32.2148 120.036 28.6659 119.325 24.8024C118.614 20.9389 118.979 16.9343 120.374 13.295C121.769 9.65572 124.132 6.54505 127.163 4.35659C130.195 2.16813 133.759 1 137.405 1C142.293 1.00318 146.98 3.10253 150.437 6.83696C153.892 10.5714 155.836 15.6356 155.839 20.9169Z" fill="#B476E5"/>
<path d="M252.101 126.03C248.718 134.695 243.94 142.643 237.988 149.505C241.252 150.045 244.515 150.842 247.308 151.315C250.217 149.944 252.945 148.162 255.42 146.014C263.157 139.28 279.095 130.925 282.586 126.16C276.265 125.172 260.8 125.839 252.101 126.03Z" fill="#47BDFF"/>
<path d="M192.296 244.832C184.149 241.509 176.612 236.647 170.04 230.473C169.658 234 169.07 237.558 168.717 240.607C170.096 243.7 171.846 246.584 173.921 249.184C180.42 257.252 188.74 274.152 193.263 277.773C193.972 270.912 192.797 254.235 192.296 244.832Z" fill="#47BDFF"/>
<path d="M91.3623 144.136C90.7743 144.454 90.1569 144.739 89.5395 145.025C86.6559 141.364 83.9465 137.548 81.4219 133.59C81.6865 134.259 89.801 153.221 103.266 160.368C104.148 159.606 105.001 158.875 105.795 158.144C100.764 155.19 95.5372 149.472 91.3623 144.136Z" fill="#47BDFF"/>
<path d="M168.687 174.471C168.687 174.471 168.951 181.173 169.098 190.099L176.478 170.85L168.687 174.471Z" fill="#47BDFF"/>
<path d="M89.5108 60.7838C89.5108 60.7838 84.3626 50.3631 72.2526 56.7179C60.1427 63.0726 62.4917 88.6103 62.4917 88.6103C62.4917 88.6103 51.7295 94.1692 45.9964 103.54C37.1175 118.057 41.5879 139.975 69.1981 139.975C67.8819 133.718 67.4262 127.285 67.8457 120.884C68.5807 109.607 72.3733 99.2834 75.725 88.7056C79.9989 75.0314 79.0813 76.1248 80.5761 71.1076C77.0171 67.4546 81.2523 63.0709 83.1633 66.627C83.9726 68.0648 84.166 68.1216 84.8129 68.3406C88.3162 69.526 94.6729 70.8484 98.1205 69.6146C98.1251 69.5176 98.4191 60.7838 89.5108 60.7838Z" fill="#47BDFF"/>
<path d="M82.9836 93.1205L79.8379 84.6074C80.8872 86.1266 82.1237 87.4838 83.513 88.6416C83.2544 90.1219 83.0777 91.6175 82.9836 93.1205Z" fill="#47BDFF"/>
<path d="M124.586 237.368C124.789 238.443 124.693 239.558 124.31 240.573C123.927 241.588 123.274 242.457 122.433 243.072C121.592 243.686 120.602 244.017 119.587 244.024C118.572 244.029 117.579 243.709 116.732 243.106C115.885 242.502 115.223 241.639 114.829 240.63C114.436 239.618 114.328 238.505 114.521 237.428C114.713 236.351 115.197 235.36 115.91 234.581C116.624 233.802 117.535 233.268 118.529 233.048C119.19 232.897 119.871 232.891 120.534 233.028C121.197 233.165 121.828 233.441 122.392 233.844C122.955 234.245 123.439 234.763 123.815 235.368C124.192 235.974 124.454 236.652 124.586 237.368Z" fill="#47BDFF"/>
<path d="M155.837 20.9169C155.837 24.8561 154.755 28.7067 152.73 31.9821C150.704 35.2574 147.826 37.8101 144.457 39.3177C141.089 40.8252 137.382 41.2196 133.807 40.451C130.231 39.6826 126.946 37.7857 124.368 35.0003C121.79 32.2148 120.034 28.6659 119.323 24.8024C118.612 20.9389 118.977 16.9343 120.372 13.295C121.767 9.65572 124.13 6.54505 127.161 4.35659C130.193 2.16813 133.757 1 137.403 1C142.291 1.00318 146.978 3.10253 150.435 6.83696C153.89 10.5714 155.834 15.6356 155.837 20.9169Z" stroke="#7780A1" stroke-width="0.75"/>
<path d="M196.146 186.068L211.347 194.358C214.466 196.055 218.082 196.346 221.4 195.167C224.719 193.989 227.469 191.436 229.047 188.069L246.452 150.84" stroke="#7780A1" stroke-width="0.75" stroke-linecap="round" stroke-linejoin="round"/>
<path d="M257.477 127.269L268.208 104.335C269.779 100.964 270.048 97.0577 268.957 93.4729C267.866 89.8879 265.503 86.917 262.387 85.2119L154.981 26.584M94.0967 102.88L125.258 36.1878" stroke="#7780A1" stroke-width="0.75" stroke-linecap="round" stroke-linejoin="round"/>
<path d="M268.707 92.5821L179.004 108.211L145.847 38.6367" stroke="#7780A1" stroke-width="0.75" stroke-linecap="round" stroke-linejoin="round"/>
<path d="M129.855 191.371C123.163 199.321 115.058 205.732 106.023 210.223C96.9871 214.715 87.2073 217.194 77.2659 217.514C67.3245 217.833 57.4255 215.986 48.159 212.082C38.8928 208.178 30.4491 202.298 23.3317 194.793C16.2143 187.287 10.5689 178.31 6.73231 168.396C2.89574 158.482 0.946598 147.834 1.00111 137.089C1.05563 126.343 3.1127 115.72 7.04964 105.852C10.9866 95.9836 16.7228 87.0734 23.9158 79.6523" stroke="#7780A1" stroke-width="0.75" stroke-linecap="round" stroke-linejoin="round"/>
<path d="M82.9827 95.7583C82.9001 93.3506 83.0893 90.941 83.546 88.5827C87.1297 91.1724 90.0915 89.5624 92.2656 86.212C95.0541 81.3358 96.4856 75.6958 96.3894 69.9648" stroke="#7780A1" stroke-width="0.75" stroke-linecap="round" stroke-linejoin="round"/>
<path d="M81.4216 133.59C83.9453 137.548 86.6535 141.364 89.5362 145.025C94.1692 142.927 98.4374 139.99 102.157 136.342C104.912 133.639 107.384 130.618 109.529 127.332C104.455 120.165 99.7544 112.699 95.4472 104.969C93.3493 101.199 90.2005 98.2438 86.4522 96.5263C84.8445 95.8514 83.1085 95.6115 81.3953 95.8275C80.1231 96.1881 78.7903 96.22 77.5044 95.9209C76.2187 95.6218 75.0162 94.9999 73.9941 94.1055" stroke="#7780A1" stroke-width="0.75" stroke-linecap="round" stroke-linejoin="round"/>
<path d="M235.279 125.998C239.277 126.157 247.216 126.125 252.067 126.03C248.693 134.692 243.926 142.64 237.985 149.504C236.486 149.25 233.311 148.901 231.87 148.806" stroke="#7780A1" stroke-width="0.75" stroke-linecap="round" stroke-linejoin="round"/>
<path d="M282.582 126.156C284.258 126.41 285.335 126.825 285.463 127.395C286.277 131.003 268.801 139.767 260.943 146.613C258.658 148.629 256.101 150.258 253.361 151.441C251.362 151.838 249.31 151.796 247.326 151.314C250.24 149.947 252.971 148.165 255.447 146.013C263.162 139.292 279.085 130.953 282.582 126.156Z" stroke="#7780A1" stroke-width="0.75" stroke-linecap="round" stroke-linejoin="round"/>
<path d="M252.1 126.031C260.803 125.84 276.268 125.173 282.584 126.158C279.085 130.923 263.156 139.285 255.418 146.011C252.944 148.163 250.216 149.947 247.303 151.316C244.51 150.839 241.247 150.045 237.983 149.505C243.936 142.644 248.716 134.696 252.1 126.031Z" stroke="#7780A1" stroke-width="0.75" stroke-linecap="round" stroke-linejoin="round"/>
<path d="M191.941 225.869C191.677 230.634 191.941 237.654 192.294 244.865C184.158 241.535 176.633 236.673 170.067 230.507C170.244 228.887 170.361 227.267 170.391 225.742" stroke="#7780A1" stroke-width="0.75" stroke-linecap="round" stroke-linejoin="round"/>
<path d="M193.263 277.775C193.087 279.614 192.767 280.768 192.234 280.952C188.955 282.08 180.175 263.389 173.565 255.158C171.606 252.759 170 250.049 168.802 247.122C168.372 244.977 168.341 242.76 168.714 240.602C170.088 243.698 171.838 246.582 173.918 249.178C180.417 257.282 188.736 274.154 193.263 277.775Z" stroke="#7780A1" stroke-width="0.75" stroke-linecap="round" stroke-linejoin="round"/>
<path d="M192.293 244.833C192.793 254.236 193.969 270.914 193.263 277.769C188.735 274.148 180.395 257.267 173.921 249.18C171.843 246.582 170.092 243.698 168.717 240.604C169.07 237.554 169.658 233.995 170.04 230.469C176.61 236.645 184.146 241.508 192.293 244.833Z" stroke="#7780A1" stroke-width="0.75" stroke-linecap="round" stroke-linejoin="round"/>
<path d="M103.27 160.368C89.8041 153.221 81.6896 134.257 81.4219 133.59" stroke="#7780A1" stroke-width="0.75" stroke-linecap="round" stroke-linejoin="round"/>
<path d="M91.3633 144.135C95.5413 149.471 100.775 155.216 105.799 158.178C108.348 159.74 111.322 160.29 114.207 159.735C126.478 157.06 149.694 144.011 155.75 137.023C166.718 124.367 165.818 114.725 164.864 98.6184C164.478 92.0747 163.716 92.2319 162.806 95.2747C161.452 99.8154 159.744 110.823 158.338 115.16C158.206 115.596 157.935 115.968 157.573 116.208C156.49 116.877 155.808 115.414 155.252 113.349C154.662 111.157 154.242 108.238 153.694 106.495C152.733 103.42 150.772 100.618 150.46 109.639C150.277 114.944 150.265 124.081 144.933 127.428C140.782 129.983 136.458 132.192 131.996 134.035C127.381 135.988 122.547 137.27 117.619 137.847C114.944 138.001 111.357 134.702 107.947 129.588" stroke="#7780A1" stroke-width="0.75" stroke-linecap="round" stroke-linejoin="round"/>
<path d="M159.659 109.86L164.599 86.3859C164.708 85.8719 164.623 85.3323 164.365 84.8855C164.105 84.4387 163.692 84.1215 163.217 84.0035C162.742 83.8856 162.242 83.9766 161.829 84.2566C161.414 84.5366 161.122 84.9825 161.012 85.4964L155.19 113.164" stroke="#7780A1" stroke-width="0.75" stroke-linecap="round" stroke-linejoin="round"/>
<path d="M168.695 174.503C173.282 172.375 176.485 170.852 176.485 170.852L169.098 190.101" stroke="#7780A1" stroke-width="0.75" stroke-linecap="round" stroke-linejoin="round"/>
<path d="M105.798 158.176C100.244 162.976 94.4215 167.401 88.3633 171.426C78.4857 163.977 71.6264 152.721 69.1973 139.975" stroke="#7780A1" stroke-width="0.75" stroke-linecap="round" stroke-linejoin="round"/>
<path d="M161.895 127.872L175.683 121.551C179.098 119.992 182.806 119.328 186.503 119.613L235.045 123.52C236.137 134.496 236.007 140.809 231.046 150.457L190.531 150.87" stroke="#7780A1" stroke-width="0.75" stroke-linecap="round" stroke-linejoin="round"/>
<path d="M89.5098 60.7838C89.5098 60.7838 84.3616 50.3631 72.2517 56.7179C60.1417 63.0726 62.4907 88.6103 62.4907 88.6103C62.4907 88.6103 51.7285 94.1692 45.9954 103.54C37.1165 118.057 41.5869 139.975 69.1971 139.975C67.8809 133.718 67.4252 127.285 67.8447 120.884C68.5797 109.607 72.3724 99.2834 75.724 88.7056C76.4884 86.2596 78.3113 80.2877 78.9287 77.8084C79.4873 75.4912 79.7519 73.8695 80.5751 71.1076C77.0161 67.4546 81.2513 63.0709 83.1624 66.627C84.0057 68.1317 84.1697 68.0447 85.0935 68.3741C87.3806 69.1866 93.5423 71.0307 98.1272 69.5444C98.1241 69.5494 98.4181 60.7838 89.5098 60.7838Z" stroke="#7780A1" stroke-width="0.75" stroke-linecap="round" stroke-linejoin="round"/>
<path d="M31.4707 66.246C21.0479 71.6778 11.2413 78.3937 2.24655 86.2598C1.99339 86.43 1.78222 86.6639 1.63113 86.9416C1.48005 87.2193 1.39358 87.5324 1.37912 87.8541C1.36466 88.1757 1.42267 88.4966 1.54815 88.7886C1.67362 89.0809 1.86284 89.3359 2.09955 89.5316L8.80291 95.2811C12.8648 89.5249 18.372 84.6598 23.9055 79.6342C19.6463 85.5872 15.9161 91.9607 12.7642 98.67L19.9767 104.843C20.2094 105.042 20.4831 105.178 20.7748 105.24C21.0665 105.301 21.3675 105.286 21.6526 105.196C21.9378 105.106 22.1989 104.943 22.4137 104.721C22.6284 104.499 22.7909 104.225 22.8873 103.921L34.2344 68.6066C34.3668 68.2107 34.3808 67.7797 34.2741 67.3748C34.1674 66.9699 33.9455 66.6114 33.6399 66.3505C33.3341 66.0893 32.9601 65.9387 32.5708 65.92C32.1816 65.9012 31.7966 66.0153 31.4707 66.246Z" stroke="#7780A1" stroke-width="0.75" stroke-linecap="round" stroke-linejoin="round"/>
<path d="M230.81 5.70354C224.959 2.5571 218.403 7.04103 219.344 13.6449L216.609 16.375L220.373 16.6927C223.695 22.7598 232.133 23.0156 234.896 17.0421C235.741 14.9523 235.785 12.5862 235.019 10.4615C234.253 8.33672 232.739 6.62607 230.81 5.70354Z" stroke="#7780A1" stroke-width="0.75" stroke-linecap="round" stroke-linejoin="round"/>
<path d="M265.62 189.241C264.732 188.745 263.762 188.442 262.767 188.35C261.77 188.258 260.766 188.379 259.813 188.706C258.861 189.034 257.976 189.561 257.213 190.258C256.449 190.955 255.819 191.808 255.359 192.767C255.359 192.767 250.391 203.252 246.216 202.932L266.973 214.527C264.297 211.032 268.884 200.329 268.884 200.329C269.343 199.369 269.625 198.321 269.708 197.245C269.793 196.168 269.682 195.084 269.379 194.055C269.075 193.025 268.588 192.07 267.943 191.244C267.298 190.418 266.508 189.738 265.62 189.241Z" stroke="#7780A1" stroke-width="0.75" stroke-linecap="round" stroke-linejoin="round"/>
<path d="M260.006 210.652C259.539 211.63 258.729 212.365 257.759 212.7C256.789 213.032 255.737 212.935 254.831 212.431C253.926 211.926 253.245 211.051 252.936 210.003C252.628 208.955 252.718 207.818 253.185 206.84" stroke="#7780A1" stroke-width="0.75" stroke-linecap="round" stroke-linejoin="round"/>
<path d="M288.259 67.8984L282.761 88.3553" stroke="#7780A1" stroke-width="0.75" stroke-linecap="round" stroke-linejoin="round"/>
<path d="M294.962 81.0807L276.028 75.1406" stroke="#7780A1" stroke-width="0.75" stroke-linecap="round" stroke-linejoin="round"/>
<path d="M169.127 214.75C177.478 216.235 185.986 216.403 194.382 215.252" stroke="#7780A1" stroke-width="0.75" stroke-linecap="round" stroke-linejoin="round"/>
<path d="M223.812 122.695C225.137 132.225 223.71 141.963 219.726 150.585" stroke="#7780A1" stroke-width="0.75" stroke-linecap="round" stroke-linejoin="round"/>
<path d="M124.584 237.37C124.787 238.445 124.691 239.56 124.308 240.575C123.925 241.59 123.272 242.459 122.431 243.074C121.59 243.688 120.6 244.019 119.585 244.025C118.57 244.03 117.577 243.711 116.73 243.108C115.883 242.504 115.221 241.641 114.827 240.632C114.434 239.62 114.327 238.507 114.519 237.43C114.711 236.353 115.195 235.362 115.908 234.583C116.622 233.804 117.533 233.27 118.528 233.05C119.188 232.899 119.869 232.893 120.532 233.03C121.195 233.167 121.826 233.443 122.39 233.846C122.953 234.247 123.437 234.765 123.813 235.37C124.19 235.976 124.452 236.654 124.584 237.37Z" stroke="#7780A1" stroke-width="0.75" stroke-linecap="round" stroke-linejoin="round"/>
<path d="M122.263 219.993C124.234 218.002 126.707 216.686 129.37 216.215C132.033 215.742 134.766 216.133 137.223 217.338C139.681 218.544 141.752 220.51 143.175 222.988C144.598 225.464 145.31 228.342 145.219 231.257C145.129 234.171 144.24 236.989 142.667 239.358C141.093 241.727 138.905 243.538 136.378 244.563C133.852 245.588 131.101 245.78 128.473 245.116C125.846 244.452 123.459 242.961 121.616 240.831C119.145 237.974 117.826 234.176 117.947 230.267C118.068 226.36 119.621 222.665 122.263 219.993Z" stroke="#7780A1" stroke-width="0.75" stroke-linecap="round" stroke-linejoin="round"/>
<path d="M88.3643 171.427C88.3643 171.427 99.8305 206.718 142.523 186.769L168.696 174.503C169.021 187.848 169.705 210.433 168.665 225.236C176.637 227.859 185.138 227.947 193.155 225.49C196.36 201.982 198.838 164.875 190.539 150.871C179.788 132.727 146.732 144.359 146.732 144.359" stroke="#7780A1" stroke-width="0.75" stroke-linecap="round" stroke-linejoin="round"/>
<path d="M83.5462 88.5812C82.1296 87.4901 80.885 86.1595 79.8604 84.6406L82.983 93.1203" stroke="#7780A1" stroke-width="0.75" stroke-linecap="round" stroke-linejoin="round"/>
</svg>
