<svg width="302" height="300" viewBox="0 0 302 300" fill="none" xmlns="http://www.w3.org/2000/svg">
<path d="M94.4237 81.8322C95.2653 76.3571 99.8964 70.702 104.226 67.9645C104.677 67.6643 105.127 67.3926 105.579 67.1225C115.381 73.915 133.304 84.9014 154.353 88.2408C155.976 88.5109 157.96 88.1192 159.194 89.2328C163.072 92.6923 163.853 104.786 173.445 105.056C174.77 108.427 175.971 111.675 177.265 114.442C175.697 112.245 164.238 114.329 161.328 114.984C158.474 115.616 146.159 118.973 146.684 121.603C144.519 116.938 145.36 112.217 146.774 107.282C129.604 103.974 105.819 91.8203 94.4237 81.8322Z" fill="#B476E5"/>
<path d="M244.589 132.582C247.643 135.519 251.499 137.484 255.669 138.228C259.839 138.973 264.136 138.463 268.017 136.764C271.897 135.065 275.187 132.253 277.47 128.684C279.754 125.114 280.927 120.948 280.843 116.711C280.759 112.474 279.422 108.357 276.999 104.88C274.576 101.404 271.178 98.7247 267.233 97.1809C263.288 95.6371 258.974 95.2985 254.837 96.2074C250.7 97.1165 246.925 99.2324 243.989 102.288C242.039 104.316 240.507 106.708 239.481 109.328C238.455 111.949 237.956 114.746 238.012 117.56C238.067 120.373 238.677 123.148 239.806 125.726C240.934 128.304 242.56 130.634 244.589 132.582Z" fill="#B476E5"/>
<path d="M14.439 216.785C12.2742 209.294 5.05686 211.58 1.0874 207.067C0.365818 213.957 4.15529 220.876 11.0111 221.206L14.439 216.785Z" fill="#B476E5"/>
<path d="M177.626 231.615C180.363 233.21 185.474 229.901 191.066 223.582C190.969 225.762 190.351 227.888 189.263 229.781C185.474 236.88 185.654 254.389 181.444 253.16C180.271 252.798 178.888 246.841 177.655 240.014C177.017 236.715 176.173 233.46 175.129 230.266C175.651 230.533 177.102 231.266 177.626 231.615Z" fill="#47BDFF"/>
<path d="M160.125 80.7504C159.573 82.3564 158.76 83.8604 157.719 85.2018C155.074 84.8117 152.134 84.0092 151.586 82.796C151.49 82.5916 151.41 82.3804 151.344 82.1642C152.036 84.3599 156.036 82.8861 160.125 80.7504Z" fill="#47BDFF"/>
<path d="M156.577 64.5949C161.9 58.9998 179.249 63.3913 191.006 71.9056C202.823 80.4483 199.425 88.4508 184.121 84.7813C185.022 85.0514 194.826 87.999 201.23 95.3649C210.642 106.195 202.463 110.346 191.914 108.181C179.316 105.593 168.491 95.2449 164.823 88.0843C163.138 83.8656 161.995 79.4498 161.422 74.9432C165.811 71.3637 163.135 68.1144 160.73 70.5818C159.437 71.9056 157.994 71.2737 159.587 66.9486C157.981 65.9519 156.053 65.6328 156.577 64.5949Z" fill="#47BDFF"/>
<path d="M116.434 239.497C116.99 232.354 116.91 225.176 116.194 218.047C121.899 219.658 127.951 219.565 133.604 217.777C133.484 222.772 135.047 225.298 133.754 228.397C132.977 230.135 131.875 231.706 130.507 233.029C124.853 238.745 120.012 255.591 116.314 253.185C115.291 252.52 115.683 246.416 116.434 239.497Z" fill="#47BDFF"/>
<path d="M172.995 113.481C173.266 114.877 173.689 116.239 174.258 117.542C179.159 115.105 178.016 113.511 172.995 113.481Z" fill="#47BDFF"/>
<path d="M146.654 121.567C146.775 122.139 147.587 122.501 148.94 122.673C148.428 121.741 147.977 120.897 147.587 120.055C146.895 120.64 146.565 121.152 146.654 121.567Z" fill="#47BDFF"/>
<path d="M133.184 167.719L136.341 176.773C136.461 173.254 136.581 169.794 136.643 166.395L133.184 167.719Z" fill="#47BDFF"/>
<path d="M241.173 231.644C249.247 217.816 259.962 206.038 265.024 207.989C271.875 210.63 262.58 231.81 257.249 241.061C248.289 256.584 237.464 267.112 232.948 264.683C226.384 261.024 237.107 238.606 241.173 231.644Z" fill="#47BDFF"/>
<path d="M185.654 199.065C194.554 183.662 205.349 173.254 209.8 175.844C214.28 178.43 210.672 192.991 201.801 208.393C192.931 223.795 182.106 234.175 177.656 231.614C173.175 229.028 176.783 214.467 185.654 199.065Z" fill="#47BDFF"/>
<path d="M175.13 230.26C176.171 233.454 177.014 236.71 177.656 240.008C178.875 246.839 180.269 252.803 181.445 253.154C185.647 254.418 185.489 236.884 189.264 229.775C190.354 227.884 190.972 225.758 191.067 223.577" stroke="white" stroke-width="0.75" stroke-linecap="round" stroke-linejoin="round"/>
<path d="M71.0597 117.06C71.6597 116.088 72.4649 115.261 73.4202 114.636C74.3755 114.01 75.4555 113.603 76.586 113.442C77.7165 113.281 78.8676 113.371 79.9586 113.705C81.0497 114.039 82.0555 114.609 82.9018 115.374C83.2365 114.232 83.8318 113.182 84.637 112.306C85.4439 111.43 86.4418 110.752 87.5533 110.324C88.6633 109.896 89.8586 109.73 91.0444 109.839C92.2302 109.948 93.3733 110.328 94.3886 110.951C95.2665 111.492 96.0291 112.201 96.6323 113.037C97.237 113.873 97.6696 114.821 97.9065 115.825C99.1554 114.883 100.659 114.34 102.22 114.268C103.782 114.196 105.329 114.598 106.659 115.42C107.988 116.243 109.038 117.449 109.671 118.879C110.304 120.309 110.489 121.897 110.205 123.435C111.22 123.169 112.278 123.11 113.315 123.26C114.354 123.41 115.351 123.766 116.249 124.309C117.263 124.931 118.119 125.778 118.753 126.785C119.388 127.791 119.783 128.929 119.907 130.112C120.032 131.295 119.884 132.491 119.473 133.608C119.064 134.725 118.403 135.732 117.542 136.553C118.597 136.968 119.547 137.61 120.327 138.432C121.107 139.254 121.7 140.236 122.06 141.311C122.421 142.385 122.543 143.526 122.416 144.653C122.292 145.779 121.921 146.865 121.332 147.833C120.509 149.194 119.279 150.263 117.819 150.888C116.356 151.514 114.735 151.665 113.183 151.322L71.2065 125.574C70.1502 124.938 68.8665 120.603 71.0597 117.06Z" stroke="white" stroke-width="0.75" stroke-linecap="round" stroke-linejoin="round"/>
<path d="M102.902 129.002C101.911 129.937 101.271 131.185 101.091 132.537C100.911 133.889 101.202 135.261 101.916 136.423C102.629 137.585 103.72 138.465 105.006 138.917C106.292 139.368 107.694 139.362 108.977 138.9" stroke="white" stroke-width="0.75" stroke-linecap="round" stroke-linejoin="round"/>
<path d="M84.1998 123.709C84.3672 124.926 84.904 126.062 85.7409 126.961C86.5777 127.86 87.6719 128.478 88.8719 128.732C90.0735 128.985 91.324 128.861 92.4529 128.377C93.5803 127.892 94.5308 127.071 95.175 126.025C95.4482 125.573 95.6598 125.088 95.8066 124.581" stroke="white" stroke-width="0.75" stroke-linecap="round" stroke-linejoin="round"/>
<path d="M82.9069 115.374C83.7153 116.137 84.3863 117.033 84.8916 118.023" stroke="white" stroke-width="0.75" stroke-linecap="round" stroke-linejoin="round"/>
<path d="M114.805 136.046C115.738 136.093 116.66 136.265 117.547 136.557" stroke="white" stroke-width="0.75" stroke-linecap="round" stroke-linejoin="round"/>
<path d="M97.9113 115.826C98.1087 116.806 98.1403 117.812 98.0077 118.803" stroke="white" stroke-width="0.75" stroke-linecap="round" stroke-linejoin="round"/>
<path d="M107.23 124.831C108.132 124.192 109.141 123.72 110.21 123.436" stroke="white" stroke-width="0.75" stroke-linecap="round" stroke-linejoin="round"/>
<path d="M60.3548 134.447C62.5859 130.772 67.1901 130.116 67.9922 130.718L110 156.499C111.202 157.221 112.852 161.589 110.57 165.282C109.976 166.247 109.179 167.072 108.235 167.696C107.289 168.322 106.218 168.731 105.097 168.896C103.976 169.061 102.833 168.979 101.747 168.655C100.662 168.331 99.6595 167.773 98.8132 167.02C98.3316 168.677 97.3084 170.125 95.9095 171.135C94.5105 172.144 92.8148 172.656 91.0906 172.591C89.3664 172.525 87.7132 171.885 86.3948 170.772C85.0763 169.659 84.1685 168.137 83.8132 166.448C82.5721 167.399 81.0722 167.953 79.5106 168.037C77.949 168.122 76.3985 167.732 75.0611 166.919C73.7253 166.105 72.6658 164.908 72.0216 163.481C71.379 162.055 71.1816 160.467 71.4548 158.927C69.789 159.349 68.0301 159.205 66.4543 158.52C64.8785 157.833 63.5743 156.642 62.7485 155.135C61.9227 153.626 61.6211 151.887 61.8911 150.187C62.1611 148.489 62.9869 146.929 64.239 145.751C63.1732 145.347 62.2085 144.713 61.4143 143.893C60.6217 143.074 60.0169 142.09 59.6459 141.011C59.2764 139.932 59.1469 138.785 59.2701 137.65C59.3917 136.516 59.7627 135.422 60.3548 134.447Z" stroke="white" stroke-width="0.75" stroke-linecap="round" stroke-linejoin="round"/>
<path d="M85.463 157.461C85.7725 156.414 86.363 155.472 87.1714 154.739C87.9798 154.006 88.973 153.51 90.0451 153.305C91.1172 153.1 92.224 153.195 93.2456 153.577C94.2672 153.961 95.1641 154.616 95.8367 155.476C96.4951 156.324 96.9198 157.33 97.0698 158.393" stroke="white" stroke-width="0.75" stroke-linecap="round" stroke-linejoin="round"/>
<path d="M72.2614 143.207C73.4188 142.808 74.6724 142.775 75.8503 143.113C77.0267 143.452 78.0719 144.145 78.8409 145.098C79.6098 146.052 80.0677 147.22 80.1482 148.443C80.2303 149.666 79.9335 150.885 79.2988 151.932C79.0272 152.387 78.6925 152.802 78.3056 153.166" stroke="white" stroke-width="0.75" stroke-linecap="round" stroke-linejoin="round"/>
<path d="M64.2341 145.759C65.2936 146.151 66.413 146.355 67.542 146.361" stroke="white" stroke-width="0.75" stroke-linecap="round" stroke-linejoin="round"/>
<path d="M97.1488 164.849C97.5988 165.651 98.1593 166.386 98.813 167.033" stroke="white" stroke-width="0.75" stroke-linecap="round" stroke-linejoin="round"/>
<path d="M71.4501 158.935C72.418 158.657 73.3338 158.223 74.1611 157.649" stroke="white" stroke-width="0.75" stroke-linecap="round" stroke-linejoin="round"/>
<path d="M83.7233 163.233C83.5796 164.306 83.6096 165.393 83.8086 166.456" stroke="white" stroke-width="0.75" stroke-linecap="round" stroke-linejoin="round"/>
<path d="M110 156.499L114.479 159.205" stroke="white" stroke-width="0.75" stroke-linecap="round" stroke-linejoin="round"/>
<path d="M113.186 151.324L117.607 154.001" stroke="white" stroke-width="0.75" stroke-linecap="round" stroke-linejoin="round"/>
<path d="M136.49 172.592L184.24 201.592" stroke="white" stroke-width="0.75" stroke-linecap="round" stroke-linejoin="round"/>
<path d="M137.453 166.064L187.278 196.359" stroke="white" stroke-width="0.75" stroke-linecap="round" stroke-linejoin="round"/>
<path d="M95.0553 82.3734C84.3611 81.3837 73.6085 83.5063 64.0922 88.4856C54.5759 93.4649 46.6986 101.089 41.4107 110.441C25.4381 137.903 33.8049 173.371 60.0849 189.649C76.5233 199.831 81.0848 194.448 113.006 203.55" stroke="white" stroke-width="0.75" stroke-linecap="round" stroke-linejoin="round"/>
<path d="M177.312 231.381C162.71 223.762 149.66 217.102 136.22 211.61" stroke="white" stroke-width="0.75" stroke-linecap="round" stroke-linejoin="round"/>
<path d="M175.641 150.211C185.773 158.333 196.87 166.246 209.83 175.812" stroke="white" stroke-width="0.75" stroke-linecap="round" stroke-linejoin="round"/>
<path d="M132.1 102.981C138.402 112.46 145.472 121.404 153.239 129.724" stroke="white" stroke-width="0.75" stroke-linecap="round" stroke-linejoin="round"/>
<path d="M105.609 67.1525C100.528 70.0101 95.3553 75.8769 94.4237 81.8322C105.821 91.8203 129.604 103.974 146.774 107.282C145.36 112.217 144.519 116.94 146.684 121.603C146.159 118.976 158.294 115.662 161.328 114.984C164.29 114.322 175.709 112.266 177.265 114.442C175.971 111.675 174.768 108.426 173.445 105.056C163.853 104.786 163.087 92.6749 159.194 89.2328C157.967 88.1492 156.036 88.5125 154.353 88.2408C133.316 84.8177 115.381 73.9213 105.579 67.1225L105.609 67.1525Z" stroke="white" stroke-width="0.75" stroke-linecap="round" stroke-linejoin="round"/>
<path d="M175.543 119.798C166.935 119.661 158.457 121.914 151.051 126.306" stroke="white" stroke-width="0.75" stroke-linecap="round" stroke-linejoin="round"/>
<path d="M151.483 82.484C152.464 84.1995 156.253 82.7715 160.125 80.7464C159.573 82.3526 158.76 83.8567 157.719 85.1978" stroke="white" stroke-width="0.75" stroke-linecap="round" stroke-linejoin="round"/>
<path d="M155.467 88.3524C157.562 87.8374 157.002 86.817 157.719 85.201C152.066 84.3653 151.087 83.3244 151.319 80.4905C151.659 76.3739 154.075 67.4046 156.577 64.5945" stroke="white" stroke-width="0.75" stroke-linecap="round" stroke-linejoin="round"/>
<path d="M146.773 107.282C148.518 107.614 150.201 107.854 151.766 108.005" stroke="white" stroke-width="0.75" stroke-linecap="round" stroke-linejoin="round"/>
<path d="M159.583 66.943C157.99 71.2744 159.425 71.9062 160.726 70.5762C163.133 68.1103 165.807 71.366 161.418 74.9376C161.99 79.4457 163.132 83.8629 164.816 88.0834C168.484 95.244 179.309 105.592 191.907 108.18C202.462 110.345 210.641 106.194 201.223 95.364C194.819 87.9934 185.015 85.0457 184.114 84.7804C199.418 88.4499 202.813 80.4521 190.999 71.9046C179.239 63.3951 161.893 58.9989 156.57 64.594C156.062 65.6239 158.037 65.9873 159.583 66.943Z" stroke="white" stroke-width="0.75" stroke-linecap="round" stroke-linejoin="round"/>
<path d="M173.445 105.056C171.857 100.757 169.81 96.6422 167.341 92.7822C166.364 91.3208 165.529 89.7699 164.846 88.1506" stroke="white" stroke-width="0.75" stroke-linecap="round" stroke-linejoin="round"/>
<path d="M153.193 129.676C151.108 126.604 149.23 123.396 147.571 120.075" stroke="white" stroke-width="0.75" stroke-linecap="round" stroke-linejoin="round"/>
<path d="M87.8677 65.6791C83.3282 64.5955 79.5908 66.6427 79.9003 68.3866C79.9698 68.7362 80.1135 69.067 80.3203 69.3572C80.5287 69.6475 80.794 69.8905 81.1019 70.0705" stroke="white" stroke-width="0.75" stroke-linecap="round" stroke-linejoin="round"/>
<path d="M88.2891 62.9107C83.508 61.767 78.757 64.1744 80.8017 66.7018" stroke="white" stroke-width="0.75" stroke-linecap="round" stroke-linejoin="round"/>
<path d="M94.9351 79.6662C92.1056 76.4352 88.4756 74.0074 84.4098 72.6273" stroke="white" stroke-width="0.75" stroke-linecap="round" stroke-linejoin="round"/>
<path d="M88.0493 68.9264C83.6282 68.0244 80.7166 69.7683 80.8919 71.4838C81.1082 73.5895 85.313 76.7788 88.8608 74.7332" stroke="white" stroke-width="0.75" stroke-linecap="round" stroke-linejoin="round"/>
<path d="M91.7771 61.3158C91.7171 61.2558 89.8824 58.6999 90.694 57.8864C91.3856 57.1945 101.369 65.4071 104.166 68.0246" stroke="white" stroke-width="0.75" stroke-linecap="round" stroke-linejoin="round"/>
<path d="M86.0343 62.6099C78.0954 58.7903 75.9638 54.1825 77.4638 55.0276C82.469 57.5345 87.6101 59.764 92.8601 61.7063C96.9243 63.2533 100.742 65.3816 104.195 68.0249" stroke="white" stroke-width="0.75" stroke-linecap="round" stroke-linejoin="round"/>
<path d="M116.194 218.047C116.903 225.176 116.984 232.354 116.434 239.497C115.668 246.414 115.293 252.521 116.314 253.185C120.015 255.587 124.864 238.756 130.507 233.028C131.878 231.708 132.98 230.134 133.754 228.397C135.05 225.293 133.479 222.762 133.605 217.751" stroke="white" stroke-width="0.75" stroke-linecap="round" stroke-linejoin="round"/>
<path d="M185.654 199.065C176.772 214.461 173.172 229.033 177.656 231.606C182.102 234.168 192.931 223.785 201.801 208.385C210.672 192.985 214.277 178.434 209.8 175.841C205.324 173.249 194.543 183.656 185.654 199.065Z" stroke="white" stroke-width="0.75" stroke-linecap="round" stroke-linejoin="round"/>
<path d="M231.293 256.204C233.541 242.204 247.057 218.91 258.031 210.499C263.699 206.106 267.759 206.883 267.294 214.25C266.413 228.23 250.853 255.201 239.238 263.115C232.79 267.507 230.017 264.151 231.293 256.204Z" stroke="white" stroke-width="0.75" stroke-linecap="round" stroke-linejoin="round"/>
<path d="M232.649 264.525L223.722 259.358C222.862 258.683 222.277 257.718 222.078 256.644C221.878 255.57 222.078 254.459 222.639 253.521C219.086 258.875 212.115 253.347 214.911 248.708C212.317 253.131 204.16 250.275 207.514 243.565C206.754 244.55 205.671 245.234 204.455 245.498C203.24 245.763 201.97 245.59 200.87 245.008C197.238 242.689 198.585 238.18 200.838 230.839C205.053 218.232 211.738 206.591 220.504 196.6C222.611 194.09 225.022 191.852 227.683 189.94C231.891 187.329 236.625 189.286 234.997 196.39C236.336 194.158 237.907 192.698 240.561 193.411C241.231 193.597 241.849 193.937 242.366 194.401C242.884 194.867 243.286 195.445 243.542 196.093C243.798 196.739 243.901 197.437 243.843 198.131C243.785 198.824 243.567 199.494 243.206 200.089C243.206 200.089 246.321 196.15 249.852 198.947C250.729 199.631 251.319 200.617 251.508 201.712C251.698 202.808 251.472 203.934 250.875 204.873C251.159 204.37 251.54 203.931 251.995 203.577C252.451 203.223 252.972 202.964 253.528 202.813C254.084 202.661 254.665 202.623 255.236 202.697C255.808 202.772 256.359 202.96 256.858 203.249L265.261 208.086" stroke="white" stroke-width="0.75" stroke-linecap="round" stroke-linejoin="round"/>
<path d="M14.4392 216.785C18.1481 218.834 21.7039 221.146 25.0828 223.704C35.0081 231.373 44.6886 241.001 43.3986 242.686C42.1086 244.372 30.3755 237.456 20.4265 229.781C17.0918 227.158 13.956 224.293 11.0444 221.206" stroke="white" stroke-width="0.75" stroke-linecap="round" stroke-linejoin="round"/>
<path d="M14.439 216.786C12.2742 209.295 5.05686 211.581 1.0874 207.068C0.365818 213.958 4.15529 220.877 11.0111 221.207L14.439 216.786Z" stroke="white" stroke-width="0.75" stroke-linecap="round" stroke-linejoin="round"/>
<path d="M23.8354 222.761L19.1902 228.787" stroke="white" stroke-width="0.75" stroke-linecap="round" stroke-linejoin="round"/>
<path d="M7.37158 72.6876L11.311 81.5162H4.09527L8.06473 90.3465" stroke="white" stroke-width="0.75" stroke-linecap="round" stroke-linejoin="round"/>
<path d="M147.587 290.758L163.583 291.24" stroke="white" stroke-width="0.75" stroke-linecap="round" stroke-linejoin="round"/>
<path d="M155.344 299L155.826 282.995" stroke="white" stroke-width="0.75" stroke-linecap="round" stroke-linejoin="round"/>
<path d="M172.995 113.481C173.265 114.877 173.689 116.239 174.258 117.542C179.159 115.105 178.016 113.511 172.995 113.481Z" stroke="white" stroke-width="0.75" stroke-linecap="round" stroke-linejoin="round"/>
<path d="M146.684 121.603C146.829 122.148 147.601 122.503 148.907 122.68" stroke="white" stroke-width="0.75" stroke-linecap="round" stroke-linejoin="round"/>
<path d="M172.995 113.481C173.488 116.898 175.222 120.015 177.866 122.234C189.683 131.62 189.866 144.766 181.234 154.604" stroke="white" stroke-width="0.75" stroke-linecap="round" stroke-linejoin="round"/>
<path d="M265.786 208.414L279.109 215.971" stroke="white" stroke-width="0.75" stroke-linecap="round" stroke-linejoin="round"/>
<path d="M233.26 264.856L245.221 271.836" stroke="white" stroke-width="0.75" stroke-linecap="round" stroke-linejoin="round"/>
<path d="M250.995 275.476L259.865 280.65" stroke="white" stroke-width="0.75" stroke-linecap="round" stroke-linejoin="round"/>
<path d="M285.304 219.852L294.354 224.997" stroke="white" stroke-width="0.75" stroke-linecap="round" stroke-linejoin="round"/>
<path d="M257.219 241.06L286.357 258.297" stroke="white" stroke-width="0.75" stroke-linecap="round" stroke-linejoin="round"/>
<path d="M292.159 261.939L301 267.082" stroke="white" stroke-width="0.75" stroke-linecap="round" stroke-linejoin="round"/>
<path d="M244.589 132.583C247.643 135.519 251.499 137.484 255.669 138.228C259.839 138.973 264.136 138.463 268.017 136.764C271.897 135.065 275.187 132.253 277.47 128.684C279.754 125.114 280.927 120.948 280.843 116.711C280.759 112.474 279.422 108.357 276.999 104.881C274.576 101.404 271.178 98.7248 267.233 97.181C263.288 95.6372 258.974 95.2985 254.837 96.2075C250.7 97.1165 246.925 99.2325 243.989 102.288C242.039 104.316 240.507 106.708 239.481 109.328C238.455 111.949 237.956 114.746 238.012 117.56C238.067 120.373 238.677 123.148 239.806 125.726C240.934 128.304 242.56 130.634 244.589 132.583Z" stroke="white" stroke-width="0.75" stroke-linecap="round" stroke-linejoin="round"/>
<path d="M238.034 118.408C231.389 121.567 227.456 124.568 228.021 126.464C229.033 129.887 243.989 128.569 261.458 123.515C278.928 118.46 292.284 111.584 291.288 108.156C290.719 106.198 285.665 105.778 278.182 106.712" stroke="white" stroke-width="0.75" stroke-linecap="round" stroke-linejoin="round"/>
<path d="M180.053 140.765C179.181 146.24 176.105 151.26 171.964 152.558C159.031 156.605 136.633 166.426 136.633 166.426C136.354 181.919 134.952 198.967 136.452 216.785C129.28 219.806 121.231 219.987 113.93 217.296C112.667 200.48 111.857 184.355 112.157 169.464C112.224 165.758 113.082 162.11 114.673 158.763C116.267 155.417 118.554 152.449 121.387 150.061C133.073 140.396 146.102 132.482 160.065 126.567" stroke="white" stroke-width="0.75" stroke-linecap="round" stroke-linejoin="round"/>
<path d="M136.641 166.426L133.183 167.719L136.34 176.774" stroke="white" stroke-width="0.75" stroke-linecap="round" stroke-linejoin="round"/>
<path d="M135.828 204.901C128.518 207.411 120.647 207.797 113.126 206.015" stroke="white" stroke-width="0.75" stroke-linecap="round" stroke-linejoin="round"/>
<path d="M142.444 1V6.02486" stroke="white" stroke-width="0.75" stroke-linecap="round" stroke-linejoin="round"/>
<path d="M132.672 10.776H137.694" stroke="white" stroke-width="0.75" stroke-linecap="round" stroke-linejoin="round"/>
<path d="M142.444 20.5541V15.5293" stroke="white" stroke-width="0.75" stroke-linecap="round" stroke-linejoin="round"/>
<path d="M152.216 10.776H147.192" stroke="white" stroke-width="0.75" stroke-linecap="round" stroke-linejoin="round"/>
<path d="M137.695 10.7768C138.318 10.7784 138.937 10.6567 139.513 10.4185C140.091 10.1803 140.616 9.83025 141.056 9.38874C141.498 8.94723 141.847 8.42278 142.086 7.84542C142.324 7.26825 142.446 6.64963 142.444 6.02518C142.442 6.6495 142.564 7.268 142.802 7.84511C143.039 8.42231 143.39 8.9466 143.83 9.38827C144.272 9.82978 144.797 10.1797 145.373 10.418C145.949 10.6563 146.568 10.7782 147.192 10.7768C146.568 10.7754 145.949 10.8973 145.373 11.1357C144.795 11.374 144.271 11.7241 143.83 12.1659C143.39 12.6076 143.039 13.1322 142.801 13.7096C142.564 14.2868 142.442 14.9055 142.444 15.5299C142.446 14.9053 142.324 14.2866 142.086 13.7091C141.849 13.1317 141.498 12.607 141.058 12.1653C140.616 11.7236 140.091 11.3736 139.515 11.1352C138.937 10.8968 138.318 10.775 137.695 10.7768Z" stroke="white" stroke-width="0.75" stroke-linecap="round" stroke-linejoin="round"/>
</svg>
