<svg width="296" height="281" viewBox="0 0 296 281" fill="none" xmlns="http://www.w3.org/2000/svg">
<path d="M231.952 175.401L179.059 183.274C176.507 171.864 175.151 166.177 174.259 162.093C170.528 145.123 155.761 139.301 151.672 138.011C151.158 141.088 133.21 151.745 125.064 146.873C95.2442 185.749 76.853 211.155 37.4446 248.4C31.3844 254.011 49.0355 273.279 55.1252 267.757C93.0502 233.824 113.213 215.252 141.817 180.488L136.288 162.158L159.999 202.836C161.684 205.721 164.215 208.02 167.25 209.424C170.286 210.826 173.679 211.264 176.972 210.679L236.396 199.987C241.722 199.119 237.407 174.418 231.952 175.401Z" fill="#B476E5"/>
<path d="M99.3398 46.9487L90.4554 5.73849L76.7758 8.67601C76.0663 8.84097 75.4184 9.20383 74.9074 9.72207C74.3963 10.2405 74.0431 10.8931 73.8891 11.6039C73.735 12.3148 73.7862 13.0548 74.0369 13.7378C74.2874 14.4207 74.7272 15.0186 75.3049 15.4617C76.6219 16.475 77.6215 17.8431 78.1859 19.4046C78.7502 20.9663 78.856 22.6564 78.4906 24.2761C78.1252 25.8956 77.3038 27.3772 76.1233 28.5463C74.9427 29.7153 73.4523 30.5231 71.8273 30.8747C70.2023 31.2261 68.5106 31.1066 66.9514 30.53C65.3922 29.9535 64.0305 28.9441 63.0267 27.6207C62.0227 26.2972 61.4186 24.715 61.2853 23.0601C61.1519 21.4053 61.4949 19.7469 62.274 18.2801C62.6143 17.6391 62.7655 16.915 62.7097 16.1916C62.6541 15.4682 62.3939 14.7755 61.9592 14.1941C61.5248 13.6126 60.9338 13.1664 60.2551 12.9071C59.5767 12.648 58.8383 12.5865 58.126 12.7298L45.3584 15.4617L54.2474 56.6719C54.4582 57.6458 55.0476 58.4961 55.8862 59.036C56.7248 59.5757 57.7437 59.7609 58.719 59.5507L79.6929 55.0563C79.8895 52.932 80.2719 48.5876 81.2815 47.2425C82.4288 45.7165 83.2525 50.7984 83.8115 54.1457L96.4614 51.4138C97.4356 51.202 98.2858 50.6128 98.8254 49.7757C99.365 48.9387 99.55 47.922 99.3398 46.9487Z" fill="#B476E5"/>
<path d="M136.493 88.2474L133.677 91.4493C133.571 90.7135 133.375 89.9934 133.095 89.3049C134.258 89.0586 135.396 88.7046 136.493 88.2474Z" fill="#47BDFF"/>
<path d="M156.967 116.182C156.081 118.57 155.354 121.013 154.79 123.497C158.438 123.642 158.673 123.73 162.145 123.73L156.967 116.182Z" fill="#47BDFF"/>
<path d="M144.826 176.753C143.825 178.016 142.796 179.25 141.825 180.483L136.296 162.153L144.826 176.753Z" fill="#47BDFF"/>
<path d="M147.671 70.3011C138.323 59.6085 132.611 64.5436 129.497 70.6536C132.792 64.4261 137.997 66.3061 139.174 73.1799C139.292 73.973 139.733 73.9142 139.821 73.8555C140.293 73.7307 140.733 73.5109 141.116 73.2092C143.852 71.2999 145.735 76.088 141.645 77.4686C141.114 80.4371 140.809 83.4414 140.733 86.4559C140.733 86.4559 157.703 81.7342 147.671 70.3011Z" fill="#47BDFF"/>
<path d="M158.496 67.6862C155.025 71.2994 149.59 71.7323 146.347 68.6262C143.103 65.5202 143.287 60.0781 146.758 56.4649C150.23 52.8518 155.664 52.4189 158.908 55.5249C162.152 58.6309 161.968 64.0731 158.496 67.6862Z" fill="#47BDFF"/>
<path d="M36.5963 254.005C18.7191 268.034 7.79713 273.844 8.08667 276.182C8.70601 281.205 27.1793 272.98 36.4445 273.744C38.639 273.974 40.8576 273.774 42.9754 273.156C45.3583 272.422 47.156 270.424 49.4475 268.104C43.564 265.154 38.9849 260.13 36.5963 254.005Z" fill="#47BDFF"/>
<path d="M250.576 179.367C244.059 174.855 241.286 176.429 235.31 177.986C238.107 183.76 239.258 190.194 238.634 196.579C246.193 195.523 255.136 194.434 260.667 194.105C268.698 193.641 275.727 192.932 276.288 191.608C278.292 186.975 258.163 184.711 250.576 179.367Z" fill="#47BDFF"/>
<path d="M224.036 96.5287L217.801 97.1471C219.213 93.0949 221.888 92.798 224.036 96.5287Z" fill="#47BDFF"/>
<path d="M225.215 114.392C223.832 117.447 221.626 117.564 219.743 114.832L225.215 114.392Z" fill="#47BDFF"/>
<path d="M184.854 39.1645C184.722 39.1926 184.586 39.1945 184.454 39.1697C184.323 39.145 184.196 39.0941 184.084 39.0204C183.971 38.9465 183.875 38.8511 183.801 38.7398C183.725 38.6283 183.674 38.5031 183.648 38.3713L181.147 26.1575C181.093 25.8965 181.144 25.6245 181.29 25.4014C181.437 25.1783 181.666 25.0223 181.926 24.9678C182.188 24.9132 182.46 24.9647 182.685 25.1106C182.908 25.2566 183.064 25.4852 183.118 25.7462L185.619 37.9601C185.653 38.0895 185.661 38.2248 185.64 38.3571C185.62 38.4895 185.572 38.6162 185.499 38.7294C185.428 38.8424 185.334 38.9395 185.222 39.0143C185.111 39.0893 184.985 39.1403 184.854 39.1645Z" fill="#47BDFF"/>
<path d="M117.49 111.894L112.845 123.202C113.904 123.29 114.992 123.349 116.051 123.408C115.462 119.511 115.96 115.527 117.49 111.894Z" fill="#47BDFF"/>
<path d="M3.35013 154.425C3.09363 154.671 2.7513 154.809 2.39532 154.809C2.03932 154.807 1.6975 154.67 1.44188 154.422C1.18628 154.175 1.03686 153.838 1.02516 153.482C1.01344 153.127 1.14034 152.782 1.37909 152.518C1.63559 152.272 1.97792 152.134 2.33391 152.134C2.6899 152.136 3.03173 152.273 3.28733 152.521C3.54295 152.768 3.69235 153.105 3.70407 153.461C3.71579 153.816 3.58889 154.161 3.35013 154.425Z" fill="#47BDFF"/>
<path d="M136.405 107.223C136.434 107.537 136.37 107.852 136.219 108.129C136.069 108.406 135.84 108.632 135.561 108.778C135.282 108.925 134.965 108.986 134.652 108.953C134.338 108.921 134.041 108.796 133.799 108.595C133.556 108.393 133.378 108.125 133.289 107.823C133.199 107.521 133.201 107.199 133.294 106.899C133.387 106.598 133.568 106.331 133.813 106.133C134.057 105.935 134.356 105.813 134.67 105.784C134.879 105.764 135.089 105.785 135.29 105.846C135.49 105.908 135.677 106.009 135.838 106.143C135.999 106.276 136.133 106.441 136.23 106.626C136.327 106.812 136.387 107.015 136.405 107.223Z" fill="#47BDFF"/>
<path d="M133.817 117.946C133.846 118.26 133.781 118.575 133.63 118.852C133.48 119.128 133.251 119.354 132.972 119.501C132.693 119.648 132.377 119.709 132.063 119.676C131.749 119.643 131.452 119.519 131.21 119.318C130.967 119.116 130.79 118.848 130.7 118.546C130.61 118.244 130.612 117.922 130.705 117.622C130.798 117.321 130.979 117.054 131.224 116.856C131.469 116.657 131.767 116.536 132.081 116.507C132.29 116.486 132.501 116.508 132.701 116.569C132.902 116.63 133.088 116.731 133.249 116.865C133.411 116.999 133.544 117.163 133.642 117.349C133.739 117.534 133.798 117.737 133.817 117.946Z" fill="#47BDFF"/>
<path d="M133.817 129.928C133.846 130.242 133.781 130.557 133.63 130.834C133.48 131.11 133.251 131.336 132.972 131.483C132.693 131.63 132.377 131.691 132.063 131.658C131.749 131.625 131.452 131.501 131.21 131.299C130.967 131.098 130.79 130.83 130.7 130.528C130.61 130.226 130.612 129.904 130.705 129.603C130.798 129.303 130.979 129.036 131.224 128.838C131.469 128.639 131.767 128.518 132.081 128.489C132.29 128.468 132.5 128.49 132.701 128.551C132.901 128.613 133.088 128.713 133.249 128.847C133.41 128.981 133.544 129.145 133.641 129.331C133.739 129.516 133.798 129.719 133.817 129.928Z" fill="#47BDFF"/>
<path d="M57.8086 265.37L96.9816 280.586L107.777 252.828C108.405 251.299 109.454 249.981 110.802 249.022C112.15 248.064 113.743 247.507 115.395 247.414C117.047 247.321 118.692 247.699 120.138 248.501C121.585 249.303 122.775 250.499 123.57 251.947C125.383 255.273 128.111 258.011 131.43 259.841C134.75 261.67 138.525 262.516 142.309 262.276C146.093 262.035 149.731 260.721 152.792 258.487C155.854 256.253 158.212 253.192 159.59 249.665C160.968 246.137 161.309 242.289 160.57 238.575C159.832 234.862 158.047 231.436 155.425 228.701C152.802 225.964 149.452 224.035 145.769 223.136C142.085 222.238 138.221 222.41 134.631 223.631C133.063 224.171 131.373 224.254 129.759 223.872C128.145 223.49 126.673 222.659 125.514 221.474C124.355 220.289 123.557 218.8 123.213 217.179C122.868 215.559 122.992 213.874 123.57 212.322L130.866 193.614" stroke="white" stroke-width="0.75" stroke-linecap="round" stroke-linejoin="round"/>
<path d="M33.9144 256.092L6.46849 245.424C5.41826 245.016 4.45882 244.405 3.64498 243.627C2.83112 242.848 2.17882 241.917 1.72533 240.888C1.27183 239.858 1.02602 238.748 1.00196 237.622C0.977882 236.498 1.17601 235.379 1.58502 234.331L33.5319 152.343C33.9405 151.294 34.5525 150.333 35.3327 149.52C36.113 148.707 37.0464 148.055 38.0793 147.602C39.1122 147.149 40.2243 146.904 41.3521 146.881C42.4801 146.858 43.6014 147.057 44.6521 147.467L106.276 171.377" stroke="white" stroke-width="0.75" stroke-linecap="round" stroke-linejoin="round"/>
<path d="M251.778 99.7033C251.961 100.403 252.238 101.075 252.602 101.701" stroke="white" stroke-width="0.75" stroke-linecap="round" stroke-linejoin="round"/>
<path d="M251.696 95.6217C251.957 94.3844 252.483 93.2182 253.239 92.2038C253.994 91.1894 254.962 90.351 256.074 89.7467C259.403 87.9356 262.146 85.2124 263.978 81.8976C265.81 78.5827 266.655 74.8143 266.415 71.0359C266.173 67.2575 264.857 63.6263 262.62 60.5699C260.383 57.5133 257.317 55.1585 253.785 53.7828C250.252 52.4071 246.4 52.0678 242.68 52.8046C238.961 53.5415 235.53 55.3239 232.791 57.942C230.052 60.5603 228.12 63.9052 227.22 67.5832C226.322 71.2613 226.493 75.1192 227.716 78.7031C228.258 80.2691 228.341 81.9565 227.96 83.5686C227.578 85.1807 226.745 86.6511 225.557 87.8087C224.37 88.966 222.879 89.7627 221.254 90.106C219.632 90.449 217.944 90.3244 216.39 89.7467L186.62 78.2038L178.878 98.0892" stroke="white" stroke-width="0.75" stroke-linecap="round" stroke-linejoin="round"/>
<path d="M218.242 203.254L238.216 210.984C239.267 211.394 240.388 211.593 241.515 211.57C242.643 211.547 243.756 211.301 244.789 210.848C245.821 210.395 246.753 209.744 247.534 208.931C248.314 208.116 248.926 207.158 249.334 206.108L253.843 194.525M254.777 104.269C255.449 104.792 256.192 105.217 256.983 105.532L276.37 113.023C277.421 113.431 278.381 114.042 279.196 114.821C280.01 115.6 280.664 116.532 281.117 117.563C281.571 118.594 281.816 119.705 281.839 120.831C281.862 121.957 281.662 123.076 281.252 124.125L258.354 182.942" stroke="white" stroke-width="0.75" stroke-linecap="round" stroke-linejoin="round"/>
<path d="M152.412 134.659C154.397 134.81 156.275 135.617 157.749 136.952C159.223 138.287 160.211 140.074 160.556 142.032" stroke="white" stroke-width="0.75" stroke-linecap="round" stroke-linejoin="round"/>
<path d="M119.549 98.1763C123.262 94.435 128.307 92.3126 133.581 92.2719" stroke="white" stroke-width="0.75" stroke-linecap="round" stroke-linejoin="round"/>
<path d="M144.289 60.989L98.5459 43.2479" stroke="white" stroke-width="0.75" stroke-linecap="round" stroke-linejoin="round"/>
<path d="M168.117 98.5588L177.735 74.0028L159.38 66.8646" stroke="white" stroke-width="0.75" stroke-linecap="round" stroke-linejoin="round"/>
<path d="M113.577 161.888L49.036 136.833C46.9163 136.004 45.212 134.37 44.2967 132.289C43.3813 130.207 43.3296 127.849 44.1525 125.729L52.7427 103.494C53.297 101.94 53.4045 100.262 53.053 98.65C52.7015 97.0382 51.9051 95.5568 50.7539 94.3736C49.6027 93.1905 48.1426 92.3529 46.5393 91.9555C44.9358 91.5582 43.2529 91.6171 41.6814 92.1256C38.1007 93.3332 34.2492 93.4954 30.5794 92.5933C26.9096 91.691 23.5738 89.762 20.9638 87.0326C18.3537 84.3031 16.578 80.8867 15.845 77.1845C15.1118 73.4823 15.452 69.6482 16.8255 66.1323C18.1989 62.6166 20.5485 59.5649 23.5984 57.3363C26.6484 55.1075 30.2718 53.794 34.0432 53.5502C37.8148 53.3062 41.5778 54.142 44.89 55.9592C48.2024 57.7766 50.9265 60.5 52.7427 63.8095C56.163 70.0819 65.8169 69.9937 68.5358 62.9576L69.7125 59.932" stroke="white" stroke-width="0.75" stroke-linecap="round" stroke-linejoin="round"/>
<path d="M133.088 89.3078C134.26 89.0725 135.402 88.7095 136.494 88.2256L133.678 91.4182" stroke="white" stroke-width="0.75" stroke-linecap="round" stroke-linejoin="round"/>
<path d="M154.084 98.322C150.796 98.2518 147.55 97.5539 144.523 96.2657C142.557 95.2005 140.642 93.2694 140.728 86.4544C140.806 83.4401 141.111 80.4358 141.64 77.4672C145.729 76.1159 143.884 71.351 141.111 73.2078C140.09 73.8911 139.35 74.3163 139.169 73.2078C138.048 66.2953 132.787 64.454 129.492 70.6815L128.462 73.0609C126.078 79.7615 125.722 90.4618 133.087 89.3038C133.375 89.9797 133.571 90.6909 133.669 91.4188C133.708 92.1532 132.903 96.0879 132.022 96.5888C130.224 97.6123 127.109 98.5864 121.52 98.322" stroke="white" stroke-width="0.75" stroke-linecap="round" stroke-linejoin="round"/>
<path d="M219.696 114.904C235.782 113.499 238.907 112.529 249.27 110.983C250.329 110.837 251.566 110.605 252.976 110.308C258.187 109.207 258.566 107.525 252.476 107.605C249.384 107.646 246.303 107.24 243.327 106.401" stroke="white" stroke-width="0.75" stroke-linecap="round" stroke-linejoin="round"/>
<path d="M245.542 106.934C245.572 107.081 249.427 105.907 254.103 104.46C259.339 102.846 259.662 100.72 253.309 101.611C250.107 102.219 246.823 102.278 243.601 101.787" stroke="white" stroke-width="0.75" stroke-linecap="round" stroke-linejoin="round"/>
<path d="M242.483 98.1767C242.483 98.1767 253.983 94.998 254.69 94.7754C260.11 93.0237 260.927 94.9825 256.309 97.4485C252.072 99.7104 246.424 102.087 246.424 102.087" stroke="white" stroke-width="0.75" stroke-linecap="round" stroke-linejoin="round"/>
<path d="M217.652 96.5808C217.333 96.6129 217.1 96.8974 217.133 97.2159C217.165 97.5345 217.45 97.7666 217.769 97.7345L217.652 96.5808ZM225.127 96.414V96.9937C225.141 96.9937 225.153 96.9933 225.167 96.9923L225.127 96.414ZM230.334 92.7421L230.907 92.8379L230.334 92.7421ZM232.717 84.987L232.808 84.4144H232.807L232.717 84.987ZM235.865 94.6515L236.339 94.3156V94.3155L235.865 94.6515ZM240.248 94.2108L240.471 94.7459L240.473 94.7454L240.248 94.2108ZM248.366 90.7152L248.123 90.1888L248.121 90.1892L248.366 90.7152ZM250.131 93.0946L250.432 93.5906L250.444 93.5831L250.131 93.0946ZM244.156 97.2009C243.938 97.435 243.95 97.8019 244.184 98.0203C244.418 98.2389 244.786 98.2264 245.005 97.9925L244.156 97.2009ZM217.71 97.1576C217.769 97.7345 217.769 97.7345 217.769 97.7345C217.769 97.7343 217.769 97.7343 217.771 97.7343C217.771 97.7341 217.772 97.734 217.774 97.7338C217.779 97.7335 217.783 97.7331 217.789 97.7323C217.803 97.7309 217.825 97.7287 217.851 97.7261C217.906 97.7207 217.984 97.7127 218.085 97.7025C218.286 97.6822 218.574 97.6531 218.92 97.6182C219.61 97.5485 220.532 97.4555 221.454 97.3626C222.379 97.2697 223.303 97.1768 224.001 97.1071C224.35 97.0721 224.642 97.0432 224.848 97.0228C224.952 97.0127 225.033 97.0049 225.09 96.9995C225.118 96.9967 225.138 96.9948 225.153 96.9934C225.189 96.9902 225.16 96.9937 225.127 96.9937V95.8342C225.112 95.8342 225.099 95.8348 225.098 95.835C225.091 95.8351 225.088 95.8354 225.085 95.8356C225.081 95.8359 225.076 95.8364 225.073 95.8365C225.065 95.8371 225.057 95.8379 225.048 95.8387C225.031 95.8402 225.008 95.8424 224.978 95.8452C224.921 95.8507 224.837 95.8588 224.735 95.869C224.528 95.8892 224.235 95.9183 223.885 95.9532C223.187 96.023 222.263 96.1159 221.338 96.209C220.415 96.3019 219.494 96.3948 218.802 96.4645C218.457 96.4995 218.17 96.5285 217.969 96.5488C217.868 96.559 217.788 96.567 217.735 96.5724C217.707 96.5751 217.687 96.5772 217.673 96.5786C217.666 96.5794 217.661 96.5798 217.658 96.5802C217.656 96.5805 217.655 96.5805 217.653 96.5806C217.653 96.5806 217.653 96.5808 217.652 96.5808C217.652 96.5808 217.652 96.5808 217.71 97.1576ZM225.167 96.9923C226.356 96.911 227.676 96.4226 228.741 95.7102C229.791 95.0081 230.71 94.0083 230.907 92.8379L229.761 92.6462C229.642 93.3572 229.032 94.1199 228.095 94.7467C227.172 95.3633 226.045 95.77 225.087 95.8356L225.167 96.9923ZM230.907 92.8379C231.045 92.0193 231.161 91.1012 231.283 90.2107C231.406 89.3121 231.532 88.4377 231.69 87.6761C231.85 86.9026 232.033 86.3004 232.245 85.9182C232.461 85.528 232.59 85.554 232.627 85.5597L232.807 84.4144C232.034 84.2925 231.528 84.8205 231.231 85.3561C230.929 85.8997 230.718 86.6467 230.552 87.4405C230.385 88.246 230.254 89.1564 230.131 90.0546C230.009 90.9604 229.894 91.8508 229.761 92.6462L230.907 92.8379ZM232.626 85.5595C232.934 85.6085 233.228 85.8619 233.49 86.5472C233.747 87.2206 233.903 88.1379 234.038 89.1801C234.169 90.1935 234.282 91.3285 234.462 92.3296C234.64 93.3208 234.902 94.2997 235.391 94.9873L236.339 94.3155C236.009 93.8537 235.781 93.0992 235.605 92.1247C235.431 91.16 235.327 90.0968 235.19 89.0309C235.055 87.994 234.886 86.9508 234.575 86.1344C234.268 85.3296 233.748 84.5634 232.808 84.4144L232.626 85.5595ZM235.391 94.9873C235.687 95.4031 236.195 95.522 236.588 95.5556C237.014 95.5918 237.5 95.5446 237.969 95.4639C238.909 95.302 239.906 94.9811 240.471 94.7459L240.025 93.6756C239.531 93.8812 238.618 94.1756 237.771 94.3212C237.347 94.3945 236.97 94.4243 236.687 94.4002C236.373 94.3735 236.323 94.2948 236.339 94.3156L235.391 94.9873ZM240.473 94.7454C242.208 94.0177 248.039 91.506 248.611 91.241L248.121 90.1892C247.572 90.4438 241.762 92.9475 240.024 93.6762L240.473 94.7454ZM248.609 91.2416C249.887 90.6533 250.847 90.3633 251.497 90.2789C251.824 90.2365 252.039 90.2506 252.164 90.2818C252.286 90.3121 252.266 90.3415 252.24 90.2926C252.215 90.2466 252.249 90.2497 252.209 90.3706C252.169 90.4919 252.071 90.6733 251.879 90.9091C251.497 91.3778 250.82 91.9669 249.818 92.6059L250.444 93.5831C251.505 92.9066 252.291 92.2401 252.78 91.641C253.023 91.3427 253.212 91.0369 253.311 90.7339C253.412 90.4304 253.44 90.0719 253.262 89.7427C253.082 89.4108 252.765 89.2358 252.443 89.1563C252.125 89.0776 251.752 89.0764 251.347 89.1291C250.532 89.2347 249.453 89.5765 248.123 90.1888L248.609 91.2416ZM249.831 92.5988C247.736 93.8657 245.827 95.4144 244.156 97.2009L245.005 97.9925C246.602 96.2836 248.43 94.8023 250.432 93.5904L249.831 92.5988Z" fill="white"/>
<path d="M241.483 95.8834C243.422 99.5734 243.993 103.828 243.1 107.898" stroke="white" stroke-width="0.75" stroke-linecap="round" stroke-linejoin="round"/>
<path d="M238.689 98.2055C238.306 102.964 236.212 106.254 231.746 107.136" stroke="white" stroke-width="0.75" stroke-linecap="round" stroke-linejoin="round"/>
<path d="M154.79 123.496C155.354 121.013 156.081 118.569 156.967 116.182L162.104 123.672" stroke="white" stroke-width="0.75" stroke-linecap="round" stroke-linejoin="round"/>
<path d="M141.806 180.444L136.288 162.153L144.818 176.752" stroke="white" stroke-width="0.75" stroke-linecap="round" stroke-linejoin="round"/>
<path d="M125.079 146.849C94.7211 186.387 77.5454 211.088 37.4434 248.395C31.4048 254.018 48.9862 273.257 55.0944 267.751L65.6232 258.265C94.1947 232.475 112.635 215.379 135.226 188.443C135.226 188.443 143.814 178.015 144.815 176.752L160.024 202.806C161.704 205.696 164.234 207.999 167.27 209.403C170.308 210.805 173.704 211.241 176.997 210.649L236.453 199.981C241.778 199.095 237.368 174.45 231.952 175.399L179.059 183.272C179.059 183.272 174.945 165.183 174.259 162.063C173.036 156.386 170.294 151.144 166.327 146.897C162.359 142.65 157.314 139.557 151.726 137.944" stroke="white" stroke-width="0.75" stroke-linecap="round" stroke-linejoin="round"/>
<path d="M129.496 70.6523C132.614 64.5422 138.322 59.6088 147.675 70.2998C157.676 81.7267 140.732 86.4839 140.732 86.4839" stroke="white" stroke-width="0.75" stroke-linecap="round" stroke-linejoin="round"/>
<path d="M158.497 67.6856C155.026 71.2987 149.591 71.7316 146.347 68.6256C143.104 65.5195 143.288 60.0774 146.759 56.4643C150.231 52.8511 155.665 52.4182 158.909 55.5242C162.153 58.6303 161.969 64.0724 158.497 67.6856Z" stroke="white" stroke-width="0.75" stroke-linecap="round" stroke-linejoin="round"/>
<path d="M49.4468 268.103C47.1522 270.422 45.353 272.407 42.9747 273.155C40.8566 273.772 38.6383 273.972 36.4438 273.743C27.1755 273.006 8.70995 281.203 8.08597 276.181C7.91101 274.771 13.5872 270.6 20.2946 266.132C24.5309 263.312 30.9441 258.437 36.5909 254.001" stroke="white" stroke-width="0.75" stroke-linecap="round" stroke-linejoin="round"/>
<path d="M235.306 177.984C239.042 177.015 241.923 175.933 244.659 176.574C246.791 177.116 248.798 178.06 250.572 179.357C258.184 184.673 278.267 186.958 276.284 191.605C275.72 192.926 268.697 193.634 260.663 194.102C255.132 194.427 246.189 195.512 238.63 196.576" stroke="white" stroke-width="0.75" stroke-linecap="round" stroke-linejoin="round"/>
<path d="M220.679 93.9181C221.781 93.8269 222.976 94.6912 224.037 96.5279" stroke="white" stroke-width="0.75" stroke-linecap="round" stroke-linejoin="round"/>
<path d="M225.215 114.391C224.567 115.801 223.685 116.682 222.685 116.77" stroke="white" stroke-width="0.75" stroke-linecap="round" stroke-linejoin="round"/>
<path d="M185.649 37.9594C185.692 38.2198 185.634 38.4871 185.485 38.705C185.335 38.9228 185.106 39.0743 184.847 39.1275C184.588 39.1807 184.319 39.1317 184.095 38.9905C183.872 38.8494 183.712 38.6272 183.649 38.3707L181.148 26.1568C181.094 25.8957 181.145 25.6237 181.291 25.4006C181.438 25.1775 181.667 25.0215 181.928 24.9671C182.189 24.9125 182.461 24.9639 182.686 25.1098C182.909 25.2559 183.065 25.4844 183.119 25.7456L185.649 37.9594Z" stroke="white" stroke-width="0.75" stroke-linecap="round" stroke-linejoin="round"/>
<path d="M180.677 18.8371L182.148 25.9459" stroke="white" stroke-width="0.75" stroke-linecap="round" stroke-linejoin="round"/>
<path d="M177.059 1.18348C175.311 1.54096 173.708 2.40799 172.454 3.67484C171.198 4.94183 170.348 6.55175 170.011 8.30111C169.672 10.0505 169.861 11.8608 170.553 13.503C171.245 15.1452 172.409 16.5456 173.899 17.5274C175.387 18.509 177.135 19.0277 178.918 19.0179C180.704 19.0082 182.444 18.4703 183.923 17.4723C185.401 16.4745 186.549 15.0614 187.224 13.4116C187.897 11.762 188.066 9.94968 187.708 8.20417C187.471 7.04478 187.007 5.94337 186.344 4.96301C185.68 3.98266 184.83 3.14253 183.841 2.49055C182.851 1.83858 181.744 1.38749 180.58 1.16323C179.417 0.938974 178.22 0.945853 177.059 1.18348Z" stroke="white" stroke-width="0.75" stroke-linecap="round" stroke-linejoin="round"/>
<path d="M285.285 166.028L281.843 165" stroke="white" stroke-width="0.75" stroke-linecap="round" stroke-linejoin="round"/>
<path d="M289.462 163.739L290.462 160.302" stroke="white" stroke-width="0.75" stroke-linecap="round" stroke-linejoin="round"/>
<path d="M286.55 173.608L287.579 170.2" stroke="white" stroke-width="0.75" stroke-linecap="round" stroke-linejoin="round"/>
<path d="M291.756 167.908L295.168 168.907" stroke="white" stroke-width="0.75" stroke-linecap="round" stroke-linejoin="round"/>
<path d="M291.763 167.909C290.905 167.657 290.184 167.078 289.754 166.295C289.323 165.513 289.221 164.593 289.469 163.735C289.216 164.591 288.636 165.312 287.852 165.742C287.069 166.172 286.147 166.274 285.288 166.026C286.146 166.278 286.867 166.858 287.298 167.64C287.728 168.423 287.83 169.343 287.583 170.201C287.835 169.344 288.416 168.624 289.199 168.194C289.983 167.764 290.904 167.662 291.763 167.909Z" stroke="white" stroke-width="0.75" stroke-linecap="round" stroke-linejoin="round"/>
<path d="M73.0981 70.4463C71.3313 66.2126 70.0293 61.8001 69.2148 57.2863" stroke="white" stroke-width="0.75" stroke-linecap="round" stroke-linejoin="round"/>
<path d="M79.6294 55.0262L58.685 59.5206C57.7097 59.7309 56.6907 59.5457 55.8521 59.0058C55.0135 58.4659 54.4241 57.6156 54.2134 56.6419L45.3584 15.4301L58.126 12.6982C58.8384 12.5515 59.5777 12.6113 60.2572 12.8704C60.9366 13.1297 61.5276 13.5774 61.9605 14.1611C62.3934 14.7446 62.6503 15.4397 62.7006 16.1641C62.7509 16.8886 62.5927 17.6123 62.2446 18.2501C61.4653 19.715 61.1211 21.3714 61.2526 23.0249C61.3839 24.6785 61.9854 26.2602 62.9863 27.5841C63.9871 28.9079 65.3456 29.919 66.9022 30.4981C68.4587 31.0774 70.1486 31.2008 71.7729 30.854C73.3975 30.5071 74.8888 29.7042 76.0721 28.5399C77.2552 27.3756 78.0807 25.8981 78.4517 24.2813C78.8227 22.6646 78.7236 20.9755 78.166 19.413C77.6086 17.8504 76.616 16.4794 75.3049 15.461C74.7297 15.0193 74.2918 14.4236 74.0425 13.7432C73.7932 13.0627 73.7427 12.3256 73.897 11.6175C74.051 10.9095 74.4036 10.2597 74.9131 9.74413C75.4229 9.22836 76.0688 8.86798 76.7758 8.70471L90.4554 5.73782L99.3398 46.9481C99.5503 47.9218 99.3649 48.9392 98.8242 49.7766C98.2836 50.6139 97.4321 51.2025 96.4568 51.4131L83.7774 54.145" stroke="white" stroke-width="0.75" stroke-linecap="round" stroke-linejoin="round"/>
<path d="M78.7466 66.687C77.0698 64.6308 76.5108 59.6664 79.4527 57.4107C79.4527 57.4107 79.8444 49.1052 81.2766 47.219C82.7088 45.3328 83.5109 53.1466 84.1302 56.112C84.5374 58.0523 85.6011 62.5451 86.6602 66.2464" stroke="white" stroke-width="0.75" stroke-linecap="round" stroke-linejoin="round"/>
<path d="M112.854 123.168L117.519 111.882C115.99 115.515 115.482 119.495 116.048 123.395" stroke="white" stroke-width="0.75" stroke-linecap="round" stroke-linejoin="round"/>
<path d="M220.678 93.9183C194.911 97.2655 168.586 99.4687 154.084 98.323C142.434 101.202 131.492 101.525 121.519 98.323C116.371 98.088 109.164 96.7368 99.0158 93.3586L90.6903 66.8638C89.8078 63.985 69.3913 70.2126 70.2739 73.0913L83.777 114.861C93.7983 119.981 104.803 122.895 116.048 123.408C116.754 128.46 119.195 135.599 125.079 146.849C131.404 150.609 145.053 145.234 151.556 138.477C152.703 133.19 153.733 127.932 154.792 123.498C177.613 124.269 200.434 122.007 222.657 116.771C216.594 117.293 214.5 94.4393 220.678 93.9183Z" stroke="white" stroke-width="0.75" stroke-linecap="round" stroke-linejoin="round"/>
<path d="M44.6472 241.521C40.0285 245.541 57.4984 265.485 62.0924 261.495" stroke="white" stroke-width="0.75" stroke-linecap="round" stroke-linejoin="round"/>
<path d="M221.185 177.016C225.244 176.282 229.775 201.19 225.715 201.925" stroke="white" stroke-width="0.75" stroke-linecap="round" stroke-linejoin="round"/>
<path d="M203.27 246.721L192.149 275.301" stroke="white" stroke-width="0.75" stroke-linecap="round" stroke-linejoin="round"/>
<path d="M212.036 266.545L183.384 255.472" stroke="white" stroke-width="0.75" stroke-linecap="round" stroke-linejoin="round"/>
<path d="M4.26183 147.876C4.8502 146.202 5.90927 145.203 8.96877 143.118C15.4455 138.702 14.2331 133.639 10.4103 132.131C9.73458 131.871 9.00981 131.761 8.28709 131.811C7.56438 131.86 6.86133 132.067 6.22744 132.417C5.59355 132.767 5.04424 133.252 4.61823 133.837C4.1922 134.422 3.89985 135.093 3.76172 135.803" stroke="white" stroke-width="0.75" stroke-linecap="round" stroke-linejoin="round"/>
<path d="M52.9775 257.676C82.9534 229.635 111.466 200.076 138.404 169.113" stroke="white" stroke-width="0.75" stroke-linecap="round" stroke-linejoin="round"/>
<path d="M144.825 143.618C144.825 143.618 160.559 150.551 162.035 163.151C162.856 170.172 167.507 184.683 169.978 192.084C170.405 193.367 171.268 194.463 172.417 195.181C173.566 195.9 174.928 196.196 176.272 196.02L226.605 189.44" stroke="white" stroke-width="0.75" stroke-linecap="round" stroke-linejoin="round"/>
</svg>
