<svg width="296" height="348" viewBox="0 0 296 348" fill="none" xmlns="http://www.w3.org/2000/svg">
<path d="M127.732 215.274C127.101 215.274 126.413 215.07 125.71 214.665L112.762 207.189C112.509 207.043 112.423 206.719 112.569 206.466C112.715 206.214 113.039 206.127 113.291 206.273L126.239 213.749C127.118 214.257 127.919 214.356 128.492 214.024C129.065 213.694 129.38 212.952 129.38 211.935V208.813C129.38 207.403 129.883 206.335 130.797 205.809C131.71 205.281 132.885 205.379 134.106 206.085L136.811 207.645C137.063 207.791 137.15 208.115 137.004 208.367C136.859 208.621 136.537 208.709 136.282 208.561L133.577 207.001C132.697 206.491 131.897 206.393 131.324 206.725C130.752 207.055 130.436 207.797 130.436 208.814V211.936C130.436 213.346 129.933 214.413 129.02 214.94C128.632 215.163 128.197 215.274 127.732 215.274Z" fill="#42E8E0"/>
<path d="M122.696 218.171C122.065 218.171 121.377 217.966 120.674 217.56L107.727 210.086C107.474 209.939 107.388 209.616 107.534 209.364C107.68 209.11 108.003 209.025 108.256 209.17L121.203 216.645C122.083 217.156 122.883 217.253 123.456 216.921C124.029 216.59 124.344 215.849 124.344 214.832V211.709C124.344 210.3 124.847 209.233 125.76 208.706C126.674 208.178 127.849 208.277 129.07 208.98L131.774 210.542C132.027 210.688 132.113 211.012 131.967 211.265C131.821 211.517 131.497 211.604 131.245 211.458L128.541 209.896C127.659 209.387 126.861 209.29 126.288 209.621C125.716 209.951 125.4 210.693 125.4 211.709V214.832C125.4 216.242 124.897 217.309 123.983 217.836C123.596 218.06 123.161 218.171 122.696 218.171Z" fill="#42E8E0"/>
<path d="M117.66 221.068C117.029 221.068 116.341 220.864 115.638 220.459L102.69 212.983C102.437 212.837 102.351 212.513 102.497 212.26C102.643 212.007 102.966 211.922 103.219 212.067L116.167 219.543C117.048 220.053 117.847 220.15 118.42 219.818C118.992 219.488 119.308 218.746 119.308 217.729V214.607C119.308 213.197 119.811 212.13 120.725 211.603C121.638 211.077 122.813 211.174 124.035 211.879L126.739 213.438C126.991 213.585 127.078 213.908 126.932 214.16C126.787 214.414 126.463 214.5 126.21 214.354L123.506 212.793C122.626 212.283 121.825 212.185 121.253 212.517C120.68 212.847 120.365 213.589 120.365 214.606V217.728C120.365 219.138 119.862 220.205 118.949 220.732C118.56 220.957 118.125 221.068 117.66 221.068Z" fill="#42E8E0"/>
<path d="M112.625 223.965C111.994 223.965 111.306 223.76 110.603 223.354L97.6547 215.88C97.4017 215.734 97.3157 215.41 97.4617 215.158C97.6077 214.905 97.9307 214.818 98.1837 214.964L111.132 222.439C112.013 222.949 112.812 223.047 113.385 222.715C113.958 222.384 114.273 221.643 114.273 220.626V217.503C114.273 216.094 114.776 215.026 115.689 214.5C116.603 213.972 117.778 214.07 118.999 214.774L121.703 216.336C121.956 216.482 122.042 216.806 121.896 217.059C121.75 217.311 121.427 217.398 121.174 217.252L118.469 215.691C117.59 215.183 116.788 215.085 116.216 215.416C115.644 215.746 115.328 216.487 115.328 217.504V220.627C115.328 222.037 114.825 223.104 113.911 223.631C113.525 223.854 113.09 223.965 112.625 223.965Z" fill="#42E8E0"/>
<path d="M107.589 226.862C106.958 226.862 106.27 226.658 105.567 226.253L92.6195 218.777C92.3665 218.631 92.2806 218.307 92.4266 218.054C92.5726 217.802 92.8976 217.716 93.1486 217.861L106.096 225.337C106.976 225.846 107.777 225.944 108.349 225.612C108.922 225.282 109.237 224.54 109.237 223.523V220.401C109.237 218.991 109.74 217.924 110.653 217.397C111.567 216.871 112.742 216.968 113.963 217.673L116.667 219.233C116.92 219.38 117.006 219.703 116.86 219.955C116.714 220.208 116.392 220.295 116.138 220.149L113.434 218.588C112.554 218.078 111.752 217.98 111.181 218.312C110.608 218.642 110.293 219.384 110.293 220.401V223.523C110.293 224.933 109.79 226 108.877 226.527C108.489 226.751 108.054 226.862 107.589 226.862Z" fill="#42E8E0"/>
<path d="M102.552 229.758C101.921 229.758 101.233 229.554 100.53 229.149L87.5824 221.673C87.3294 221.527 87.2434 221.203 87.3894 220.95C87.5354 220.698 87.8604 220.612 88.1114 220.757L101.059 228.233C101.938 228.741 102.74 228.839 103.312 228.508C103.884 228.178 104.2 227.437 104.2 226.42V223.297C104.2 221.888 104.703 220.822 105.616 220.294C106.531 219.766 107.705 219.865 108.926 220.568L111.63 222.13C111.883 222.276 111.969 222.6 111.823 222.853C111.677 223.105 111.352 223.191 111.101 223.046L108.397 221.484C107.515 220.975 106.717 220.877 106.143 221.209C105.571 221.539 105.255 222.281 105.255 223.297V226.42C105.255 227.829 104.752 228.897 103.839 229.423C103.452 229.648 103.017 229.758 102.552 229.758Z" fill="#42E8E0"/>
<path d="M97.5173 232.655C96.8863 232.655 96.1983 232.451 95.4953 232.046L82.5473 224.57C82.2943 224.424 82.2083 224.1 82.3543 223.847C82.5003 223.595 82.8253 223.508 83.0763 223.654L96.0243 231.13C96.9033 231.639 97.7043 231.737 98.2773 231.405C98.8503 231.075 99.1653 230.333 99.1653 229.316V226.194C99.1653 224.784 99.6683 223.717 100.581 223.19C101.495 222.662 102.671 222.76 103.89 223.464L106.595 225.026C106.848 225.172 106.934 225.496 106.788 225.749C106.642 226.001 106.318 226.088 106.066 225.942L103.361 224.38C102.481 223.872 101.681 223.774 101.108 224.105C100.536 224.435 100.22 225.177 100.22 226.194V229.316C100.22 230.726 99.7173 231.793 98.8043 232.32C98.4173 232.545 97.9823 232.655 97.5173 232.655Z" fill="#42E8E0"/>
<path d="M92.4811 235.552C91.8501 235.553 91.1621 235.348 90.4591 234.943L77.5121 227.467C77.2591 227.32 77.1731 226.997 77.3191 226.744C77.4641 226.492 77.7891 226.405 78.0411 226.551L90.9881 234.027C91.8671 234.535 92.6681 234.632 93.2411 234.302C93.8131 233.972 94.1291 233.23 94.1291 232.214V229.091C94.1291 227.682 94.6321 226.615 95.5451 226.088C96.4601 225.56 97.6351 225.658 98.8551 226.362L101.559 227.923C101.812 228.069 101.898 228.393 101.752 228.646C101.606 228.898 101.282 228.984 101.03 228.839L98.3261 227.278C97.4441 226.768 96.6451 226.671 96.0731 227.003C95.5011 227.333 95.1851 228.075 95.1851 229.091V232.214C95.1851 233.623 94.6821 234.69 93.7691 235.217C93.3811 235.442 92.9461 235.552 92.4811 235.552Z" fill="#42E8E0"/>
<path d="M87.445 238.449C86.814 238.449 86.126 238.245 85.423 237.84L72.475 230.364C72.222 230.217 72.136 229.894 72.282 229.641C72.428 229.389 72.752 229.302 73.004 229.448L85.952 236.924C86.833 237.434 87.633 237.531 88.205 237.199C88.777 236.869 89.093 236.127 89.093 235.11V231.988C89.093 230.578 89.596 229.511 90.509 228.984C91.423 228.456 92.598 228.555 93.819 229.259L96.523 230.82C96.776 230.967 96.862 231.29 96.716 231.543C96.57 231.795 96.246 231.881 95.994 231.736L93.29 230.175C92.411 229.667 91.61 229.568 91.037 229.9C90.464 230.23 90.149 230.972 90.149 231.989V235.111C90.149 236.521 89.646 237.588 88.733 238.115C88.345 238.339 87.911 238.449 87.445 238.449Z" fill="#42E8E0"/>
<path d="M82.4079 241.347C81.7769 241.348 81.0889 241.142 80.3859 240.737L67.4379 233.262C67.1849 233.116 67.0989 232.791 67.2449 232.538C67.3899 232.286 67.7149 232.199 67.9669 232.345L80.9149 239.822C81.7939 240.33 82.5939 240.427 83.1689 240.097C83.7409 239.767 84.0569 239.024 84.0569 238.008V234.886C84.0569 233.477 84.5599 232.409 85.4729 231.883C86.3859 231.354 87.5609 231.453 88.7819 232.156L91.4869 233.718C91.7399 233.865 91.8259 234.187 91.6799 234.44C91.5339 234.692 91.2099 234.778 90.9579 234.633L88.2529 233.072C87.3729 232.563 86.5719 232.466 85.9999 232.797C85.4279 233.127 85.1119 233.867 85.1119 234.884V238.008C85.1119 239.417 84.6089 240.484 83.6959 241.011C83.3079 241.236 82.8729 241.347 82.4079 241.347Z" fill="#42E8E0"/>
<path d="M77.3718 244.243C76.7408 244.243 76.0528 244.038 75.3498 243.632L62.4027 236.158C62.1497 236.011 62.0638 235.688 62.2098 235.436C62.3558 235.183 62.6798 235.096 62.9318 235.242L75.8788 242.717C76.7588 243.227 77.5608 243.325 78.1318 242.993C78.7048 242.663 79.0198 241.921 79.0198 240.904V237.782C79.0198 236.372 79.5228 235.305 80.4358 234.778C81.3498 234.249 82.5248 234.348 83.7458 235.052L86.4498 236.613C86.7028 236.759 86.7888 237.083 86.6428 237.336C86.4968 237.589 86.1728 237.674 85.9208 237.529L83.2168 235.968C82.3378 235.46 81.5358 235.362 80.9638 235.693C80.3908 236.023 80.0758 236.765 80.0758 237.782V240.904C80.0758 242.314 79.5728 243.381 78.6598 243.908C78.2718 244.132 77.8378 244.243 77.3718 244.243Z" fill="#42E8E0"/>
<path d="M72.3357 247.14C71.7047 247.14 71.0166 246.936 70.3136 246.531L57.3657 239.056C57.1127 238.91 57.0266 238.586 57.1726 238.333C57.3186 238.081 57.6426 237.994 57.8946 238.14L70.8426 245.616C71.7226 246.124 72.5236 246.223 73.0956 245.891C73.6676 245.561 73.9836 244.82 73.9836 243.803V240.68C73.9836 239.27 74.4866 238.203 75.3996 237.676C76.3136 237.149 77.4886 237.247 78.7096 237.952L81.4136 239.513C81.6666 239.66 81.7526 239.983 81.6066 240.236C81.4606 240.488 81.1366 240.575 80.8846 240.429L78.1806 238.867C77.3006 238.357 76.4996 238.259 75.9276 238.591C75.3546 238.922 75.0396 239.663 75.0396 240.68V243.803C75.0396 245.212 74.5366 246.28 73.6236 246.806C73.2366 247.03 72.8017 247.14 72.3357 247.14Z" fill="#42E8E0"/>
<path d="M67.3015 250.037C66.6705 250.037 65.9825 249.832 65.2785 249.426L52.3305 241.952C52.0775 241.806 51.9915 241.482 52.1375 241.23C52.2835 240.976 52.6075 240.891 52.8595 241.036L65.8075 248.511C66.6875 249.021 67.4895 249.118 68.0605 248.787C68.6335 248.457 68.9485 247.715 68.9485 246.698V243.576C68.9485 242.166 69.4515 241.099 70.3645 240.572C71.2785 240.043 72.4535 240.143 73.6735 240.846L76.3785 242.408C76.6315 242.554 76.7175 242.878 76.5715 243.131C76.4255 243.383 76.1015 243.47 75.8495 243.324L73.1445 241.763C72.2645 241.254 71.4655 241.158 70.8915 241.488C70.3195 241.818 70.0035 242.56 70.0035 243.577V246.699C70.0035 248.109 69.5005 249.176 68.5865 249.703C68.2015 249.926 67.7665 250.037 67.3015 250.037Z" fill="#42E8E0"/>
<path d="M62.2643 252.934C61.6333 252.934 60.9453 252.73 60.2423 252.325L47.2953 244.849C47.0423 244.702 46.9563 244.379 47.1023 244.126C47.2483 243.873 47.5723 243.788 47.8243 243.933L60.7713 251.409C61.6503 251.917 62.4513 252.016 63.0243 251.684C63.5973 251.354 63.9123 250.612 63.9123 249.595V246.473C63.9123 245.063 64.4153 243.996 65.3293 243.469C66.2423 242.943 67.4173 243.04 68.6393 243.745L71.3433 245.305C71.5953 245.451 71.6823 245.775 71.5363 246.027C71.3903 246.28 71.0673 246.367 70.8143 246.221L68.1103 244.66C67.2293 244.15 66.4293 244.052 65.8573 244.384C65.2843 244.714 64.9693 245.456 64.9693 246.473V249.595C64.9693 251.005 64.4663 252.072 63.5533 252.599C63.1643 252.823 62.7293 252.934 62.2643 252.934Z" fill="#42E8E0"/>
<path d="M57.2302 255.831C56.5992 255.831 55.9112 255.626 55.2082 255.22L42.2602 247.746C42.0072 247.599 41.9212 247.276 42.0672 247.024C42.2122 246.77 42.5372 246.685 42.7892 246.83L55.7372 254.305C56.6172 254.815 57.4172 254.912 57.9902 254.581C58.5622 254.251 58.8782 253.509 58.8782 252.492V249.37C58.8782 247.96 59.3812 246.893 60.2942 246.366C61.2082 245.837 62.3832 245.937 63.6042 246.64L66.3082 248.201C66.5612 248.348 66.6472 248.671 66.5012 248.924C66.3552 249.176 66.0312 249.263 65.7792 249.117L63.0752 247.555C62.1962 247.047 61.3952 246.949 60.8222 247.28C60.2492 247.61 59.9342 248.352 59.9342 249.369V252.491C59.9342 253.901 59.4312 254.969 58.5172 255.495C58.1292 255.72 57.6952 255.831 57.2302 255.831Z" fill="#42E8E0"/>
<path d="M52.1931 258.728C51.5621 258.728 50.8741 258.524 50.1711 258.119L37.2231 250.643C36.9701 250.497 36.8841 250.173 37.0301 249.92C37.1751 249.668 37.5001 249.582 37.7521 249.727L50.7001 257.203C51.5791 257.711 52.3811 257.81 52.9531 257.478C53.5261 257.148 53.8411 256.406 53.8411 255.389V252.267C53.8411 250.857 54.3441 249.789 55.2581 249.263C56.1711 248.735 57.3461 248.833 58.5671 249.539L61.2711 251.099C61.5231 251.245 61.6101 251.569 61.4641 251.821C61.3191 252.074 60.9951 252.161 60.7421 252.015L58.0381 250.455C57.1571 249.945 56.3571 249.847 55.7851 250.179C55.2131 250.509 54.8971 251.251 54.8971 252.268V255.39C54.8971 256.8 54.3941 257.867 53.4811 258.394C53.0941 258.617 52.6591 258.728 52.1931 258.728Z" fill="#42E8E0"/>
<path d="M47.1569 261.625C46.5259 261.625 45.8379 261.42 45.1349 261.014L32.1879 253.54C31.9349 253.393 31.8489 253.07 31.9949 252.818C32.1409 252.564 32.4659 252.478 32.7169 252.624L45.6639 260.099C46.5439 260.609 47.3439 260.706 47.9169 260.375C48.4899 260.044 48.8049 259.303 48.8049 258.286V255.163C48.8049 253.754 49.3079 252.686 50.2209 252.16C51.1339 251.632 52.3099 251.731 53.5309 252.434L56.2359 253.996C56.4889 254.142 56.5749 254.466 56.4289 254.719C56.2829 254.971 55.9579 255.058 55.7069 254.912L53.0019 253.351C52.1219 252.843 51.3219 252.744 50.7489 253.076C50.1769 253.406 49.8609 254.147 49.8609 255.164V258.287C49.8609 259.697 49.3579 260.764 48.4449 261.291C48.0569 261.514 47.6219 261.625 47.1569 261.625Z" fill="#42E8E0"/>
<path d="M42.1198 264.522C41.4888 264.522 40.8008 264.318 40.0978 263.913L27.1508 256.437C26.8978 256.291 26.8118 255.967 26.9578 255.714C27.1038 255.462 27.4288 255.375 27.6798 255.521L40.6268 262.997C41.5068 263.505 42.3068 263.604 42.8798 263.272C43.4528 262.942 43.7678 262.2 43.7678 261.183V258.061C43.7678 256.651 44.2708 255.584 45.1848 255.057C46.0978 254.531 47.2728 254.628 48.4938 255.333L51.1978 256.892C51.4508 257.039 51.5368 257.362 51.3908 257.614C51.2448 257.868 50.9218 257.954 50.6688 257.808L47.9648 256.247C47.0838 255.737 46.2838 255.64 45.7118 255.971C45.1388 256.301 44.8238 257.043 44.8238 258.06V261.182C44.8238 262.592 44.3208 263.659 43.4078 264.186C43.0198 264.411 42.5848 264.522 42.1198 264.522Z" fill="#42E8E0"/>
<path d="M37.0837 267.418C36.4527 267.418 35.7647 267.214 35.0617 266.809L22.1137 259.333C21.8607 259.186 21.7747 258.863 21.9207 258.61C22.0667 258.358 22.3897 258.272 22.6427 258.417L35.5907 265.892C36.4707 266.401 37.2707 266.5 37.8437 266.167C38.4157 265.837 38.7317 265.096 38.7317 264.079V260.956C38.7317 259.547 39.2347 258.48 40.1477 257.953C41.0617 257.425 42.2367 257.523 43.4577 258.227L46.1617 259.789C46.4147 259.935 46.5007 260.259 46.3547 260.512C46.2087 260.764 45.8837 260.85 45.6327 260.705L42.9287 259.144C42.0477 258.634 41.2477 258.537 40.6757 258.869C40.1037 259.199 39.7877 259.941 39.7877 260.957V264.08C39.7877 265.489 39.2847 266.557 38.3717 267.083C37.9847 267.308 37.5497 267.418 37.0837 267.418Z" fill="#42E8E0"/>
<path d="M32.0485 270.316C31.4175 270.316 30.7295 270.112 30.0265 269.707L17.0785 262.231C16.8255 262.085 16.7395 261.761 16.8855 261.508C17.0315 261.256 17.3545 261.169 17.6075 261.315L30.5555 268.791C31.4355 269.299 32.2365 269.397 32.8085 269.066C33.3815 268.736 33.6965 267.994 33.6965 266.977V263.855C33.6965 262.445 34.1995 261.378 35.1125 260.851C36.0265 260.323 37.2015 260.421 38.4225 261.125L41.1275 262.686C41.3805 262.833 41.4665 263.156 41.3205 263.409C41.1755 263.661 40.8505 263.747 40.5985 263.602L37.8945 262.04C37.0145 261.531 36.2155 261.435 35.6415 261.765C35.0695 262.095 34.7535 262.837 34.7535 263.854V266.976C34.7535 268.386 34.2505 269.453 33.3375 269.98C32.9495 270.205 32.5145 270.316 32.0485 270.316Z" fill="#42E8E0"/>
<path d="M148.366 215.51C147.9 215.51 147.466 215.4 147.078 215.175C146.165 214.648 145.662 213.581 145.662 212.172V209.049C145.662 208.033 145.347 207.291 144.774 206.961C144.202 206.629 143.4 206.728 142.52 207.236L139.817 208.797C139.56 208.943 139.241 208.854 139.094 208.604C138.948 208.351 139.035 208.028 139.287 207.881L141.991 206.32C143.214 205.616 144.389 205.517 145.302 206.046C146.215 206.573 146.718 207.64 146.718 209.049V212.172C146.718 213.188 147.033 213.93 147.606 214.26C148.178 214.591 148.978 214.492 149.86 213.985L162.806 206.51C163.063 206.363 163.381 206.452 163.529 206.703C163.674 206.956 163.588 207.279 163.336 207.426L150.389 214.902C149.685 215.306 148.996 215.51 148.366 215.51Z" fill="#42E8E0"/>
<path d="M153.4 218.407C152.935 218.407 152.501 218.296 152.113 218.072C151.2 217.545 150.697 216.478 150.697 215.068V211.946C150.697 210.929 150.382 210.187 149.809 209.857C149.234 209.525 148.435 209.624 147.556 210.132L144.852 211.694C144.594 211.839 144.276 211.751 144.129 211.501C143.983 211.248 144.07 210.925 144.322 210.778L147.026 209.217C148.247 208.515 149.422 208.413 150.336 208.943C151.249 209.47 151.752 210.537 151.752 211.947V215.069C151.752 216.086 152.067 216.828 152.64 217.158C153.21 217.488 154.011 217.39 154.893 216.883L167.841 209.407C168.093 209.261 168.415 209.347 168.563 209.601C168.708 209.853 168.622 210.176 168.369 210.323L155.422 217.798C154.719 218.202 154.032 218.407 153.4 218.407Z" fill="#42E8E0"/>
<path d="M158.438 221.304C157.973 221.304 157.539 221.194 157.151 220.97C156.238 220.443 155.735 219.375 155.735 217.966V214.843C155.735 213.827 155.42 213.085 154.847 212.755C154.275 212.423 153.473 212.522 152.594 213.03L149.89 214.592C149.632 214.738 149.313 214.65 149.167 214.399C149.021 214.146 149.108 213.823 149.36 213.676L152.064 212.114C153.286 211.41 154.46 211.31 155.375 211.84C156.288 212.367 156.791 213.434 156.791 214.843V217.966C156.791 218.983 157.106 219.724 157.679 220.054C158.25 220.384 159.051 220.287 159.931 219.779L172.879 212.303C173.135 212.155 173.454 212.245 173.602 212.496C173.747 212.749 173.661 213.072 173.409 213.219L160.461 220.695C159.757 221.1 159.07 221.304 158.438 221.304Z" fill="#42E8E0"/>
<path d="M163.474 224.201C163.008 224.201 162.574 224.09 162.187 223.866C161.273 223.339 160.77 222.272 160.77 220.862V217.74C160.77 216.723 160.455 215.981 159.882 215.651C159.31 215.319 158.509 215.418 157.63 215.926L154.924 217.488C154.672 217.633 154.35 217.548 154.202 217.294C154.056 217.042 154.143 216.719 154.396 216.572L157.101 215.01C158.322 214.306 159.497 214.208 160.41 214.735C161.323 215.262 161.826 216.33 161.826 217.74V220.862C161.826 221.879 162.142 222.621 162.714 222.951C163.287 223.282 164.089 223.184 164.967 222.676L177.916 215.2C178.169 215.053 178.491 215.141 178.638 215.394C178.783 215.646 178.697 215.969 178.444 216.116L165.496 223.591C164.793 223.996 164.105 224.201 163.474 224.201Z" fill="#42E8E0"/>
<path d="M168.509 227.098C168.043 227.099 167.609 226.988 167.221 226.763C166.308 226.236 165.805 225.169 165.805 223.76V220.637C165.805 219.62 165.49 218.879 164.917 218.548C164.344 218.216 163.542 218.316 162.664 218.823L159.96 220.386C159.703 220.532 159.384 220.444 159.237 220.193C159.091 219.94 159.178 219.617 159.43 219.47L162.134 217.909C163.357 217.206 164.532 217.108 165.445 217.634C166.358 218.161 166.861 219.228 166.861 220.638V223.761C166.861 224.777 167.176 225.519 167.749 225.849C168.32 226.179 169.121 226.081 170.003 225.574L182.949 218.098C183.206 217.952 183.524 218.04 183.672 218.291C183.818 218.544 183.731 218.867 183.479 219.014L170.532 226.49C169.829 226.894 169.141 227.098 168.509 227.098Z" fill="#42E8E0"/>
<path d="M173.545 229.994C173.08 229.994 172.646 229.883 172.258 229.659C171.345 229.132 170.842 228.065 170.842 226.655V223.533C170.842 222.516 170.526 221.774 169.954 221.444C169.381 221.112 168.58 221.213 167.7 221.719L164.997 223.28C164.739 223.426 164.421 223.338 164.274 223.087C164.128 222.834 164.215 222.511 164.467 222.364L167.171 220.803C168.394 220.099 169.569 220 170.482 220.528C171.395 221.055 171.898 222.122 171.898 223.532V226.654C171.898 227.671 172.213 228.413 172.786 228.743C173.357 229.073 174.157 228.975 175.039 228.468L187.987 220.992C188.239 220.846 188.561 220.933 188.709 221.186C188.855 221.438 188.768 221.761 188.515 221.908L175.568 229.383C174.865 229.789 174.177 229.994 173.545 229.994Z" fill="#42E8E0"/>
<path d="M178.581 232.892C178.115 232.892 177.681 232.782 177.293 232.557C176.38 232.03 175.877 230.963 175.877 229.553V226.431C175.877 225.414 175.562 224.672 174.989 224.342C174.416 224.01 173.617 224.108 172.736 224.618L170.031 226.179C169.777 226.327 169.456 226.238 169.309 225.985C169.163 225.733 169.25 225.41 169.503 225.263L172.207 223.702C173.428 222.999 174.603 222.899 175.517 223.427C176.43 223.954 176.933 225.021 176.933 226.431V229.553C176.933 230.57 177.249 231.312 177.821 231.642C178.395 231.975 179.196 231.874 180.075 231.367L193.021 223.891C193.277 223.744 193.596 223.832 193.744 224.084C193.89 224.337 193.803 224.66 193.551 224.807L180.604 232.283C179.901 232.688 179.212 232.892 178.581 232.892Z" fill="#42E8E0"/>
<path d="M183.617 235.789C183.152 235.789 182.717 235.678 182.33 235.454C181.417 234.927 180.914 233.86 180.914 232.45V229.328C180.914 228.311 180.599 227.569 180.026 227.239C179.451 226.907 178.652 227.006 177.773 227.514L175.069 229.075C174.811 229.221 174.492 229.133 174.346 228.882C174.2 228.629 174.287 228.306 174.539 228.159L177.243 226.598C178.464 225.895 179.641 225.795 180.554 226.324C181.467 226.851 181.97 227.918 181.97 229.328V232.45C181.97 233.467 182.285 234.209 182.858 234.539C183.429 234.869 184.229 234.771 185.111 234.263L198.059 226.788C198.312 226.641 198.634 226.729 198.781 226.982C198.927 227.234 198.84 227.557 198.587 227.704L185.64 235.179C184.936 235.584 184.248 235.789 183.617 235.789Z" fill="#42E8E0"/>
<path d="M188.653 238.686C188.187 238.686 187.753 238.576 187.365 238.352C186.452 237.825 185.949 236.757 185.949 235.347V232.225C185.949 231.208 185.633 230.466 185.061 230.136C184.488 229.804 183.686 229.904 182.808 230.411L180.103 231.972C179.849 232.119 179.528 232.031 179.381 231.778C179.235 231.526 179.322 231.203 179.575 231.056L182.279 229.496C183.5 228.792 184.677 228.695 185.588 229.221C186.502 229.748 187.005 230.815 187.005 232.225V235.347C187.005 236.364 187.32 237.106 187.893 237.436C188.465 237.766 189.265 237.668 190.145 237.161L203.093 229.685C203.349 229.539 203.669 229.626 203.816 229.878C203.962 230.131 203.875 230.454 203.623 230.601L190.675 238.076C189.971 238.482 189.284 238.686 188.653 238.686Z" fill="#42E8E0"/>
<path d="M193.69 241.583C193.225 241.583 192.791 241.472 192.403 241.248C191.489 240.721 190.986 239.654 190.986 238.244V235.121C190.986 234.104 190.671 233.363 190.098 233.033C189.526 232.701 188.725 232.8 187.846 233.308L185.14 234.869C184.885 235.015 184.565 234.927 184.418 234.675C184.273 234.423 184.359 234.1 184.612 233.953L187.317 232.391C188.536 231.688 189.712 231.588 190.626 232.116C191.539 232.643 192.042 233.711 192.042 235.12V238.243C192.042 239.26 192.357 240.001 192.931 240.332C193.501 240.662 194.303 240.564 195.183 240.057L208.132 232.581C208.385 232.433 208.707 232.522 208.854 232.775C209 233.027 208.913 233.35 208.66 233.497L195.712 240.972C195.009 241.378 194.322 241.583 193.69 241.583Z" fill="#42E8E0"/>
<path d="M198.726 244.48C198.261 244.48 197.826 244.37 197.438 244.145C196.525 243.618 196.022 242.551 196.022 241.141V238.019C196.022 237.002 195.707 236.26 195.134 235.93C194.562 235.598 193.761 235.696 192.881 236.206L190.176 237.767C189.923 237.914 189.601 237.826 189.454 237.573C189.308 237.321 189.395 236.998 189.648 236.851L192.352 235.29C193.574 234.587 194.748 234.488 195.662 235.015C196.575 235.542 197.078 236.609 197.078 238.019V241.141C197.078 242.158 197.393 242.9 197.966 243.23C198.54 243.56 199.339 243.463 200.219 242.955L213.166 235.479C213.422 235.332 213.741 235.421 213.889 235.672C214.035 235.925 213.948 236.248 213.696 236.395L200.749 243.871C200.045 244.276 199.358 244.48 198.726 244.48Z" fill="#42E8E0"/>
<path d="M203.76 247.376C203.294 247.376 202.86 247.266 202.472 247.041C201.559 246.514 201.056 245.447 201.056 244.038V240.915C201.056 239.899 200.741 239.157 200.168 238.827C199.596 238.495 198.794 238.594 197.914 239.102L195.211 240.663C194.953 240.808 194.634 240.721 194.488 240.47C194.343 240.217 194.429 239.894 194.681 239.747L197.385 238.186C198.609 237.482 199.783 237.384 200.695 237.912C201.608 238.439 202.111 239.506 202.111 240.915V244.038C202.111 245.054 202.426 245.796 202.999 246.126C203.57 246.456 204.372 246.359 205.253 245.851L218.199 238.375C218.455 238.228 218.775 238.316 218.922 238.568C219.068 238.821 218.981 239.144 218.729 239.291L205.782 246.767C205.079 247.172 204.391 247.376 203.76 247.376Z" fill="#42E8E0"/>
<path d="M208.798 250.274C208.332 250.274 207.897 250.164 207.509 249.939C206.596 249.412 206.093 248.345 206.093 246.935V243.813C206.093 242.796 205.778 242.054 205.205 241.724C204.633 241.393 203.83 241.493 202.951 241.999L200.248 243.56C199.991 243.706 199.671 243.618 199.525 243.367C199.38 243.114 199.466 242.791 199.718 242.644L202.423 241.083C203.646 240.379 204.82 240.28 205.733 240.809C206.646 241.336 207.149 242.403 207.149 243.813V246.935C207.149 247.952 207.464 248.694 208.037 249.024C208.611 249.357 209.413 249.257 210.291 248.749L223.237 241.273C223.493 241.126 223.813 241.214 223.96 241.466C224.106 241.719 224.02 242.042 223.768 242.189L210.82 249.664C210.117 250.07 209.429 250.274 208.798 250.274Z" fill="#42E8E0"/>
<path d="M213.833 253.17C213.367 253.17 212.933 253.06 212.545 252.835C211.632 252.308 211.129 251.241 211.129 249.832V246.709C211.129 245.693 210.814 244.951 210.241 244.621C209.668 244.289 208.868 244.388 207.987 244.896L205.284 246.458C205.027 246.603 204.708 246.516 204.561 246.265C204.415 246.012 204.502 245.689 204.754 245.542L207.458 243.98C208.681 243.276 209.856 243.177 210.769 243.706C211.682 244.233 212.185 245.3 212.185 246.709V249.832C212.185 250.848 212.5 251.59 213.073 251.92C213.644 252.25 214.446 252.153 215.327 251.645L228.273 244.169C228.528 244.022 228.849 244.111 228.996 244.362C229.142 244.615 229.055 244.938 228.803 245.085L215.856 252.561C215.153 252.966 214.464 253.17 213.833 253.17Z" fill="#42E8E0"/>
<path d="M218.87 256.068C218.404 256.068 217.97 255.958 217.582 255.733C216.669 255.206 216.166 254.139 216.166 252.729V249.607C216.166 248.59 215.851 247.848 215.278 247.518C214.703 247.186 213.905 247.285 213.025 247.793L210.321 249.355C210.064 249.5 209.745 249.413 209.598 249.162C209.452 248.909 209.539 248.586 209.791 248.439L212.495 246.878C213.717 246.175 214.892 246.074 215.805 246.604C216.718 247.131 217.221 248.198 217.221 249.608V252.73C217.221 253.747 217.536 254.489 218.109 254.819C218.683 255.152 219.485 255.051 220.363 254.544L233.309 247.068C233.566 246.92 233.885 247.009 234.032 247.261C234.178 247.514 234.091 247.837 233.839 247.984L220.892 255.46C220.19 255.863 219.501 256.068 218.87 256.068Z" fill="#42E8E0"/>
<path d="M223.906 258.964C223.441 258.964 223.007 258.854 222.619 258.63C221.706 258.103 221.203 257.035 221.203 255.626V252.503C221.203 251.487 220.888 250.745 220.315 250.415C219.743 250.084 218.941 250.182 218.062 250.69L215.358 252.251C215.1 252.397 214.782 252.309 214.635 252.058C214.49 251.805 214.576 251.482 214.828 251.335L217.532 249.773C218.754 249.07 219.929 248.969 220.842 249.499C221.755 250.026 222.258 251.093 222.258 252.502V255.625C222.258 256.642 222.573 257.383 223.146 257.713C223.717 258.043 224.518 257.945 225.398 257.438L238.346 249.963C238.602 249.816 238.921 249.904 239.069 250.156C239.215 250.409 239.128 250.732 238.876 250.879L225.928 258.355C225.225 258.76 224.537 258.964 223.906 258.964Z" fill="#42E8E0"/>
<path d="M228.94 261.861C228.474 261.861 228.04 261.75 227.653 261.526C226.739 260.999 226.236 259.932 226.236 258.522V255.4C226.236 254.383 225.922 253.641 225.349 253.311C224.777 252.979 223.975 253.078 223.096 253.586L220.39 255.148C220.139 255.293 219.816 255.208 219.668 254.954C219.522 254.702 219.609 254.379 219.862 254.232L222.568 252.671C223.789 251.968 224.964 251.87 225.876 252.396C226.789 252.923 227.293 253.991 227.293 255.401V258.523C227.293 259.54 227.607 260.282 228.18 260.612C228.753 260.944 229.555 260.844 230.433 260.337L243.383 252.861C243.637 252.715 243.956 252.802 244.104 253.055C244.25 253.307 244.163 253.63 243.91 253.777L230.962 261.253C230.259 261.656 229.571 261.861 228.94 261.861Z" fill="#42E8E0"/>
<path d="M233.978 264.758C233.513 264.759 233.078 264.648 232.69 264.423C231.777 263.896 231.274 262.829 231.274 261.42V258.297C231.274 257.28 230.959 256.539 230.386 256.208C229.813 255.876 229.011 255.976 228.133 256.483L225.429 258.046C225.172 258.192 224.853 258.104 224.706 257.853C224.56 257.6 224.647 257.277 224.899 257.13L227.603 255.568C228.826 254.864 230.001 254.766 230.914 255.293C231.827 255.82 232.33 256.887 232.33 258.297V261.42C232.33 262.436 232.645 263.178 233.218 263.508C233.79 263.838 234.591 263.741 235.471 263.233L248.418 255.757C248.673 255.609 248.994 255.698 249.141 255.95C249.286 256.203 249.2 256.526 248.948 256.673L236.001 264.149C235.297 264.554 234.61 264.758 233.978 264.758Z" fill="#42E8E0"/>
<path d="M239.012 267.655C238.547 267.655 238.113 267.544 237.725 267.32C236.812 266.793 236.309 265.726 236.309 264.316V261.194C236.309 260.177 235.994 259.435 235.421 259.105C234.848 258.774 234.047 258.874 233.167 259.38L230.464 260.942C230.207 261.088 229.888 261 229.741 260.749C229.595 260.496 229.682 260.173 229.934 260.026L232.638 258.464C233.861 257.76 235.035 257.662 235.949 258.19C236.862 258.717 237.365 259.784 237.365 261.194V264.316C237.365 265.333 237.68 266.075 238.253 266.405C238.825 266.735 239.624 266.638 240.506 266.13L253.454 258.654C253.706 258.507 254.029 258.595 254.176 258.848C254.321 259.1 254.235 259.423 253.982 259.57L241.035 267.045C240.331 267.45 239.644 267.655 239.012 267.655Z" fill="#42E8E0"/>
<path d="M244.05 270.552C243.584 270.552 243.15 270.442 242.762 270.217C241.849 269.69 241.346 268.623 241.346 267.214V264.091C241.346 263.074 241.031 262.333 240.458 262.002C239.884 261.67 239.084 261.769 238.205 262.278L235.501 263.839C235.243 263.985 234.925 263.897 234.778 263.646C234.632 263.393 234.719 263.07 234.971 262.923L237.675 261.362C238.898 260.657 240.072 260.56 240.986 261.087C241.899 261.614 242.402 262.681 242.402 264.091V267.214C242.402 268.23 242.717 268.972 243.29 269.302C243.861 269.632 244.663 269.534 245.544 269.027L258.49 261.551C258.746 261.405 259.065 261.492 259.213 261.744C259.359 261.997 259.272 262.32 259.02 262.467L246.073 269.943C245.369 270.348 244.681 270.552 244.05 270.552Z" fill="#42E8E0"/>
<path d="M237.584 264.503V276L138.092 333.442L38.5957 275.999V264.501L237.584 264.503Z" fill="url(#paint0_linear_407_5113)"/>
<path d="M138.092 321.945L38.5957 264.501L138.089 207.059L237.584 264.503L138.092 321.945Z" fill="#BCBEFF"/>
<path d="M138.092 320.602L39.7597 263.83L38.5957 264.501L138.092 321.945L237.584 264.503L236.421 263.831L138.092 320.602Z" fill="white"/>
<path d="M138.092 308.695L61.5664 264.513L138.089 220.332L214.614 264.514L138.092 308.695Z" fill="#0F054C"/>
<path opacity="0.5" d="M138.091 308.697L61.5645 264.514L138.088 220.332L214.615 264.515L138.091 308.697Z" fill="url(#paint1_linear_407_5113)"/>
<path opacity="0.5" d="M138.088 209.191L214.615 253.374V264.514L138.088 220.332V209.191Z" fill="url(#paint2_linear_407_5113)"/>
<path opacity="0.5" d="M138.091 220.332L61.5645 264.513V253.372L138.088 209.191L138.091 220.332Z" fill="url(#paint3_linear_407_5113)"/>
<path opacity="0.5" d="M138.091 297.555L61.5645 253.372L138.088 209.191L214.615 253.374L138.091 297.555Z" fill="url(#paint4_linear_407_5113)"/>
<path opacity="0.5" d="M138.091 271.028L107.512 253.374L138.09 235.72L168.668 253.374L138.091 271.028Z" fill="#42E8E0"/>
<path opacity="0.5" d="M138.089 237.344L167.261 254.187L168.667 253.375L138.089 235.72L107.512 253.374L108.918 254.186L138.089 237.344Z" fill="#42E8E0"/>
<path opacity="0.5" d="M138.092 297.555V308.696L214.616 264.514V253.374L138.092 297.555Z" fill="url(#paint5_linear_407_5113)"/>
<path opacity="0.5" d="M61.5645 253.372V264.513L138.091 308.696V297.555L61.5645 253.372Z" fill="url(#paint6_linear_407_5113)"/>
<path opacity="0.8" d="M138.091 296.34L62.6175 252.765L61.5645 253.374L138.091 297.556L214.615 253.375L213.562 252.767L138.091 296.34Z" fill="#42E8E0"/>
<path d="M163.071 347.309C162.982 347.309 162.891 347.287 162.808 347.239L149.861 339.764C147.507 338.404 145.663 335.21 145.663 332.494V329.371C145.663 327.034 144.017 324.183 141.994 323.017L139.289 321.456C139.037 321.309 138.95 320.986 139.096 320.733C139.242 320.482 139.562 320.392 139.819 320.54L142.523 322.101C144.877 323.459 146.72 326.653 146.72 329.372V332.495C146.72 334.831 148.366 337.682 150.39 338.849L163.336 346.324C163.589 346.47 163.676 346.794 163.53 347.046C163.431 347.214 163.253 347.309 163.071 347.309Z" fill="#42E8E0"/>
<path d="M168.106 344.407C168.017 344.407 167.926 344.385 167.842 344.337L154.895 336.861C152.542 335.503 150.698 332.309 150.698 329.59V326.467C150.698 324.131 149.052 321.281 147.028 320.113L144.324 318.551C144.072 318.404 143.985 318.081 144.131 317.828C144.277 317.577 144.596 317.487 144.854 317.635L147.558 319.197C149.912 320.556 151.755 323.75 151.755 326.467V329.59C151.755 331.927 153.401 334.778 155.424 335.944L168.372 343.42C168.624 343.566 168.711 343.89 168.565 344.143C168.466 344.313 168.288 344.407 168.106 344.407Z" fill="#42E8E0"/>
<path d="M173.143 341.504C173.054 341.504 172.963 341.482 172.879 341.434L159.931 333.959C157.578 332.6 155.735 329.406 155.735 326.688V323.566C155.735 321.23 154.089 318.379 152.065 317.209L149.362 315.649C149.109 315.503 149.022 315.179 149.168 314.927C149.314 314.674 149.635 314.586 149.89 314.733L152.594 316.294C154.948 317.654 156.792 320.849 156.792 323.566V326.688C156.792 329.024 158.438 331.876 160.461 333.043L173.409 340.519C173.661 340.666 173.748 340.989 173.602 341.242C173.503 341.409 173.326 341.504 173.143 341.504Z" fill="#42E8E0"/>
<path d="M178.18 338.604C178.091 338.604 178 338.582 177.916 338.534L164.968 331.058C162.614 329.699 160.771 326.505 160.771 323.787V320.664C160.771 318.328 159.125 315.476 157.102 314.309L154.398 312.748C154.145 312.602 154.058 312.278 154.204 312.026C154.351 311.773 154.671 311.685 154.926 311.832L157.631 313.393C159.985 314.752 161.828 317.946 161.828 320.664V323.787C161.828 326.123 163.475 328.974 165.498 330.142L178.446 337.618C178.698 337.764 178.785 338.088 178.639 338.341C178.54 338.509 178.363 338.604 178.18 338.604Z" fill="#42E8E0"/>
<path d="M183.214 335.701C183.125 335.701 183.034 335.679 182.95 335.631L170.003 328.155C167.649 326.796 165.806 323.602 165.806 320.885V317.762C165.806 315.426 164.16 312.576 162.136 311.407L159.432 309.847C159.18 309.7 159.093 309.377 159.239 309.124C159.385 308.872 159.705 308.784 159.962 308.931L162.666 310.492C165.02 311.852 166.863 315.046 166.863 317.763V320.886C166.863 323.222 168.51 326.073 170.532 327.24L183.48 334.716C183.732 334.863 183.819 335.186 183.673 335.439C183.575 335.607 183.397 335.701 183.214 335.701Z" fill="#42E8E0"/>
<path d="M188.251 332.799C188.162 332.799 188.071 332.777 187.988 332.729L175.041 325.254C172.687 323.894 170.843 320.7 170.843 317.982V314.86C170.843 312.523 169.196 309.672 167.174 308.506L164.469 306.945C164.217 306.798 164.13 306.475 164.276 306.222C164.423 305.97 164.741 305.882 164.999 306.029L167.703 307.59C170.057 308.948 171.9 312.142 171.9 314.861V317.983C171.9 320.319 173.547 323.171 175.57 324.338L188.516 331.813C188.769 331.959 188.856 332.283 188.71 332.535C188.612 332.704 188.434 332.799 188.251 332.799Z" fill="#42E8E0"/>
<path d="M193.288 329.897C193.199 329.897 193.108 329.875 193.024 329.827L180.077 322.351C177.723 320.993 175.88 317.799 175.88 315.08V311.957C175.88 309.62 174.233 306.769 172.211 305.602L169.506 304.041C169.254 303.895 169.167 303.571 169.313 303.318C169.459 303.066 169.778 302.977 170.036 303.125L172.74 304.687C175.094 306.045 176.937 309.239 176.937 311.958V315.081C176.937 317.418 178.584 320.269 180.606 321.435L193.554 328.911C193.806 329.057 193.893 329.381 193.747 329.634C193.648 329.802 193.47 329.897 193.288 329.897Z" fill="#42E8E0"/>
<path d="M198.323 326.995C198.234 326.995 198.143 326.973 198.059 326.925L185.112 319.449C182.758 318.091 180.915 314.897 180.915 312.178V309.056C180.915 306.72 179.269 303.87 177.245 302.7L174.541 301.139C174.289 300.993 174.202 300.669 174.348 300.416C174.494 300.164 174.813 300.075 175.071 300.223L177.775 301.784C180.129 303.144 181.972 306.339 181.972 309.055V312.177C181.972 314.514 183.619 317.365 185.641 318.532L198.589 326.008C198.841 326.154 198.928 326.478 198.782 326.731C198.683 326.901 198.505 326.995 198.323 326.995Z" fill="#42E8E0"/>
<path d="M203.358 324.093C203.269 324.093 203.178 324.071 203.095 324.023L190.147 316.548C187.793 315.188 185.95 311.994 185.95 309.277V306.155C185.95 303.819 184.303 300.968 182.28 299.801L179.576 298.239C179.324 298.093 179.237 297.769 179.383 297.516C179.529 297.265 179.849 297.175 180.106 297.323L182.81 298.885C185.164 300.244 187.007 303.438 187.007 306.156V309.278C187.007 311.614 188.653 314.466 190.676 315.634L203.623 323.108C203.876 323.255 203.963 323.578 203.817 323.83C203.718 323.998 203.54 324.093 203.358 324.093Z" fill="#42E8E0"/>
<path d="M208.394 321.192C208.305 321.192 208.214 321.169 208.13 321.122L195.182 313.646C192.829 312.287 190.985 309.093 190.985 306.375V303.252C190.985 300.916 189.339 298.064 187.316 296.898L184.612 295.337C184.359 295.19 184.272 294.867 184.418 294.615C184.565 294.362 184.885 294.274 185.14 294.421L187.845 295.982C190.198 297.341 192.042 300.535 192.042 303.253V306.376C192.042 308.712 193.688 311.562 195.712 312.73L208.66 320.205C208.912 320.352 208.999 320.675 208.853 320.928C208.754 321.097 208.576 321.192 208.394 321.192Z" fill="#42E8E0"/>
<path d="M213.431 318.289C213.342 318.289 213.251 318.267 213.167 318.219L200.22 310.743C197.866 309.384 196.023 306.19 196.023 303.472V300.35C196.023 298.014 194.377 295.162 192.353 293.995L189.65 292.434C189.397 292.288 189.31 291.964 189.456 291.712C189.602 291.459 189.923 291.37 190.178 291.518L192.882 293.079C195.236 294.439 197.08 297.633 197.08 300.35V303.472C197.08 305.808 198.727 308.658 200.75 309.826L213.697 317.302C213.949 317.448 214.036 317.772 213.89 318.025C213.791 318.195 213.614 318.289 213.431 318.289Z" fill="#42E8E0"/>
<path d="M218.466 315.387C218.377 315.387 218.286 315.365 218.203 315.317L205.256 307.842C202.901 306.482 201.058 303.288 201.058 300.57V297.448C201.058 295.111 199.412 292.26 197.389 291.094L194.684 289.533C194.432 289.386 194.345 289.063 194.491 288.81C194.637 288.559 194.956 288.47 195.214 288.617L197.918 290.179C200.271 291.537 202.115 294.731 202.115 297.449V300.571C202.115 302.907 203.761 305.759 205.785 306.926L218.731 314.401C218.984 314.547 219.071 314.871 218.925 315.123C218.826 315.292 218.649 315.387 218.466 315.387Z" fill="#42E8E0"/>
<path d="M223.503 312.485C223.414 312.485 223.323 312.463 223.239 312.415L210.292 304.939C207.939 303.581 206.095 300.387 206.095 297.668V294.545C206.095 292.208 204.448 289.357 202.426 288.191L199.721 286.629C199.469 286.483 199.382 286.159 199.528 285.906C199.674 285.655 199.994 285.565 200.251 285.713L202.955 287.275C205.308 288.633 207.152 291.827 207.152 294.546V297.669C207.152 300.006 208.798 302.857 210.821 304.024L223.769 311.5C224.021 311.647 224.108 311.97 223.962 312.223C223.864 312.391 223.686 312.485 223.503 312.485Z" fill="#42E8E0"/>
<path d="M228.538 309.583C228.449 309.583 228.358 309.56 228.274 309.513L215.327 302.037C212.974 300.679 211.13 297.485 211.13 294.767V291.645C211.13 289.309 209.484 286.457 207.46 285.289L204.757 283.729C204.504 283.583 204.417 283.259 204.563 283.007C204.708 282.755 205.03 282.665 205.285 282.813L207.989 284.373C210.343 285.733 212.187 288.927 212.187 291.645V294.767C212.187 297.104 213.833 299.955 215.856 301.121L228.804 308.596C229.056 308.743 229.143 309.066 228.997 309.319C228.899 309.488 228.721 309.583 228.538 309.583Z" fill="#42E8E0"/>
<path d="M233.575 306.681C233.486 306.681 233.395 306.659 233.312 306.611L220.365 299.136C218.01 297.776 216.167 294.582 216.167 291.865V288.743C216.167 286.407 214.521 283.556 212.497 282.389L209.793 280.827C209.541 280.681 209.454 280.357 209.6 280.104C209.746 279.852 210.066 279.764 210.323 279.911L213.027 281.472C215.38 282.831 217.224 286.025 217.224 288.743V291.865C217.224 294.201 218.87 297.053 220.894 298.222L233.84 305.696C234.093 305.842 234.18 306.166 234.034 306.418C233.935 306.586 233.757 306.681 233.575 306.681Z" fill="#42E8E0"/>
<path d="M238.61 303.78C238.521 303.78 238.43 303.758 238.346 303.71L225.398 296.234C223.046 294.875 221.202 291.681 221.202 288.963V285.84C221.202 283.504 219.556 280.654 217.532 279.486L214.828 277.925C214.576 277.778 214.489 277.455 214.635 277.202C214.782 276.95 215.1 276.862 215.358 277.009L218.062 278.571C220.415 279.93 222.259 283.124 222.259 285.841V288.964C222.259 291.3 223.905 294.152 225.928 295.318L238.876 302.794C239.128 302.94 239.215 303.264 239.069 303.517C238.97 303.685 238.792 303.78 238.61 303.78Z" fill="#42E8E0"/>
<path d="M243.646 300.877C243.557 300.877 243.466 300.855 243.382 300.807L230.434 293.331C228.081 291.972 226.237 288.778 226.237 286.06V282.938C226.237 280.602 224.592 277.75 222.568 276.582L219.864 275.022C219.611 274.875 219.524 274.552 219.67 274.3C219.816 274.047 220.136 273.958 220.392 274.106L223.097 275.667C225.451 277.027 227.294 280.221 227.294 282.938V286.06C227.294 288.396 228.941 291.246 230.964 292.415L243.912 299.891C244.164 300.037 244.251 300.361 244.105 300.614C244.006 300.782 243.828 300.877 243.646 300.877Z" fill="#42E8E0"/>
<path d="M248.683 297.975C248.594 297.975 248.503 297.953 248.42 297.905L235.473 290.43C233.119 289.07 231.275 285.875 231.275 283.159V280.037C231.275 277.7 229.629 274.849 227.606 273.682L224.901 272.121C224.649 271.975 224.562 271.651 224.708 271.398C224.854 271.146 225.174 271.057 225.431 271.205L228.135 272.766C230.489 274.124 232.332 277.318 232.332 280.037V283.159C232.332 285.495 233.978 288.345 236.002 289.515L248.948 296.989C249.201 297.135 249.288 297.459 249.142 297.711C249.043 297.88 248.866 297.975 248.683 297.975Z" fill="#42E8E0"/>
<path d="M253.718 295.073C253.629 295.073 253.538 295.051 253.454 295.003L240.507 287.527C238.154 286.169 236.31 282.975 236.31 280.257V277.134C236.31 274.797 234.664 271.946 232.641 270.78L229.936 269.218C229.684 269.072 229.597 268.748 229.743 268.495C229.889 268.243 230.209 268.154 230.466 268.302L233.17 269.864C235.524 271.222 237.367 274.416 237.367 277.135V280.258C237.367 282.595 239.014 285.446 241.036 286.612L253.984 294.088C254.236 294.235 254.323 294.558 254.177 294.811C254.079 294.979 253.901 295.073 253.718 295.073Z" fill="#42E8E0"/>
<path d="M258.755 292.171C258.666 292.171 258.575 292.149 258.491 292.101L245.544 284.625C243.191 283.267 241.347 280.073 241.347 277.354V274.232C241.347 271.896 239.701 269.044 237.677 267.875L234.974 266.316C234.721 266.169 234.634 265.846 234.78 265.594C234.926 265.341 235.247 265.252 235.502 265.4L238.206 266.961C240.561 268.321 242.404 271.515 242.404 274.232V277.354C242.404 279.691 244.051 282.542 246.073 283.708L259.021 291.183C259.273 291.33 259.36 291.653 259.214 291.906C259.116 292.076 258.938 292.171 258.755 292.171Z" fill="#42E8E0"/>
<path d="M112.758 347.309C112.575 347.309 112.398 347.214 112.3 347.044C112.154 346.792 112.24 346.469 112.493 346.322L125.441 338.847C127.464 337.679 129.11 334.827 129.11 332.493V329.37C129.11 326.652 130.954 323.459 133.307 322.099L136.012 320.538C136.263 320.393 136.589 320.479 136.734 320.731C136.88 320.984 136.794 321.307 136.541 321.454L133.836 323.015C131.813 324.182 130.167 327.033 130.167 329.369V332.492C130.167 335.209 128.323 338.402 125.969 339.762L113.021 347.238C112.939 347.286 112.848 347.309 112.758 347.309Z" fill="#42E8E0"/>
<path d="M107.722 344.407C107.539 344.407 107.362 344.312 107.264 344.143C107.118 343.89 107.204 343.567 107.457 343.42L120.404 335.944C122.427 334.777 124.073 331.925 124.073 329.59V326.467C124.073 323.749 125.917 320.556 128.271 319.197L130.975 317.635C131.226 317.49 131.551 317.576 131.697 317.828C131.843 318.081 131.757 318.404 131.504 318.551L128.8 320.113C126.777 321.28 125.131 324.132 125.131 326.467V329.59C125.131 332.308 123.287 335.501 120.933 336.861L107.986 344.337C107.902 344.385 107.811 344.407 107.722 344.407Z" fill="#42E8E0"/>
<path d="M102.685 341.505C102.502 341.505 102.325 341.41 102.227 341.241C102.081 340.988 102.167 340.665 102.42 340.518L115.368 333.042C117.391 331.875 119.037 329.023 119.037 326.687V323.565C119.037 320.847 120.881 317.654 123.235 316.294L125.939 314.732C126.191 314.586 126.515 314.673 126.661 314.926C126.807 315.178 126.72 315.501 126.468 315.648L123.764 317.209C121.741 318.377 120.095 321.229 120.095 323.564V326.686C120.095 329.404 118.251 332.597 115.898 333.957L102.95 341.432C102.866 341.483 102.775 341.505 102.685 341.505Z" fill="#42E8E0"/>
<path d="M97.6482 338.604C97.4652 338.604 97.2882 338.509 97.1902 338.34C97.0442 338.087 97.1302 337.764 97.3832 337.617L110.331 330.141C112.354 328.974 114 326.122 114 323.786V320.664C114 317.946 115.844 314.753 118.197 313.393L120.902 311.832C121.154 311.686 121.478 311.773 121.624 312.025C121.77 312.278 121.683 312.601 121.431 312.748L118.726 314.309C116.703 315.476 115.057 318.328 115.057 320.664V323.787C115.057 326.505 113.213 329.698 110.859 331.058L97.9112 338.534C97.8292 338.581 97.7382 338.604 97.6482 338.604Z" fill="#42E8E0"/>
<path d="M92.6131 335.701C92.4301 335.701 92.2531 335.606 92.1551 335.437C92.0091 335.184 92.0951 334.861 92.3481 334.714L105.295 327.238C107.318 326.071 108.964 323.22 108.964 320.884V317.761C108.964 315.044 110.808 311.851 113.162 310.491L115.866 308.928C116.118 308.782 116.442 308.869 116.588 309.121C116.734 309.374 116.648 309.697 116.395 309.844L113.691 311.405C111.668 312.573 110.022 315.425 110.022 317.759V320.882C110.022 323.6 108.178 326.793 105.824 328.152L92.8771 335.628C92.7931 335.679 92.7031 335.701 92.6131 335.701Z" fill="#42E8E0"/>
<path d="M87.5779 332.798C87.3949 332.798 87.2179 332.703 87.1199 332.533C86.9739 332.281 87.0599 331.958 87.3129 331.811L100.261 324.336C102.284 323.168 103.93 320.316 103.93 317.981V314.859C103.93 312.141 105.774 308.948 108.128 307.588L110.832 306.027C111.083 305.882 111.408 305.968 111.554 306.22C111.7 306.473 111.614 306.796 111.361 306.943L108.657 308.504C106.634 309.671 104.988 312.523 104.988 314.858V317.98C104.988 320.698 103.144 323.891 100.791 325.251L87.8429 332.727C87.7589 332.776 87.6679 332.798 87.5779 332.798Z" fill="#42E8E0"/>
<path d="M82.5408 329.898C82.3578 329.898 82.1808 329.803 82.0828 329.634C81.9368 329.381 82.0228 329.058 82.2758 328.911L95.2238 321.435C97.2468 320.268 98.8928 317.417 98.8928 315.081V311.958C98.8928 309.24 100.737 306.047 103.09 304.687L105.795 303.125C106.047 302.98 106.371 303.066 106.517 303.318C106.663 303.571 106.577 303.894 106.324 304.041L103.619 305.602C101.596 306.769 99.9498 309.62 99.9498 311.957V315.08C99.9498 317.798 98.1058 320.991 95.7518 322.351L82.8038 329.827C82.7218 329.875 82.6308 329.898 82.5408 329.898Z" fill="#42E8E0"/>
<path d="M77.5054 326.995C77.3224 326.995 77.1454 326.9 77.0474 326.731C76.9014 326.478 76.9884 326.155 77.2404 326.008L90.1874 318.532C92.2104 317.365 93.8564 314.513 93.8564 312.177V309.055C93.8564 306.337 95.7004 303.144 98.0544 301.785L100.758 300.222C101.01 300.077 101.334 300.163 101.48 300.415C101.626 300.668 101.54 300.991 101.287 301.138L98.5834 302.699C96.5604 303.867 94.9144 306.719 94.9144 309.054V312.176C94.9144 314.894 93.0704 318.087 90.7164 319.447L77.7694 326.923C77.6854 326.973 77.5954 326.995 77.5054 326.995Z" fill="#42E8E0"/>
<path d="M72.4705 324.093C72.2875 324.093 72.1105 323.998 72.0125 323.828C71.8665 323.576 71.9525 323.253 72.2055 323.106L85.1535 315.631C87.1765 314.463 88.8225 311.611 88.8225 309.276V306.154C88.8225 303.436 90.6665 300.243 93.0205 298.883L95.7245 297.321C95.9765 297.175 96.3005 297.262 96.4465 297.514C96.5925 297.767 96.5065 298.09 96.2535 298.237L93.5495 299.799C91.5265 300.966 89.8805 303.817 89.8805 306.153V309.275C89.8805 311.993 88.0365 315.186 85.6835 316.545L72.7355 324.021C72.6505 324.07 72.5605 324.093 72.4705 324.093Z" fill="#42E8E0"/>
<path d="M67.4334 321.191C67.2504 321.191 67.0734 321.096 66.9754 320.927C66.8294 320.674 66.9154 320.351 67.1684 320.204L80.1164 312.729C82.1394 311.562 83.7854 308.71 83.7854 306.375V303.252C83.7854 300.534 85.6294 297.341 87.9824 295.981L90.6874 294.42C90.9394 294.274 91.2634 294.361 91.4094 294.613C91.5554 294.866 91.4684 295.189 91.2164 295.336L88.5114 296.897C86.4884 298.064 84.8424 300.916 84.8424 303.251V306.374C84.8424 309.092 82.9984 312.285 80.6444 313.645L67.6964 321.121C67.6144 321.168 67.5234 321.191 67.4334 321.191Z" fill="#42E8E0"/>
<path d="M62.398 318.289C62.215 318.289 62.038 318.194 61.94 318.025C61.794 317.772 61.881 317.449 62.133 317.302L75.08 309.826C77.103 308.659 78.749 305.808 78.749 303.472V300.35C78.749 297.632 80.593 294.439 82.947 293.079L85.651 291.518C85.904 291.371 86.227 291.459 86.373 291.712C86.519 291.964 86.432 292.287 86.18 292.434L83.476 293.995C81.452 295.163 79.806 298.015 79.806 300.35V303.472C79.806 306.19 77.962 309.383 75.608 310.743L62.661 318.219C62.579 318.267 62.488 318.289 62.398 318.289Z" fill="#42E8E0"/>
<path d="M57.3611 315.387C57.1781 315.387 57.0011 315.292 56.9031 315.122C56.7571 314.87 56.8431 314.547 57.0961 314.4L70.0441 306.925C72.0671 305.757 73.7131 302.905 73.7131 300.57V297.448C73.7131 294.73 75.5571 291.537 77.9111 290.178L80.6151 288.616C80.8671 288.471 81.1911 288.556 81.3371 288.809C81.4831 289.062 81.3971 289.385 81.1441 289.532L78.4401 291.093C76.4171 292.26 74.7711 295.112 74.7711 297.447V300.569C74.7711 303.287 72.9271 306.48 70.5741 307.84L57.6261 315.316C57.5411 315.364 57.4511 315.387 57.3611 315.387Z" fill="#42E8E0"/>
<path d="M52.326 312.485C52.143 312.485 51.966 312.39 51.868 312.221C51.722 311.968 51.808 311.645 52.061 311.498L65.0089 304.022C67.0319 302.855 68.678 300.003 68.678 297.667V294.544C68.678 291.826 70.5219 288.633 72.8749 287.273L75.579 285.711C75.831 285.566 76.155 285.651 76.301 285.904C76.447 286.157 76.3599 286.48 76.1079 286.627L73.404 288.189C71.381 289.356 69.7349 292.207 69.7349 294.543V297.666C69.7349 300.384 67.8909 303.577 65.5369 304.937L52.589 312.413C52.506 312.463 52.415 312.485 52.326 312.485Z" fill="#42E8E0"/>
<path d="M47.2908 309.582C47.1078 309.582 46.9308 309.487 46.8328 309.318C46.6868 309.065 46.7728 308.742 47.0258 308.595L59.9728 301.12C61.9958 299.953 63.6428 297.101 63.6428 294.766V291.644C63.6428 288.926 65.4868 285.733 67.8408 284.373L70.5448 282.812C70.7968 282.665 71.1208 282.753 71.2668 283.006C71.4128 283.258 71.3258 283.581 71.0738 283.728L68.3698 285.289C66.3468 286.457 64.7008 289.309 64.7008 291.644V294.766C64.7008 297.484 62.8568 300.677 60.5028 302.036L47.5558 309.512C47.4718 309.56 47.3808 309.582 47.2908 309.582Z" fill="#42E8E0"/>
<path d="M42.2537 306.681C42.0707 306.681 41.8937 306.586 41.7957 306.416C41.6497 306.164 41.7357 305.841 41.9887 305.694L54.9357 298.219C56.9587 297.051 58.6047 294.199 58.6047 291.864V288.742C58.6047 286.024 60.4487 282.831 62.8027 281.471L65.5067 279.91C65.7577 279.764 66.0827 279.851 66.2287 280.103C66.3747 280.356 66.2887 280.679 66.0357 280.826L63.3317 282.388C61.3087 283.555 59.6627 286.406 59.6627 288.742V291.864C59.6627 294.582 57.8187 297.775 55.4647 299.135L42.5177 306.611C42.4347 306.658 42.3437 306.681 42.2537 306.681Z" fill="#42E8E0"/>
<path d="M37.2185 303.78C37.0355 303.78 36.8585 303.685 36.7605 303.516C36.6145 303.263 36.7005 302.94 36.9535 302.793L49.9015 295.317C51.9245 294.15 53.5705 291.298 53.5705 288.963V285.84C53.5705 283.122 55.4145 279.929 57.7685 278.57L60.4725 277.008C60.7235 276.863 61.0485 276.949 61.1945 277.201C61.3405 277.454 61.2545 277.777 61.0015 277.924L58.2975 279.485C56.2745 280.652 54.6285 283.504 54.6285 285.839V288.962C54.6285 291.68 52.7845 294.873 50.4315 296.233L37.4835 303.709C37.3985 303.757 37.3085 303.78 37.2185 303.78Z" fill="#42E8E0"/>
<path d="M32.1814 300.877C31.9984 300.877 31.8214 300.782 31.7234 300.613C31.5774 300.36 31.6634 300.037 31.9164 299.89L44.8644 292.414C46.8874 291.247 48.5334 288.395 48.5334 286.059V282.937C48.5334 280.219 50.3774 277.026 52.7304 275.667L55.4354 274.105C55.6884 273.959 56.0114 274.046 56.1574 274.299C56.3034 274.551 56.2164 274.874 55.9644 275.021L53.2604 276.582C51.2374 277.75 49.5914 280.602 49.5914 282.937V286.059C49.5914 288.777 47.7474 291.97 45.3934 293.33L32.4454 300.806C32.3624 300.855 32.2714 300.877 32.1814 300.877Z" fill="#42E8E0"/>
<path d="M27.1463 297.975C26.9633 297.975 26.7863 297.88 26.6883 297.71C26.5423 297.458 26.6283 297.135 26.8813 296.988L39.8283 289.513C41.8513 288.345 43.4973 285.493 43.4973 283.158V280.036C43.4973 277.318 45.3413 274.125 47.6953 272.765L50.3993 271.204C50.6503 271.058 50.9753 271.145 51.1213 271.397C51.2673 271.65 51.1803 271.973 50.9283 272.12L48.2243 273.681C46.2013 274.848 44.5553 277.7 44.5553 280.036V283.158C44.5553 285.876 42.7113 289.069 40.3573 290.428L27.4103 297.904C27.3273 297.952 27.2363 297.975 27.1463 297.975Z" fill="#42E8E0"/>
<path d="M22.1109 295.073C21.9279 295.073 21.7509 294.978 21.6529 294.809C21.5069 294.556 21.5939 294.233 21.8459 294.086L34.7939 286.61C36.8169 285.443 38.4629 282.591 38.4629 280.256V277.133C38.4629 274.415 40.3069 271.222 42.6609 269.862L45.3649 268.3C45.6159 268.154 45.9419 268.241 46.0869 268.493C46.2329 268.746 46.1469 269.069 45.8939 269.216L43.1899 270.778C41.1669 271.945 39.5209 274.796 39.5209 277.132V280.255C39.5209 282.973 37.6769 286.166 35.3239 287.525L22.3759 295.001C22.2909 295.051 22.2009 295.073 22.1109 295.073Z" fill="#42E8E0"/>
<path d="M17.074 292.171C16.891 292.171 16.714 292.076 16.616 291.907C16.47 291.654 16.556 291.331 16.809 291.184L29.757 283.709C31.78 282.542 33.427 279.69 33.427 277.355V274.233C33.427 271.515 35.271 268.322 37.624 266.962L40.329 265.401C40.582 265.255 40.905 265.342 41.051 265.595C41.197 265.847 41.11 266.17 40.858 266.317L38.153 267.877C36.13 269.045 34.484 271.897 34.484 274.232V277.354C34.484 280.072 32.64 283.265 30.286 284.625L17.338 292.101C17.254 292.149 17.163 292.171 17.074 292.171Z" fill="#42E8E0"/>
<g opacity="0.3">
<path d="M231.64 105.812C232.533 110.862 236.279 123.556 251.735 132.337C273.736 142.497 288.977 155.853 294.083 170.765C294.444 171.743 294.943 173.045 295.411 173.977C295.959 173.073 295.959 173.073 295.962 170.887V145.85C295.952 131.149 295.127 127.908 294.083 123.805C288.977 108.893 273.737 95.5372 251.735 85.3772C234.183 79.7112 229.934 96.1671 231.64 105.812Z" fill="#42E8E0"/>
<path d="M70.3013 75.7713C93.5953 69.0143 121.151 65.2092 150.563 65.4502C154.444 65.4822 158.287 65.5833 162.088 65.7523C187.914 68.1113 197.099 95.3852 181.529 107.318C174.382 112.795 165.767 112.737 162.088 112.713C158.287 112.544 154.444 112.442 150.563 112.411C121.152 112.17 93.5953 115.974 70.3013 122.732C46.7813 128.461 45.3923 104.56 53.6173 89.9392C56.3833 85.0222 61.5243 78.5723 70.3013 75.7713Z" fill="#42E8E0"/>
<path d="M0 181.898C0.641 174.455 1.14801 168.575 8.72601 158.315C24.702 134.741 21.476 107.343 12.651 108.609C11.229 108.813 9.75001 110.346 8.72601 111.355C3.36301 118.344 0.31501 125.86 0.0230103 133.702C0.00801025 134.115 0 134.527 0 134.939V181.898Z" fill="#42E8E0"/>
</g>
<path d="M191.915 187.675L186.828 189.733L204.402 233.153L209.489 231.094L191.915 187.675Z" fill="#42E8E0"/>
<path d="M95.2463 184.503C104.662 184.503 112.295 176.87 112.295 167.454C112.295 158.038 104.662 150.405 95.2463 150.405C85.8304 150.405 78.1973 158.038 78.1973 167.454C78.1973 176.87 85.8304 184.503 95.2463 184.503Z" fill="url(#paint7_radial_407_5113)"/>
<path d="M183.282 192.673C183.282 225.767 163.575 252.595 139.264 252.595C114.953 252.595 95.2461 225.767 95.2461 192.673C95.2461 159.579 114.953 149.662 139.264 149.662C163.575 149.662 183.282 159.579 183.282 192.673Z" fill="url(#paint8_radial_407_5113)"/>
<path d="M183.282 192.673C183.282 225.767 163.575 252.595 139.264 252.595C114.953 252.595 95.2461 225.767 95.2461 192.673C95.2461 159.579 114.953 149.662 139.264 149.662C163.575 149.662 183.282 159.579 183.282 192.673Z" fill="url(#paint9_linear_407_5113)"/>
<path d="M139.264 184.798C155.855 184.798 169.305 177.033 169.305 167.454C169.305 157.876 155.855 150.11 139.264 150.11C122.672 150.11 109.223 157.876 109.223 167.454C109.223 177.033 122.672 184.798 139.264 184.798Z" fill="#393091"/>
<path d="M118.022 159.81C129.754 153.037 148.775 153.037 160.507 159.81C165.353 162.608 168.191 166.124 169.034 169.765C170.232 164.591 167.393 159.166 160.507 155.19C148.775 148.417 129.754 148.416 118.022 155.19C111.136 159.165 108.298 164.591 109.495 169.764C110.338 166.124 113.176 162.608 118.022 159.81Z" fill="#453C9E"/>
<path d="M104.587 126.239L110.022 116.875C113.219 113.559 115.774 109.155 117.071 104.729L122.575 95.2464L114.659 90.7024C114.406 90.5304 114.141 90.3774 113.865 90.2464L113.86 90.2434C111.609 89.1774 108.618 89.4634 105.335 91.3584C98.3371 95.3984 92.6641 105.224 92.6641 113.304C92.6641 117.342 94.0811 120.18 96.3711 121.504L96.3751 121.506L104.587 126.239Z" fill="url(#paint10_radial_407_5113)"/>
<path d="M122.439 115.86C127.388 107.29 127.387 98.0265 122.439 95.1695C117.491 92.3125 109.468 96.9441 104.52 105.514C99.5719 114.085 99.5719 123.348 104.52 126.205C109.468 129.062 117.491 124.431 122.439 115.86Z" fill="#BCBEFF"/>
<path d="M141.009 170.95C165.804 170.95 185.903 150.85 185.903 126.056C185.903 101.262 165.804 81.1621 141.009 81.1621C116.215 81.1621 96.1152 101.262 96.1152 126.056C96.1152 150.85 116.215 170.95 141.009 170.95Z" fill="url(#paint11_radial_407_5113)"/>
<path d="M141.009 170.95C165.804 170.95 185.903 150.85 185.903 126.056C185.903 101.262 165.804 81.1621 141.009 81.1621C116.215 81.1621 96.1152 101.262 96.1152 126.056C96.1152 150.85 116.215 170.95 141.009 170.95Z" fill="url(#paint12_linear_407_5113)"/>
<path d="M166.134 156.417L171.569 147.053C174.766 143.737 177.321 139.333 178.618 134.907L184.122 125.424L176.207 120.879C175.954 120.707 175.689 120.554 175.413 120.423L175.409 120.42C173.158 119.354 170.167 119.64 166.884 121.535C159.886 125.575 154.213 135.401 154.213 143.481C154.213 147.519 155.63 150.357 157.92 151.681L157.924 151.683L166.134 156.417Z" fill="url(#paint13_radial_407_5113)"/>
<path d="M183.982 146.038C188.93 137.468 188.93 128.204 183.982 125.347C179.034 122.49 171.011 127.122 166.063 135.692C161.115 144.262 161.115 153.526 166.063 156.383C171.011 159.24 179.034 154.608 183.982 146.038Z" fill="#BCBEFF"/>
<path d="M162.943 148.286C162.943 140.206 168.616 130.38 175.614 126.34C178.039 124.94 180.304 124.42 182.229 124.672C180.185 124.22 177.706 124.692 175.032 126.236C168.034 130.276 162.361 140.102 162.361 148.182C162.361 153.463 164.784 156.689 168.417 157.165C165.11 156.433 162.943 153.279 162.943 148.286Z" fill="white"/>
<path d="M181.427 144.562C184.964 138.436 184.964 131.815 181.427 129.773C177.89 127.731 172.156 131.041 168.619 137.167C165.082 143.293 165.082 149.914 168.619 151.956C172.156 153.998 177.89 150.688 181.427 144.562Z" fill="#393091"/>
<path d="M180.237 129.304C181.174 130.41 181.721 132.064 181.721 134.182C181.721 139.958 177.666 146.981 172.664 149.869C170.727 150.987 168.933 151.319 167.461 150.973C169.08 152.883 171.866 153.153 175.034 151.324C180.036 148.436 184.091 141.413 184.091 135.637C184.091 132.097 182.567 129.851 180.237 129.304Z" fill="#453C9E"/>
<path d="M121.782 155.752C127.594 153.332 128.909 143.211 124.718 133.144C120.528 123.078 112.42 116.879 106.608 119.298C100.796 121.717 99.4809 131.839 103.671 141.905C107.862 151.972 115.97 158.171 121.782 155.752Z" fill="#393091"/>
<path d="M121.163 139.676C120.746 142.884 118.325 143.892 115.754 141.927C113.184 139.962 111.438 135.767 111.855 132.559C112.272 129.351 114.693 128.343 117.264 130.308C119.834 132.273 121.58 136.467 121.163 139.676Z" fill="#42E8E0"/>
<path d="M115.517 152.227C108.445 146.819 103.641 135.279 104.788 126.45C105.256 122.851 106.64 120.259 108.595 118.817C104.898 119.165 102.098 122.301 101.392 127.737C100.245 136.566 105.049 148.106 112.121 153.514C116.31 156.717 120.355 157.049 123.196 154.953C120.889 155.17 118.234 154.305 115.517 152.227Z" fill="#453C9E"/>
<path d="M112.73 153.226C105.657 147.818 100.854 136.278 102.001 127.449C102.532 123.362 104.246 120.576 106.635 119.297C103.93 120.41 101.967 123.311 101.392 127.737C100.245 136.566 105.049 148.106 112.121 153.514C115.918 156.417 119.594 156.954 122.364 155.471C119.675 156.577 116.255 155.922 112.73 153.226Z" fill="#42E8E0"/>
<path d="M189.348 205.758C198.764 205.758 206.397 198.125 206.397 188.709C206.397 179.293 198.764 171.66 189.348 171.66C179.932 171.66 172.299 179.293 172.299 188.709C172.299 198.125 179.932 205.758 189.348 205.758Z" fill="url(#paint14_radial_407_5113)"/>
<path d="M189.348 205.758C198.764 205.758 206.397 198.125 206.397 188.709C206.397 179.293 198.764 171.66 189.348 171.66C179.932 171.66 172.299 179.293 172.299 188.709C172.299 198.125 179.932 205.758 189.348 205.758Z" fill="url(#paint15_linear_407_5113)"/>
<path d="M216.537 245.195C215.57 253.296 208.416 268.64 201.94 267.867C195.465 267.094 192.121 250.498 193.088 242.397C194.055 234.296 200.088 228.355 206.563 229.128C213.038 229.9 217.504 237.093 216.537 245.195Z" fill="url(#paint16_radial_407_5113)"/>
<path d="M216.537 245.195C215.57 253.296 208.416 268.64 201.94 267.867C195.465 267.094 192.121 250.498 193.088 242.397C194.055 234.296 200.088 228.355 206.563 229.128C213.038 229.9 217.504 237.093 216.537 245.195Z" fill="url(#paint17_linear_407_5113)"/>
<path d="M50.1332 193.073C49.1452 193.073 48.1902 192.537 47.7002 191.601C46.9972 190.258 47.5162 188.6 48.8592 187.898L84.0602 169.477C85.4032 168.773 87.0602 169.293 87.7632 170.635C88.4662 171.978 87.9472 173.636 86.6042 174.338L51.4032 192.759C50.9962 192.973 50.5622 193.073 50.1332 193.073Z" fill="#42E8E0"/>
<path d="M50.7525 203.299C43.5985 207.221 26.9535 210.316 23.8185 204.597C20.6835 198.879 32.2465 186.512 39.4005 182.59C46.5545 178.668 54.8955 180.125 58.0305 185.843C61.1655 191.562 57.9065 199.377 50.7525 203.299Z" fill="url(#paint18_radial_407_5113)"/>
<path d="M50.7525 203.299C43.5985 207.221 26.9535 210.316 23.8185 204.597C20.6835 198.879 32.2465 186.512 39.4005 182.59C46.5545 178.668 54.8955 180.125 58.0305 185.843C61.1655 191.562 57.9065 199.377 50.7525 203.299Z" fill="url(#paint19_linear_407_5113)"/>
<g opacity="0.5">
<path d="M17.203 195.663C16.131 204.283 11.661 209.414 6.96101 202.992C0.936014 194.758 0.35 186.708 0 181.898V134.938C0 142.285 2.43801 149.373 6.96101 156.032C16.894 172.461 18.072 188.673 17.203 195.663Z" fill="#42E8E0"/>
<path d="M156.619 204.271C152.912 204.371 149.17 204.407 145.397 204.376C115.871 204.134 88.5171 199.849 65.6861 192.663C42.8811 186.571 41.5031 210.433 49.4621 225.172C55.1291 235.667 62.7991 238.541 65.6861 239.624C88.5171 246.809 115.871 251.095 145.397 251.337C149.17 251.368 152.912 251.332 156.619 251.232C183.415 249.257 190.432 223.522 177.909 211.51C174.414 208.157 167.883 204.18 156.619 204.271Z" fill="#42E8E0"/>
<path d="M295.938 166.829C295.808 187.136 294.616 190.833 293.107 195.513C286.831 210.321 270.553 223.403 247.767 233.175C227.819 239.06 222.31 218.332 230.422 202.964C235.942 192.508 244.532 187.936 247.767 186.215C270.552 176.443 286.83 163.361 293.107 148.553C293.567 147.57 294.216 146.267 294.831 145.373C294.984 145.353 295.188 145.326 295.341 145.306C295.727 146.391 295.887 146.841 295.938 152.384V166.829Z" fill="#42E8E0"/>
</g>
<path opacity="0.8" d="M216.294 181.921C214.121 181.921 212.359 180.159 212.359 177.986V43.3871C212.359 41.2141 214.121 39.4521 216.294 39.4521C218.467 39.4521 220.229 41.2141 220.229 43.3871V177.986C220.229 180.159 218.467 181.921 216.294 181.921Z" fill="url(#paint20_linear_407_5113)"/>
<path opacity="0.8" d="M61.0719 124.507C59.9069 124.507 58.9629 123.563 58.9629 122.398V2.109C58.9629 0.944001 59.9069 0 61.0719 0C62.2369 0 63.1809 0.944001 63.1809 2.109V122.398C63.1819 123.563 62.2369 124.507 61.0719 124.507Z" fill="url(#paint21_linear_407_5113)"/>
<defs>
<linearGradient id="paint0_linear_407_5113" x1="-10.5978" y1="298.972" x2="244.391" y2="298.972" gradientUnits="userSpaceOnUse">
<stop stop-color="#5761D7"/>
<stop offset="0.1645" stop-color="#5E67DA"/>
<stop offset="0.4051" stop-color="#727AE2"/>
<stop offset="0.6924" stop-color="#9297EE"/>
<stop offset="1" stop-color="#BCBEFF"/>
</linearGradient>
<linearGradient id="paint1_linear_407_5113" x1="61.5644" y1="264.515" x2="214.615" y2="264.515" gradientUnits="userSpaceOnUse">
<stop stop-color="#42E8E0"/>
<stop offset="0.1507" stop-color="#43E3E0"/>
<stop offset="0.3285" stop-color="#45D5DF"/>
<stop offset="0.5199" stop-color="#49BDDD"/>
<stop offset="0.7209" stop-color="#4E9CDB"/>
<stop offset="0.9274" stop-color="#5472D8"/>
<stop offset="1" stop-color="#5761D7"/>
</linearGradient>
<linearGradient id="paint2_linear_407_5113" x1="138.088" y1="236.853" x2="214.615" y2="236.853" gradientUnits="userSpaceOnUse">
<stop stop-color="#42E8E0"/>
<stop offset="0.1507" stop-color="#43E3E0"/>
<stop offset="0.3285" stop-color="#45D5DF"/>
<stop offset="0.5199" stop-color="#49BDDD"/>
<stop offset="0.7209" stop-color="#4E9CDB"/>
<stop offset="0.9274" stop-color="#5472D8"/>
<stop offset="1" stop-color="#5761D7"/>
</linearGradient>
<linearGradient id="paint3_linear_407_5113" x1="61.5644" y1="236.853" x2="138.091" y2="236.853" gradientUnits="userSpaceOnUse">
<stop stop-color="#42E8E0"/>
<stop offset="0.1507" stop-color="#43E3E0"/>
<stop offset="0.3285" stop-color="#45D5DF"/>
<stop offset="0.5199" stop-color="#49BDDD"/>
<stop offset="0.7209" stop-color="#4E9CDB"/>
<stop offset="0.9274" stop-color="#5472D8"/>
<stop offset="1" stop-color="#5761D7"/>
</linearGradient>
<linearGradient id="paint4_linear_407_5113" x1="61.5644" y1="253.373" x2="214.615" y2="253.373" gradientUnits="userSpaceOnUse">
<stop stop-color="#42E8E0"/>
<stop offset="0.1507" stop-color="#43E3E0"/>
<stop offset="0.3285" stop-color="#45D5DF"/>
<stop offset="0.5199" stop-color="#49BDDD"/>
<stop offset="0.7209" stop-color="#4E9CDB"/>
<stop offset="0.9274" stop-color="#5472D8"/>
<stop offset="1" stop-color="#5761D7"/>
</linearGradient>
<linearGradient id="paint5_linear_407_5113" x1="138.091" y1="281.035" x2="214.616" y2="281.035" gradientUnits="userSpaceOnUse">
<stop stop-color="#42E8E0"/>
<stop offset="0.1507" stop-color="#43E3E0"/>
<stop offset="0.3285" stop-color="#45D5DF"/>
<stop offset="0.5199" stop-color="#49BDDD"/>
<stop offset="0.7209" stop-color="#4E9CDB"/>
<stop offset="0.9274" stop-color="#5472D8"/>
<stop offset="1" stop-color="#5761D7"/>
</linearGradient>
<linearGradient id="paint6_linear_407_5113" x1="61.5644" y1="281.034" x2="138.091" y2="281.034" gradientUnits="userSpaceOnUse">
<stop stop-color="#42E8E0"/>
<stop offset="0.1507" stop-color="#43E3E0"/>
<stop offset="0.3285" stop-color="#45D5DF"/>
<stop offset="0.5199" stop-color="#49BDDD"/>
<stop offset="0.7209" stop-color="#4E9CDB"/>
<stop offset="0.9274" stop-color="#5472D8"/>
<stop offset="1" stop-color="#5761D7"/>
</linearGradient>
<radialGradient id="paint7_radial_407_5113" cx="0" cy="0" r="1" gradientUnits="userSpaceOnUse" gradientTransform="translate(176.789 112.987) rotate(11.1976) scale(98.4126)">
<stop stop-color="#C0BFF6"/>
<stop offset="1" stop-color="#393091"/>
</radialGradient>
<radialGradient id="paint8_radial_407_5113" cx="0" cy="0" r="1" gradientUnits="userSpaceOnUse" gradientTransform="translate(165.236 183.693) scale(75.647 102.976)">
<stop stop-color="#C0BFF6"/>
<stop offset="1" stop-color="#393091"/>
</radialGradient>
<linearGradient id="paint9_linear_407_5113" x1="139.265" y1="252.595" x2="139.265" y2="149.662" gradientUnits="userSpaceOnUse">
<stop stop-color="#42E8E0"/>
<stop offset="0.0047" stop-color="#42E6DF"/>
<stop offset="0.1358" stop-color="#40B6CB"/>
<stop offset="0.2707" stop-color="#3E8DB9"/>
<stop offset="0.4074" stop-color="#3C6BAA"/>
<stop offset="0.5467" stop-color="#3B519F"/>
<stop offset="0.6893" stop-color="#3A3F97"/>
<stop offset="0.8375" stop-color="#393493"/>
<stop offset="1" stop-color="#393091"/>
</linearGradient>
<radialGradient id="paint10_radial_407_5113" cx="0" cy="0" r="1" gradientUnits="userSpaceOnUse" gradientTransform="translate(94.9433 56.3704) scale(53.2713 53.2713)">
<stop stop-color="#C0BFF6"/>
<stop offset="1" stop-color="#393091"/>
</radialGradient>
<radialGradient id="paint11_radial_407_5113" cx="0" cy="0" r="1" gradientUnits="userSpaceOnUse" gradientTransform="translate(169.027 119.405) scale(75.879 75.879)">
<stop stop-color="#C0BFF6"/>
<stop offset="1" stop-color="#393091"/>
</radialGradient>
<linearGradient id="paint12_linear_407_5113" x1="134.761" y1="170.519" x2="147.258" y2="81.5937" gradientUnits="userSpaceOnUse">
<stop stop-color="#42E8E0"/>
<stop offset="0.0047" stop-color="#42E6DF"/>
<stop offset="0.1358" stop-color="#40B6CB"/>
<stop offset="0.2707" stop-color="#3E8DB9"/>
<stop offset="0.4074" stop-color="#3C6BAA"/>
<stop offset="0.5467" stop-color="#3B519F"/>
<stop offset="0.6893" stop-color="#3A3F97"/>
<stop offset="0.8375" stop-color="#393493"/>
<stop offset="1" stop-color="#393091"/>
</linearGradient>
<radialGradient id="paint13_radial_407_5113" cx="0" cy="0" r="1" gradientUnits="userSpaceOnUse" gradientTransform="translate(168.42 118.598) scale(36.0354)">
<stop stop-color="#C0BFF6"/>
<stop offset="1" stop-color="#393091"/>
</radialGradient>
<radialGradient id="paint14_radial_407_5113" cx="0" cy="0" r="1" gradientUnits="userSpaceOnUse" gradientTransform="translate(199.449 177.582) rotate(11.1976) scale(35.5686 35.5685)">
<stop stop-color="#C0BFF6"/>
<stop offset="1" stop-color="#393091"/>
</radialGradient>
<linearGradient id="paint15_linear_407_5113" x1="175.555" y1="198.73" x2="203.14" y2="178.687" gradientUnits="userSpaceOnUse">
<stop stop-color="#42E8E0"/>
<stop offset="0.0047" stop-color="#42E6DF"/>
<stop offset="0.1358" stop-color="#40B6CB"/>
<stop offset="0.2707" stop-color="#3E8DB9"/>
<stop offset="0.4074" stop-color="#3C6BAA"/>
<stop offset="0.5467" stop-color="#3B519F"/>
<stop offset="0.6893" stop-color="#3A3F97"/>
<stop offset="0.8375" stop-color="#393493"/>
<stop offset="1" stop-color="#393091"/>
</linearGradient>
<radialGradient id="paint16_radial_407_5113" cx="0" cy="0" r="1" gradientUnits="userSpaceOnUse" gradientTransform="translate(220.972 231.72) rotate(6.80285) scale(30.2374 49.8095)">
<stop stop-color="#C0BFF6"/>
<stop offset="1" stop-color="#393091"/>
</radialGradient>
<linearGradient id="paint17_linear_407_5113" x1="192.527" y1="247.099" x2="215.977" y2="249.896" gradientUnits="userSpaceOnUse">
<stop stop-color="#42E8E0"/>
<stop offset="0.0047" stop-color="#42E6DF"/>
<stop offset="0.1358" stop-color="#40B6CB"/>
<stop offset="0.2707" stop-color="#3E8DB9"/>
<stop offset="0.4074" stop-color="#3C6BAA"/>
<stop offset="0.5467" stop-color="#3B519F"/>
<stop offset="0.6893" stop-color="#3A3F97"/>
<stop offset="0.8375" stop-color="#393493"/>
<stop offset="1" stop-color="#393091"/>
</linearGradient>
<radialGradient id="paint18_radial_407_5113" cx="0" cy="0" r="1" gradientUnits="userSpaceOnUse" gradientTransform="translate(71.8093 183.061) rotate(61.2704) scale(30.2376 49.8105)">
<stop stop-color="#C0BFF6"/>
<stop offset="1" stop-color="#393091"/>
</radialGradient>
<linearGradient id="paint19_linear_407_5113" x1="57.7763" y1="194.74" x2="31.6856" y2="188.041" gradientUnits="userSpaceOnUse">
<stop stop-color="#42E8E0"/>
<stop offset="0.0047" stop-color="#42E6DF"/>
<stop offset="0.1358" stop-color="#40B6CB"/>
<stop offset="0.2707" stop-color="#3E8DB9"/>
<stop offset="0.4074" stop-color="#3C6BAA"/>
<stop offset="0.5467" stop-color="#3B519F"/>
<stop offset="0.6893" stop-color="#3A3F97"/>
<stop offset="0.8375" stop-color="#393493"/>
<stop offset="1" stop-color="#393091"/>
</linearGradient>
<linearGradient id="paint20_linear_407_5113" x1="216.294" y1="181.922" x2="216.294" y2="39.452" gradientUnits="userSpaceOnUse">
<stop stop-color="#161242"/>
<stop offset="0.1155" stop-color="#171746"/>
<stop offset="0.2522" stop-color="#1A2550"/>
<stop offset="0.3996" stop-color="#1F3D62"/>
<stop offset="0.5547" stop-color="#265F7B"/>
<stop offset="0.7159" stop-color="#2F899A"/>
<stop offset="0.8795" stop-color="#39BDC0"/>
<stop offset="1" stop-color="#42E8E0"/>
</linearGradient>
<linearGradient id="paint21_linear_407_5113" x1="61.0724" y1="124.507" x2="61.0724" y2="-0.000200372" gradientUnits="userSpaceOnUse">
<stop stop-color="#161242"/>
<stop offset="0.1155" stop-color="#171746"/>
<stop offset="0.2522" stop-color="#1A2550"/>
<stop offset="0.3996" stop-color="#1F3D62"/>
<stop offset="0.5547" stop-color="#265F7B"/>
<stop offset="0.7159" stop-color="#2F899A"/>
<stop offset="0.8795" stop-color="#39BDC0"/>
<stop offset="1" stop-color="#42E8E0"/>
</linearGradient>
</defs>
</svg>
