<svg width="427" height="427" viewBox="0 0 427 427" fill="none" xmlns="http://www.w3.org/2000/svg">
<path d="M405.333 256C399.675 256 394.249 258.248 390.248 262.248C386.248 266.249 384 271.675 384 277.333V362.667C384 368.325 381.752 373.751 377.752 377.752C373.751 381.752 368.325 384 362.667 384H64C58.342 384 52.9158 381.752 48.9151 377.752C44.9143 373.751 42.6667 368.325 42.6667 362.667V277.333C42.6667 271.675 40.4191 266.249 36.4183 262.248C32.4175 258.248 26.9913 256 21.3333 256C15.6754 256 10.2492 258.248 6.24839 262.248C2.24761 266.249 0 271.675 0 277.333V362.667C0 379.64 6.74284 395.919 18.7452 407.921C30.7475 419.924 47.0261 426.667 64 426.667H362.667C379.64 426.667 395.919 419.924 407.921 407.921C419.924 395.919 426.667 379.64 426.667 362.667V277.333C426.667 271.675 424.419 266.249 420.418 262.248C416.417 258.248 410.991 256 405.333 256ZM198.187 292.48C200.216 294.422 202.608 295.945 205.227 296.96C207.78 298.089 210.541 298.672 213.333 298.672C216.125 298.672 218.886 298.089 221.44 296.96C224.059 295.945 226.451 294.422 228.48 292.48L313.813 207.147C317.83 203.13 320.087 197.681 320.087 192C320.087 186.319 317.83 180.87 313.813 176.853C309.796 172.836 304.348 170.579 298.667 170.579C292.986 170.579 287.537 172.836 283.52 176.853L234.667 225.92V21.3333C234.667 15.6754 232.419 10.2492 228.418 6.24839C224.417 2.24761 218.991 0 213.333 0C207.675 0 202.249 2.24761 198.248 6.24839C194.248 10.2492 192 15.6754 192 21.3333V225.92L143.147 176.853C141.158 174.864 138.796 173.286 136.197 172.21C133.598 171.133 130.813 170.579 128 170.579C125.187 170.579 122.402 171.133 119.803 172.21C117.204 173.286 114.842 174.864 112.853 176.853C110.864 178.842 109.286 181.204 108.21 183.803C107.133 186.402 106.579 189.187 106.579 192C106.579 194.813 107.133 197.598 108.21 200.197C109.286 202.796 110.864 205.158 112.853 207.147L198.187 292.48Z" fill="white"/>
</svg>
